<?xml version="1.0" encoding="UTF-8"?><svg id="a" xmlns="http://www.w3.org/2000/svg" viewBox="0 0 324.66 208.78"><rect x="55.63" y="76.82" width="92.45" height="16" rx="2.53" ry="2.53" style="fill:#c4bfe2;"/><rect x="55.63" y="102.18" width="212.5" height="37.51" rx="7.08" ry="7.08" style="fill:#f5f5fc; stroke:#5353c1; stroke-miterlimit:10; stroke-width:2px;"/><g><path d="M77.41,115.89v11.64h-1.41v-10.16h-.07l-2.84,1.89v-1.43l2.91-1.93h1.41Z" style="fill:#8a8a9e;"/><path d="M81.09,127.53v-1.02l3.84-4.2c.45-.49,.82-.92,1.11-1.29,.29-.37,.51-.71,.65-1.03,.14-.32,.21-.66,.21-1.02,0-.41-.1-.76-.29-1.06-.19-.3-.46-.53-.8-.69-.34-.16-.72-.24-1.14-.24-.45,0-.84,.09-1.17,.28-.33,.18-.59,.44-.77,.77-.18,.33-.27,.72-.27,1.16h-1.34c0-.68,.16-1.28,.47-1.8,.31-.51,.74-.92,1.29-1.2,.54-.29,1.15-.43,1.83-.43s1.29,.14,1.81,.43,.94,.68,1.24,1.16c.3,.49,.45,1.03,.45,1.63,0,.43-.08,.85-.23,1.25-.15,.41-.42,.86-.8,1.36s-.9,1.1-1.57,1.82l-2.61,2.8v.09h5.41v1.25h-7.34Z" style="fill:#8a8a9e;"/><path d="M95.04,127.69c-.75,0-1.42-.13-2-.39-.58-.26-1.05-.62-1.39-1.08-.34-.46-.53-1-.56-1.61h1.43c.03,.38,.16,.7,.39,.97,.23,.27,.52,.48,.89,.63,.37,.15,.77,.22,1.22,.22,.5,0,.94-.09,1.33-.26,.39-.17,.69-.42,.91-.73,.22-.31,.33-.67,.33-1.08s-.11-.81-.32-1.13c-.21-.33-.52-.58-.93-.77-.41-.19-.91-.28-1.5-.28h-.93v-1.25h.93c.46,0,.87-.08,1.22-.25,.35-.17,.62-.4,.82-.7,.2-.3,.3-.66,.3-1.07s-.09-.74-.26-1.03c-.17-.29-.42-.52-.74-.68-.32-.16-.69-.24-1.12-.24-.4,0-.78,.07-1.13,.22-.35,.15-.64,.36-.87,.63-.22,.27-.34,.61-.36,.99h-1.36c.02-.61,.21-1.14,.55-1.6,.34-.46,.8-.82,1.35-1.08,.56-.26,1.17-.39,1.84-.39,.72,0,1.34,.14,1.85,.43s.91,.67,1.19,1.15c.28,.47,.41,.98,.41,1.53,0,.66-.17,1.21-.51,1.68s-.81,.78-1.4,.96v.09c.73,.12,1.31,.43,1.72,.93,.41,.5,.62,1.12,.62,1.86,0,.63-.17,1.2-.51,1.7-.34,.5-.81,.9-1.4,1.18s-1.26,.43-2.02,.43Z" style="fill:#8a8a9e;"/></g><line x1="107.08" y1="131.32" x2="107.08" y2="111.32" style="fill:none; stroke:#474751; stroke-linecap:round; stroke-linejoin:round;"/><path d="M131.97,132.91c0,.12-.1,.22-.22,.22h-1.12c-.71,0-1.31-.4-1.61-.99-.3,.57-.91,.96-1.6,.96h-1.12c-.12,0-.22-.09-.22-.22,0-.12,.1-.22,.22-.22h1.12c.76,0,1.37-.6,1.38-1.37v-4.07h-1.98c-.12,0-.22-.1-.22-.22s.1-.22,.22-.22h1.98v-4.82c0-.76-.62-1.38-1.38-1.38h-1.12c-.12,0-.22-.1-.22-.22s.1-.22,.22-.22h1.12c.71,0,1.31,.39,1.6,.97,.3-.57,.92-.96,1.61-.96h1.12c.12,0,.22,.1,.22,.22s-.1,.22-.22,.22h-1.12c-.77,0-1.38,.6-1.39,1.37v4.82h1.98c.12,0,.22,.1,.22,.22s-.1,.22-.22,.22h-1.98v4.07c0,.76,.62,1.39,1.39,1.39h1.12c.12,0,.22,.1,.22,.22Z" style="fill:#6d6d7c;"/><g><path d="M249.27,111.31l-5.07,6.22c-.22,.27-.08,.77,.21,.77h10.97c.29,0,.42-.5,.21-.77l-5.07-6.22c-.36-.44-.89-.44-1.25,0Z" style="fill:#c4bfe2;"/><path d="M250.52,130.55l5.07-6.22c.22-.27,.08-.77-.21-.77h-10.97c-.29,0-.42,.5-.21,.77l5.07,6.22c.36,.44,.89,.44,1.25,0Z" style="fill:#c4bfe2;"/></g></svg>