<?xml version="1.0" encoding="UTF-8"?><svg id="a" xmlns="http://www.w3.org/2000/svg" viewBox="0 0 324.66 208.78"><rect x="97.13" y="88.75" width="59.85" height="31.42" style="fill:#e1dff2;"/><rect x="186.74" y="87.96" width="31.68" height="31.42" style="fill:#e1dff2;"/><g><path d="M99.11,123.33c-1.47,0-3.94-.38-3.94-2.94v-29.43c0-2.17,1.77-3.94,3.94-3.94h55.11c2.18,0,3.95,1.77,3.95,3.94v29.43c0,2.56-2.47,2.94-3.95,2.94h-55.11Zm0-33.81c-.79,0-1.44,.65-1.44,1.44v25.43c0,.79,.65,1.44,1.44,1.44h55.11c.8,0,1.45-.65,1.45-1.44v-25.43c0-.79-.65-1.44-1.45-1.44h-55.11Z" style="fill:#857daa;"/><path d="M154.22,87.27c2.04,0,3.7,1.66,3.7,3.69v29.43c0,2.22-2.01,2.69-3.7,2.69h-55.11c-1.68,0-3.69-.47-3.69-2.69v-29.43c0-2.03,1.66-3.69,3.69-3.69h55.11m-55.11,30.81h55.11c.94,0,1.7-.76,1.7-1.69v-25.43c0-.93-.76-1.69-1.7-1.69h-55.11c-.93,0-1.69,.76-1.69,1.69v25.43c0,.93,.76,1.69,1.69,1.69m55.11-31.31h-55.11c-2.31,0-4.19,1.88-4.19,4.19v29.43c0,2.31,1.88,3.19,4.19,3.19h55.11c2.32,0,4.2-.88,4.2-3.19v-29.43c0-2.31-1.88-4.19-4.2-4.19h0Zm-55.11,30.81c-.65,0-1.19-.54-1.19-1.19v-25.43c0-.65,.54-1.19,1.19-1.19h55.11c.66,0,1.2,.54,1.2,1.19v25.43c0,.65-.54,1.19-1.2,1.19h-55.11Z" style="fill:#f3f2f7;"/></g><g><path d="M119.9,100.7h-3.34c-.1-.55-.27-1.03-.53-1.46-.26-.43-.57-.79-.96-1.08-.38-.3-.81-.52-1.3-.67-.48-.15-1.01-.23-1.57-.23-.99,0-1.87,.25-2.64,.75-.77,.5-1.37,1.22-1.8,2.18-.43,.96-.65,2.12-.65,3.49s.22,2.58,.66,3.53c.44,.96,1.04,1.68,1.8,2.16s1.64,.73,2.63,.73c.55,0,1.06-.07,1.54-.22,.48-.15,.91-.36,1.29-.65s.71-.64,.97-1.05c.27-.42,.45-.89,.55-1.43l3.34,.02c-.12,.87-.39,1.68-.81,2.45s-.95,1.43-1.62,2.01-1.45,1.03-2.34,1.36-1.88,.49-2.97,.49c-1.61,0-3.04-.37-4.3-1.12-1.26-.74-2.25-1.82-2.98-3.22-.73-1.4-1.09-3.09-1.09-5.05s.37-3.65,1.1-5.06c.73-1.4,1.73-2.47,2.99-3.22,1.26-.74,2.69-1.12,4.28-1.12,1.02,0,1.96,.14,2.84,.43s1.65,.7,2.34,1.25c.68,.55,1.25,1.22,1.69,2.02,.44,.79,.73,1.7,.87,2.72Z" style="fill:#857daa;"/><path d="M129.65,99.1v2.5h-7.88v-2.5h7.88Zm-5.94-3.28h3.23v12.87c0,.43,.07,.77,.2,1s.31,.39,.53,.47c.22,.08,.46,.12,.73,.12,.2,0,.39-.01,.56-.04,.17-.03,.3-.06,.39-.08l.54,2.53c-.17,.06-.42,.12-.74,.2s-.71,.11-1.16,.12c-.81,.02-1.54-.1-2.19-.37-.65-.27-1.16-.69-1.54-1.26s-.56-1.29-.56-2.14v-13.4Z" style="fill:#857daa;"/><path d="M132.35,112.81v-13.71h3.13v2.28h.14c.25-.79,.68-1.4,1.29-1.83,.61-.43,1.31-.65,2.09-.65,.18,0,.38,0,.6,.02,.22,.01,.41,.04,.56,.07v2.97c-.14-.05-.35-.09-.65-.13-.29-.04-.58-.06-.85-.06-.59,0-1.12,.13-1.58,.38s-.83,.6-1.1,1.05-.4,.96-.4,1.54v8.06h-3.23Z" style="fill:#857daa;"/><path d="M145.55,94.53v18.28h-3.23v-18.28h3.23Z" style="fill:#857daa;"/></g><g><path d="M189.12,123.33c-1.47,0-3.94-.38-3.94-2.94v-29.43c0-2.17,1.77-3.94,3.94-3.94h28.11c2.18,0,3.95,1.77,3.95,3.94v29.43c0,2.56-2.47,2.94-3.95,2.94h-28.11Zm0-33.81c-.79,0-1.44,.65-1.44,1.44v25.43c0,.79,.65,1.44,1.44,1.44h28.11c.8,0,1.45-.65,1.45-1.44v-25.43c0-.79-.65-1.44-1.45-1.44h-28.11Z" style="fill:#857daa;"/><path d="M217.23,87.27c2.04,0,3.7,1.66,3.7,3.69v29.43c0,2.22-2.01,2.69-3.7,2.69h-28.11c-1.68,0-3.69-.47-3.69-2.69v-29.43c0-2.03,1.66-3.69,3.69-3.69h28.11m-28.11,30.81h28.11c.94,0,1.7-.76,1.7-1.69v-25.43c0-.93-.76-1.69-1.7-1.69h-28.11c-.93,0-1.69,.76-1.69,1.69v25.43c0,.93,.76,1.69,1.69,1.69m28.11-31.31h-28.11c-2.31,0-4.19,1.88-4.19,4.19v29.43c0,2.31,1.88,3.19,4.19,3.19h28.11c2.32,0,4.2-.88,4.2-3.19v-29.43c0-2.31-1.88-4.19-4.2-4.19h0Zm-28.11,30.81c-.65,0-1.19-.54-1.19-1.19v-25.43c0-.65,.54-1.19,1.19-1.19h28.11c.66,0,1.2,.54,1.2,1.19v25.43c0,.65-.54,1.19-1.2,1.19h-28.11Z" style="fill:#f3f2f7;"/></g><path d="M166.1,105.18v-2.16h12.72v2.16h-12.72Zm5.28,5.28v-12.72h2.16v12.72h-2.16Z" style="fill:#524e63;"/><path d="M197.26,112.81v-18.28h6.85c1.4,0,2.58,.26,3.54,.79s1.68,1.24,2.17,2.16c.49,.91,.74,1.95,.74,3.11s-.25,2.21-.74,3.12c-.49,.91-1.22,1.63-2.19,2.15-.96,.52-2.15,.78-3.56,.78h-4.54v-2.72h4.1c.82,0,1.49-.14,2.02-.43,.52-.29,.91-.68,1.17-1.18,.25-.5,.38-1.07,.38-1.72s-.13-1.22-.38-1.71c-.25-.49-.64-.88-1.17-1.16-.53-.28-1.2-.42-2.03-.42h-3.03v15.51h-3.31Z" style="fill:#857daa;"/></svg>