<?xml version="1.0" encoding="UTF-8"?><svg id="a" xmlns="http://www.w3.org/2000/svg" viewBox="0 0 324.66 208.78"><rect x="54.47" y="110.85" width="222.33" height="5" rx="2.5" ry="2.5" style="fill:#cdcde0;"/><path d="M56.97,110.85h93.37v5H56.97c-1.38,0-2.5-1.12-2.5-2.5h0c0-1.38,1.12-2.5,2.5-2.5Z" style="fill:#aea1d6;"/><g><path d="M55.58,99.04v-1.38l6.07-9.61h1v2.13h-.67l-4.59,7.26v.11h8.18v1.48h-9.99Zm6.5,2.83v-13.82h1.59v13.82h-1.59Z" style="fill:#84849b;"/><path d="M72.82,102.06c-.79,0-1.5-.16-2.14-.47-.63-.31-1.14-.75-1.52-1.3s-.59-1.17-.63-1.88h1.62c.06,.63,.35,1.14,.85,1.55,.51,.41,1.11,.61,1.82,.61,.57,0,1.07-.13,1.51-.4,.44-.27,.79-.63,1.05-1.1,.25-.47,.38-.99,.38-1.58s-.13-1.14-.4-1.62c-.26-.47-.62-.85-1.08-1.12-.46-.27-.98-.41-1.57-.42-.42,0-.86,.06-1.3,.19s-.81,.3-1.1,.51l-1.57-.19,.84-6.8h7.18v1.48h-5.78l-.49,4.08h.08c.28-.23,.64-.41,1.07-.56,.43-.15,.87-.22,1.34-.22,.85,0,1.6,.2,2.26,.6,.66,.4,1.19,.95,1.57,1.65,.38,.7,.57,1.49,.57,2.39s-.2,1.67-.59,2.36-.93,1.23-1.62,1.63c-.69,.4-1.47,.6-2.35,.6Z" style="fill:#84849b;"/><path d="M80.61,91.38v-.73c0-.5,.1-.97,.31-1.39,.21-.42,.51-.76,.92-1.01,.4-.25,.89-.38,1.47-.38s1.08,.13,1.47,.38c.4,.25,.69,.59,.9,1.01,.2,.42,.3,.88,.3,1.39v.73c0,.5-.1,.97-.31,1.39-.21,.42-.51,.76-.9,1.01-.4,.25-.89,.38-1.46,.38s-1.08-.13-1.48-.38c-.4-.25-.7-.59-.91-1.01-.21-.42-.31-.88-.31-1.39Zm.51,10.5l9.5-13.82h1.54l-9.5,13.82h-1.54Zm.86-11.23v.73c0,.42,.1,.79,.3,1.12s.54,.5,1.03,.5,.81-.17,1-.5c.2-.33,.29-.71,.29-1.12v-.73c0-.42-.09-.79-.28-1.12s-.53-.5-1.01-.5-.81,.17-1.02,.5c-.21,.33-.31,.71-.31,1.12Zm5.51,8.64v-.73c0-.5,.1-.97,.31-1.39,.21-.42,.52-.76,.92-1.01,.4-.25,.89-.38,1.47-.38s1.08,.13,1.47,.38c.4,.25,.7,.59,.9,1.01,.2,.42,.3,.88,.3,1.39v.73c0,.5-.1,.97-.31,1.39-.2,.42-.51,.76-.9,1.01-.4,.25-.89,.38-1.46,.38s-1.08-.13-1.48-.38c-.4-.25-.7-.59-.91-1.01-.21-.42-.31-.88-.31-1.39Zm1.38-.73v.73c0,.42,.1,.79,.3,1.12,.2,.33,.54,.5,1.03,.5s.81-.17,1-.5c.2-.33,.29-.71,.29-1.12v-.73c0-.42-.09-.79-.28-1.12s-.53-.5-1.01-.5-.81,.17-1.02,.5-.31,.71-.31,1.12Z" style="fill:#84849b;"/></g></svg>