<?xml version="1.0" encoding="UTF-8"?><svg id="a" xmlns="http://www.w3.org/2000/svg" viewBox="0 0 324.66 208.78"><rect x="55.63" y="39.69" width="212.5" height="37.51" rx="7.08" ry="7.08" style="fill:#f5f5fc; stroke:#5353c1; stroke-miterlimit:10; stroke-width:2px;"/><rect x="72.81" y="54.44" width="128.45" height="8" rx="4" ry="4" style="fill:#cfcced;"/><path d="M249.43,61.62l5.07-6.22c.22-.27,.08-.77-.21-.77h-10.97c-.29,0-.42,.5-.21,.77l5.07,6.22c.36,.44,.89,.44,1.25,0Z" style="fill:#c4bfe2;"/><rect x="55.63" y="81.71" width="212.5" height="102.48" rx="6.05" ry="6.05" style="fill:#f5f5fc;"/><rect x="55.63" y="115.71" width="212.5" height="34.07" style="fill:#dad9ff;"/><rect x="72.81" y="95.69" width="102.61" height="8" rx="4" ry="4" style="fill:#cfcced;"/><rect x="72.81" y="163.05" width="68.28" height="8" rx="4" ry="4" style="fill:#cfcced;"/><rect x="72.81" y="129.37" width="128.45" height="8" rx="4" ry="4" style="fill:#aba6e0;"/><g><path d="M253.66,147.37c-.07,.22-.22,.42-.42,.57-.26,.21-.64,.37-1.06,.46,0,.01-.01,.01-.01,.01l-3.01,.62,2.14,3.75c.11,.19,.13,.43,.08,.64-.06,.2-.18,.39-.37,.52-.01,0-.02,.01-.03,.01l-2.22,1.29s-.03,.02-.05,.03c-.19,.09-.4,.1-.6,.05-.21-.06-.4-.19-.51-.38l-2.16-3.74-2.05,2.31c-.28,.32-.61,.57-.92,.7-.24,.09-.48,.12-.71,.08-.24-.05-.45-.19-.61-.45-.12-.19-.2-.45-.23-.78l-1.14-14.93v-.03c0-.09,.01-.18,.05-.27,.04-.09,.11-.18,.2-.24,.04-.03,.08-.05,.12-.06,.08-.03,.17-.04,.26-.03,.08,.01,.16,.04,.23,.08,.03,.01,.05,.02,.07,.04l12.3,8.44c.27,.19,.45,.38,.56,.59,.14,.26,.15,.52,.08,.75Z" style="fill:#fff;"/><path d="M248.71,155.24c-.19,.09-.41,.1-.6,.05-.21-.06-.4-.19-.51-.39l-2.16-3.73-2.05,2.31c-.29,.32-.61,.56-.92,.69-.24,.1-.48,.13-.7,.08-.24-.05-.45-.19-.61-.44-.12-.19-.2-.45-.23-.78l-1.14-14.93s0-.02,0-.03c0-.09,.02-.18,.05-.27,.04-.1,.11-.18,.2-.25,.04-.03,.08-.05,.12-.06,.09-.03,.17-.04,.26-.03,.08,0,.16,.03,.24,.08,.02,.01,.05,.03,.07,.04l12.3,8.45c.27,.19,.45,.39,.56,.59,.13,.25,.15,.51,.07,.75-.07,.22-.22,.41-.42,.57-.26,.21-.64,.37-1.06,.46,0,0-.01,0-.01,0l-3,.62,2.14,3.74c.11,.2,.13,.43,.08,.64-.06,.2-.18,.39-.38,.52,0,0-.02,.01-.02,.01l-2.22,1.29s-.03,.02-.05,.02h0Zm-.4-.7s.04,0,.06,0c0,0,.01,0,.02-.01l2.19-1.27s.03-.04,.04-.06c0-.02,0-.04,0-.05l-2.41-4.21h0s-.03-.07-.04-.12c-.04-.21,.09-.42,.3-.46l3.53-.73s0,0,.01,0c.3-.06,.56-.17,.73-.31,.08-.07,.14-.13,.16-.2,.01-.04,0-.09-.02-.14-.05-.09-.15-.19-.31-.31l-11.99-8.24,1.11,14.54c.01,.2,.05,.34,.11,.42,.03,.05,.07,.08,.11,.09,.07,.01,.15,0,.25-.04,.2-.08,.42-.25,.63-.49l2.41-2.71h0s.06-.06,.1-.08c.19-.11,.42-.05,.53,.14l2.43,4.19s.02,.02,.04,.02h0Zm.09-.01c.05-.02,.11-.04,.17-.04l-.17,.04h0Z"/></g></svg>