<?xml version="1.0" encoding="UTF-8"?><svg id="a" xmlns="http://www.w3.org/2000/svg" xmlns:xlink="http://www.w3.org/1999/xlink" viewBox="0 0 324.66 208.78"><defs><linearGradient id="b" x1="162.69" y1="176.32" x2="162.69" y2="141.96" gradientUnits="userSpaceOnUse"><stop offset="0" stop-color="#fff"/><stop offset="1" stop-color="#fff" stop-opacity="0"/></linearGradient></defs><path d="M284.24,38.24V174.24c0,1.61-1.34,2.91-3,2.91H44.14c-1.66,0-3-1.3-3-2.91V38.24c0-1.61,1.34-2.91,3-2.91h237.1c1.66,0,3,1.3,3,2.91Z" style="fill:#fff; stroke:#dadaea; stroke-miterlimit:10;"/><rect x="60.41" y="54.61" width="34.85" height="32.68" rx="3.95" ry="3.95" style="fill:#c9c5ed;"/><rect x="101.94" y="54.61" width="39.03" height="32.68" rx="3.95" ry="3.95" style="fill:#c9c5ed;"/><rect x="147.64" y="54.61" width="54.93" height="32.68" rx="3.95" ry="3.95" style="fill:#c9c5ed;"/><rect x="209.24" y="54.61" width="55.9" height="32.68" rx="3.95" ry="3.95" style="fill:#c9c5ed;"/><rect x="224.39" y="96.58" width="40.75" height="30.16" rx="1.76" ry="1.76" style="fill:#eceaf4;"/><rect x="60.41" y="96.58" width="34.85" height="43.94" rx="1.76" ry="1.76" style="fill:#eceaf4;"/><path d="M106.41,96.58h107.48c.97,0,1.76,.79,1.76,1.76v75.46H104.64V98.35c0-.97,.79-1.76,1.76-1.76Z" style="fill:#eceaf4;"/><path d="M265.14,132.44v41.37h-40.75v-41.37c0-1.08,.59-1.94,1.33-1.94h38.09c.73,0,1.32,.87,1.32,1.94Z" style="fill:#eceaf4;"/><path d="M95.27,145.46v28.35H60.41v-28.35c0-.74,.59-1.33,1.33-1.33h32.19c.74,0,1.33,.59,1.33,1.33Z" style="fill:#eceaf4;"/><rect x="45.42" y="141.36" width="234.54" height="34.96" style="fill:url(#b);"/></svg>