<?xml version="1.0" encoding="UTF-8"?><svg id="a" xmlns="http://www.w3.org/2000/svg" viewBox="0 0 324.66 208.78"><rect x="28.2" y="23.36" width="92.45" height="16" rx="2.53" ry="2.53" style="fill:#c4bfe2;"/><rect x="28.2" y="48.72" width="265.86" height="135.3" rx="7.37" ry="7.37" style="fill:#f5f5fc; stroke:#5353c1; stroke-miterlimit:10; stroke-width:2px;"/><g><path d="M42.36,62.21v-1.09h7.64v1.09h-3.2v9.09h-1.23v-9.09h-3.2Z" style="fill:#8a8a9e;"/><path d="M52.79,74.17c-.2,0-.38-.02-.53-.05-.16-.03-.26-.06-.32-.09l.3-1.03c.28,.07,.54,.1,.76,.08s.41-.12,.58-.29c.17-.17,.33-.46,.47-.84l.22-.6-2.82-7.68h1.27l2.11,6.09h.08l2.11-6.09h1.27l-3.24,8.75c-.15,.39-.33,.72-.54,.98s-.46,.45-.75,.58-.6,.19-.96,.19Z" style="fill:#8a8a9e;"/><path d="M60.13,74.17v-10.5h1.13v1.21h.14c.09-.13,.21-.3,.36-.51s.38-.39,.67-.56,.68-.25,1.18-.25c.64,0,1.21,.16,1.7,.48,.49,.32,.87,.78,1.15,1.37,.27,.59,.41,1.29,.41,2.09s-.14,1.51-.41,2.1c-.28,.59-.66,1.05-1.14,1.37s-1.05,.48-1.69,.48c-.49,0-.88-.08-1.18-.25s-.52-.35-.68-.56-.28-.39-.37-.52h-.1v4.04h-1.17Zm1.15-6.68c0,.58,.08,1.08,.25,1.52,.17,.44,.42,.78,.74,1.03,.32,.25,.72,.37,1.19,.37s.9-.13,1.23-.39c.33-.26,.58-.61,.75-1.05,.17-.44,.25-.94,.25-1.48s-.08-1.02-.25-1.45c-.16-.43-.41-.78-.74-1.03-.33-.25-.74-.38-1.24-.38s-.88,.12-1.2,.36c-.32,.24-.57,.58-.74,1-.17,.43-.25,.93-.25,1.5Z" style="fill:#8a8a9e;"/><path d="M69.55,62.39c-.23,0-.42-.08-.59-.23-.16-.16-.25-.34-.25-.56s.08-.41,.25-.56,.36-.23,.59-.23,.43,.08,.59,.23,.25,.34,.25,.56-.08,.41-.25,.56c-.16,.16-.36,.23-.59,.23Zm-.6,8.91v-7.64h1.17v7.64h-1.17Z" style="fill:#8a8a9e;"/><path d="M73.74,66.71v4.59h-1.17v-7.64h1.13v1.19h.1c.18-.39,.45-.7,.82-.94,.36-.24,.84-.36,1.41-.36,.52,0,.97,.1,1.36,.32,.39,.21,.69,.53,.91,.95,.22,.43,.32,.96,.32,1.61v4.85h-1.17v-4.77c0-.6-.16-1.07-.47-1.4-.31-.34-.74-.5-1.28-.5-.37,0-.71,.08-1,.24s-.52,.4-.69,.71c-.17,.31-.25,.69-.25,1.13Z" style="fill:#8a8a9e;"/><path d="M84.14,74.32c-.57,0-1.05-.07-1.46-.22-.41-.14-.75-.33-1.02-.57-.27-.23-.48-.48-.64-.75l.93-.66c.11,.14,.24,.3,.4,.48,.16,.18,.39,.34,.67,.47,.28,.13,.66,.2,1.12,.2,.62,0,1.12-.15,1.53-.45,.4-.3,.6-.77,.6-1.4v-1.55h-.1c-.09,.14-.21,.31-.37,.51-.16,.2-.38,.38-.68,.54-.29,.16-.69,.24-1.19,.24-.62,0-1.17-.15-1.66-.44-.49-.29-.88-.72-1.16-1.27-.28-.56-.43-1.23-.43-2.03s.14-1.46,.41-2.05c.28-.58,.66-1.03,1.15-1.35,.49-.32,1.06-.48,1.7-.48,.5,0,.89,.08,1.19,.25s.52,.35,.68,.56c.16,.21,.28,.38,.37,.51h.12v-1.21h1.13v7.85c0,.66-.15,1.19-.45,1.6-.3,.41-.69,.72-1.19,.91-.5,.19-1.05,.29-1.66,.29Zm-.04-4.2c.47,0,.87-.11,1.19-.32,.32-.22,.57-.53,.74-.93s.25-.89,.25-1.45-.08-1.04-.25-1.46c-.17-.42-.41-.75-.74-.99-.33-.24-.73-.36-1.2-.36s-.91,.13-1.24,.38c-.33,.25-.58,.59-.74,1.01s-.25,.9-.25,1.41,.08,1,.25,1.4,.42,.72,.75,.95c.33,.23,.74,.35,1.23,.35Z" style="fill:#8a8a9e;"/><path d="M90.73,71.38c-.25,0-.46-.09-.63-.26-.18-.18-.26-.39-.26-.63s.09-.46,.26-.63c.18-.18,.39-.26,.63-.26s.46,.09,.63,.26c.18,.18,.26,.39,.26,.63,0,.16-.04,.31-.12,.45-.08,.14-.19,.24-.32,.33s-.28,.12-.45,.12Z" style="fill:#8a8a9e;"/><path d="M94.89,71.38c-.25,0-.46-.09-.63-.26-.18-.18-.26-.39-.26-.63s.09-.46,.26-.63c.18-.18,.39-.26,.63-.26s.46,.09,.63,.26c.18,.18,.26,.39,.26,.63,0,.16-.04,.31-.12,.45-.08,.14-.19,.24-.32,.33s-.28,.12-.45,.12Z" style="fill:#8a8a9e;"/><path d="M99.04,71.38c-.25,0-.46-.09-.63-.26-.18-.18-.26-.39-.26-.63s.09-.46,.26-.63c.18-.18,.39-.26,.63-.26s.46,.09,.63,.26c.18,.18,.26,.39,.26,.63,0,.16-.04,.31-.12,.45-.08,.14-.19,.24-.32,.33s-.28,.12-.45,.12Z" style="fill:#8a8a9e;"/></g><line x1="110.65" y1="59.04" x2="110.65" y2="73.36" style="fill:none; stroke:#474751; stroke-linecap:round; stroke-linejoin:round;"/><path d="M145.54,99.46c0,.12-.1,.22-.22,.22h-1.12c-.71,0-1.31-.4-1.61-.99-.3,.57-.91,.96-1.6,.96h-1.12c-.12,0-.22-.09-.22-.22,0-.12,.1-.22,.22-.22h1.12c.76,0,1.37-.6,1.38-1.37v-4.07h-1.98c-.12,0-.22-.1-.22-.22s.1-.22,.22-.22h1.98v-4.82c0-.76-.62-1.38-1.38-1.38h-1.12c-.12,0-.22-.1-.22-.22s.1-.22,.22-.22h1.12c.71,0,1.31,.39,1.6,.97,.3-.57,.92-.96,1.61-.96h1.12c.12,0,.22,.1,.22,.22s-.1,.22-.22,.22h-1.12c-.77,0-1.38,.6-1.39,1.37v4.82h1.98c.12,0,.22,.1,.22,.22s-.1,.22-.22,.22h-1.98v4.07c0,.76,.62,1.39,1.39,1.39h1.12c.12,0,.22,.1,.22,.22Z" style="fill:#6d6d7c;"/></svg>