<?xml version="1.0" encoding="utf-8"?>
<!-- Generator: Adobe Illustrator 26.4.1, SVG Export Plug-In . SVG Version: 6.00 Build 0)  -->
<svg version="1.1" id="Layer_1" xmlns="http://www.w3.org/2000/svg" xmlns:xlink="http://www.w3.org/1999/xlink" x="0px" y="0px"
	 viewBox="0 0 32 32" style="enable-background:new 0 0 32 32;" xml:space="preserve">
<style type="text/css">
	.st0{fill:#9995AF;}
</style>
<path class="st0" d="M15.5,13.8l-5.7,5.7c-0.1,0.1-0.3,0.2-0.5,0.2c-0.2,0-0.3-0.1-0.5-0.2c-0.1-0.1-0.2-0.3-0.2-0.5
	c0-0.2,0.1-0.3,0.2-0.5l5.9-5.9c0.1-0.1,0.2-0.2,0.4-0.2c0.1,0,0.3-0.1,0.4-0.1c0.1,0,0.3,0,0.4,0.1c0.1,0,0.2,0.1,0.4,0.2l5.9,5.9
	c0.1,0.1,0.2,0.3,0.2,0.5c0,0.2-0.1,0.3-0.2,0.5c-0.1,0.1-0.3,0.2-0.5,0.2c-0.2,0-0.3-0.1-0.5-0.2L15.5,13.8z"/>
</svg>
