<?xml version="1.0" encoding="utf-8"?>
<!-- Generator: Adobe Illustrator 26.4.1, SVG Export Plug-In . SVG Version: 6.00 Build 0)  -->
<svg version="1.1" id="Layer_1" xmlns="http://www.w3.org/2000/svg" xmlns:xlink="http://www.w3.org/1999/xlink" x="0px" y="0px"
	 viewBox="0 0 882.5 250" style="enable-background:new 0 0 882.5 250;" xml:space="preserve">
<style type="text/css">
	.st0{fill:url(#SVGID_1_);}
	.st1{fill:url(#SVGID_00000160182486246141567910000008724679405739468461_);}
	.st2{enable-background:new    ;}
	.st3{fill:#FFFFFF;}
</style>
<radialGradient id="SVGID_1_" cx="124.2749" cy="-119.6729" r="152.8963" gradientTransform="matrix(1 0 0 1 0 244)" gradientUnits="userSpaceOnUse">
	<stop  offset="0" style="stop-color:#FFFFFF"/>
	<stop  offset="0.3921" style="stop-color:#FEFDFF"/>
	<stop  offset="0.5333" style="stop-color:#F9F6FD"/>
	<stop  offset="0.634" style="stop-color:#F0EBFA"/>
	<stop  offset="0.7155" style="stop-color:#E3DAF6"/>
	<stop  offset="0.7852" style="stop-color:#D3C4F1"/>
	<stop  offset="0.847" style="stop-color:#BEA8EA"/>
	<stop  offset="0.9028" style="stop-color:#A688E3"/>
	<stop  offset="0.9525" style="stop-color:#8B64DA"/>
	<stop  offset="0.9983" style="stop-color:#6C3BD0"/>
	<stop  offset="1" style="stop-color:#6B39D0"/>
</radialGradient>
<circle class="st0" cx="124.3" cy="124.3" r="121.5"/>
<g>
	
		<linearGradient id="SVGID_00000096744808313503787020000010685621754587528580_" gradientUnits="userSpaceOnUse" x1="64.5357" y1="430.1338" x2="183.3801" y2="311.2894" gradientTransform="matrix(1 0 0 -1 0 498.6541)">
		<stop  offset="0" style="stop-color:#FFDFFF"/>
		<stop  offset="0.233" style="stop-color:#D7B2F2"/>
		<stop  offset="0.5974" style="stop-color:#9D71E0"/>
		<stop  offset="0.8631" style="stop-color:#7948D4"/>
		<stop  offset="1" style="stop-color:#6B39D0"/>
	</linearGradient>
	<path style="fill:url(#SVGID_00000096744808313503787020000010685621754587528580_);" d="M228.6,116.2c-9.1-12.6-35-42.8-76.9-52.5
		c-7.6-1.7-15.4-2.7-23.4-3c-10.4-0.2-20.9,0.8-31.1,3c-31.7,7.1-59.4,26-77.6,53.2c-4.6,6.7-4.6,15.9,0.1,22.5
		c12.4,17.9,29.2,32.5,48.7,42.2c17.6,8.8,36.9,13.4,56.3,13.4c2.2,0,4.3-0.1,6.5-0.2c53.5-2.8,85.9-39.3,97.3-54.8
		C233.7,133,233.7,123.4,228.6,116.2z M83.3,106.9c0.9-4.3,2.5-8.5,4.9-12.1c3-4.9,8.9-11.4,19.6-15.1c1.7-0.7,3.6-1.1,5.4-1.4
		c3.2-0.7,6.4-0.9,9.7-0.7c0.3,0,0.5,0,0.9,0.1c2.7,0.5,4.7,2.9,4.6,5.8c-0.1,3.2-2.8,5.4-5.9,5.3c-3.8-0.2-7.4,0.3-10.9,1.5
		c-7.5,2.6-11.6,7.2-13.7,10.5c-1.6,2.5-2.7,5.3-3.4,8.4c-0.5,2.6-2.9,4.5-5.5,4.5c-0.3,0-0.8,0-1.1-0.1
		C84.6,112.9,82.7,109.9,83.3,106.9z M214.9,130c-10,13.6-38.3,45.4-84.6,47.9c-1.8,0.1-3.7,0.1-5.5,0.1
		c-35.8,0-70.2-18.2-91.1-48.3c-0.8-1.1-0.8-2.5,0-3.5c11-16.3,25.8-29.2,42.9-37.6c-4.3,7.9-6.7,17-6.7,26.2
		c0,30,24.5,54.6,54.6,54.6s54.6-24.5,54.6-54.6c0-9-2.3-17.8-6.4-25.6c7.4,3.8,13.9,8.3,19.5,12.8c11.2,9,18.9,18.5,22.9,24
		C215.7,127.3,215.7,128.8,214.9,130z"/>
</g>
<g class="st2">
	<path class="st3" d="M302.2,173.8V74.4h11.6l44.6,75.1h-6.2l44-75.1h11.6l0.1,99.4h-13.6l-0.1-78h3.3l-39.3,66h-6.5l-39.5-65.9h3.5
		v78h-13.5V173.8z"/>
	<path class="st3" d="M455.8,174.7c-5.6,0-10.5-0.9-14.7-2.8c-4.2-1.9-7.5-4.5-9.7-7.9c-2.3-3.4-3.4-7.2-3.4-11.4
		c0-4.1,1-7.8,2.9-11.1s5.1-6,9.5-8s10.3-3,17.8-3h23.9v9.8h-23.3c-6.8,0-11.4,1.1-13.8,3.4c-2.4,2.3-3.5,5-3.5,8.2
		c0,3.7,1.5,6.7,4.4,8.9s7,3.3,12.2,3.3c5.1,0,9.6-1.1,13.4-3.4c3.8-2.3,6.6-5.6,8.3-9.9l2.7,9.4c-1.8,4.5-5,8-9.5,10.6
		C468.4,173.4,462.7,174.7,455.8,174.7z M480.5,173.8v-15.9l-0.7-3v-27.1c0-5.8-1.7-10.2-5-13.4c-3.4-3.2-8.4-4.8-15.1-4.8
		c-4.5,0-8.8,0.7-13.1,2.2c-4.3,1.5-7.9,3.4-10.8,5.9l-5.7-10.2c3.9-3.1,8.5-5.5,14-7.2c5.4-1.7,11.1-2.5,17.1-2.5
		c10.3,0,18.3,2.5,23.9,7.5s8.4,12.7,8.4,23v45.5H480.5z"/>
	<path class="st3" d="M505.9,109.8V98.6h48v11.2H505.9z M542.6,174.7c-7.6,0-13.4-2-17.6-6.1c-4.2-4.1-6.2-9.9-6.2-17.5v-69h13.5
		v68.4c0,4.1,1,7.2,3.1,9.4c2,2.2,4.9,3.3,8.7,3.3c4.3,0,7.8-1.2,10.6-3.5l4.3,9.8c-2.1,1.8-4.6,3.1-7.5,4
		C548.7,174.3,545.7,174.7,542.6,174.7z"/>
	<path class="st3" d="M573.5,173.8V98.6h13.1V119l-1.3-5.1c2.1-5.2,5.6-9.2,10.5-11.9c4.9-2.7,11-4.1,18.2-4.1v13.2
		c-0.6-0.1-1.1-0.1-1.6-0.1s-1,0-1.5,0c-7.3,0-13.1,2.2-17.3,6.5c-4.3,4.4-6.4,10.6-6.4,18.9v37.4H573.5z"/>
	<path class="st3" d="M660.3,174.7c-7.6,0-14.3-1.7-20.2-5s-10.5-7.9-13.9-13.7s-5.1-12.4-5.1-19.8c0-7.5,1.7-14.1,5.1-19.9
		c3.4-5.8,8-10.3,13.9-13.6c5.9-3.3,12.6-4.9,20.2-4.9c7.5,0,14.2,1.6,20.1,4.9c5.9,3.3,10.6,7.8,13.9,13.5c3.4,5.7,5,12.4,5,20
		c0,7.5-1.7,14.1-5,19.9c-3.4,5.8-8,10.3-13.9,13.6C674.4,173,667.8,174.7,660.3,174.7z M660.3,162.8c4.8,0,9.2-1.1,13-3.3
		s6.8-5.3,9-9.3s3.3-8.7,3.3-14c0-5.4-1.1-10.1-3.3-14s-5.2-7-9-9.2s-8.2-3.3-13-3.3s-9.1,1.1-12.9,3.3c-3.8,2.2-6.8,5.2-9.1,9.2
		c-2.3,3.9-3.4,8.6-3.4,14c0,5.3,1.1,10,3.4,14c2.3,4,5.3,7.1,9.1,9.3C651.1,161.7,655.4,162.8,660.3,162.8z"/>
	<path class="st3" d="M795.6,175c-13.1,0-23.3-3.7-30.8-11.2s-11.2-18.4-11.2-32.8V74.4h14.2v55.9c0,11.1,2.4,19.2,7.3,24.3
		c4.9,5.1,11.8,7.7,20.7,7.7c9,0,15.9-2.6,20.8-7.7c4.9-5.1,7.3-13.2,7.3-24.3V74.4h13.8v56.5c0,14.4-3.7,25.3-11.1,32.8
		C819.1,171.2,808.8,175,795.6,175z"/>
	<path class="st3" d="M864.8,173.8V74.4H879v99.4H864.8z"/>
</g>
</svg>
