<?xml version="1.0" encoding="utf-8"?>
<!-- Generator: Adobe Illustrator 26.4.1, SVG Export Plug-In . SVG Version: 6.00 Build 0)  -->
<svg version="1.1" id="Layer_1" xmlns="http://www.w3.org/2000/svg" xmlns:xlink="http://www.w3.org/1999/xlink" x="0px" y="0px"
	 viewBox="0 0 254.6 253.4" style="enable-background:new 0 0 254.6 253.4;" xml:space="preserve">
<style type="text/css">
	.st0{fill:url(#SVGID_1_);}
	.st1{fill:url(#SVGID_00000128467027848578078510000008189509917898639261_);}
</style>
<radialGradient id="SVGID_1_" cx="127.2894" cy="-117.3244" r="152.8963" gradientTransform="matrix(1 0 0 1 0 244)" gradientUnits="userSpaceOnUse">
	<stop  offset="0" style="stop-color:#FFFFFF"/>
	<stop  offset="0.3921" style="stop-color:#FEFDFF"/>
	<stop  offset="0.5333" style="stop-color:#F9F6FD"/>
	<stop  offset="0.634" style="stop-color:#F0EBFA"/>
	<stop  offset="0.7155" style="stop-color:#E3DAF6"/>
	<stop  offset="0.7852" style="stop-color:#D3C4F1"/>
	<stop  offset="0.847" style="stop-color:#BEA8EA"/>
	<stop  offset="0.9028" style="stop-color:#A688E3"/>
	<stop  offset="0.9525" style="stop-color:#8B64DA"/>
	<stop  offset="0.9983" style="stop-color:#6C3BD0"/>
	<stop  offset="1" style="stop-color:#6B39D0"/>
</radialGradient>
<circle class="st0" cx="127.3" cy="126.7" r="121.5"/>
<g>
	
		<linearGradient id="SVGID_00000147940597109299509680000016690031607308758152_" gradientUnits="userSpaceOnUse" x1="67.5501" y1="432.4824" x2="186.3946" y2="313.6379" gradientTransform="matrix(1 0 0 -1 0 503.3513)">
		<stop  offset="0" style="stop-color:#FFDFFF"/>
		<stop  offset="0.233" style="stop-color:#D7B2F2"/>
		<stop  offset="0.5974" style="stop-color:#9D71E0"/>
		<stop  offset="0.8631" style="stop-color:#7948D4"/>
		<stop  offset="1" style="stop-color:#6B39D0"/>
	</linearGradient>
	<path style="fill:url(#SVGID_00000147940597109299509680000016690031607308758152_);" d="M231.6,118.6c-9.1-12.6-35-42.8-76.9-52.5
		c-7.6-1.7-15.4-2.7-23.4-3c-10.4-0.2-20.9,0.8-31.1,3c-31.7,7.1-59.4,26-77.6,53.2c-4.6,6.7-4.6,15.9,0.1,22.5
		c12.4,17.9,29.2,32.5,48.7,42.2c17.6,8.8,36.9,13.4,56.3,13.4c2.2,0,4.3-0.1,6.5-0.2c53.5-2.8,85.9-39.3,97.3-54.8
		C236.7,135.4,236.7,125.8,231.6,118.6z M86.3,109.3c0.9-4.3,2.5-8.5,4.9-12.1c3-4.9,8.9-11.4,19.6-15.1c1.7-0.7,3.6-1.1,5.4-1.4
		c3.2-0.7,6.4-0.9,9.7-0.7c0.3,0,0.5,0,0.9,0.1c2.7,0.5,4.7,2.9,4.6,5.8c-0.1,3.2-2.8,5.4-5.9,5.3c-3.8-0.2-7.4,0.3-10.9,1.5
		c-7.5,2.6-11.6,7.2-13.7,10.5c-1.6,2.5-2.7,5.3-3.4,8.4c-0.5,2.6-2.9,4.5-5.5,4.5c-0.3,0-0.8,0-1.1-0.1
		C87.6,115.3,85.7,112.3,86.3,109.3z M217.9,132.4c-10,13.6-38.3,45.4-84.6,47.9c-1.8,0.1-3.7,0.1-5.5,0.1
		c-35.8,0-70.2-18.2-91.1-48.3c-0.8-1.1-0.8-2.5,0-3.5c11-16.3,25.8-29.2,42.9-37.6c-4.3,7.9-6.7,17-6.7,26.2
		c0,30,24.5,54.6,54.6,54.6s54.6-24.5,54.6-54.6c0-9-2.3-17.8-6.4-25.6c7.4,3.8,13.9,8.3,19.5,12.8c11.2,9,18.9,18.5,22.9,24
		C218.7,129.7,218.7,131.2,217.9,132.4z"/>
</g>
</svg>
