<?xml version="1.0" encoding="utf-8"?>
<!-- Generator: Adobe Illustrator 26.4.1, SVG Export Plug-In . SVG Version: 6.00 Build 0)  -->
<svg version="1.1" id="Layer_1" xmlns="http://www.w3.org/2000/svg" xmlns:xlink="http://www.w3.org/1999/xlink" x="0px" y="0px"
	 viewBox="0 0 250 250" enable-background="new 0 0 250 250" xml:space="preserve">
<radialGradient id="SVGID_1_" cx="125" cy="125" r="118.129" fx="155.1301" fy="10.7781" gradientUnits="userSpaceOnUse">
	<stop  offset="0" style="stop-color:#FFFFFF"/>
	<stop  offset="1" style="stop-color:#FFFFFF"/>
</radialGradient>
<circle fill="url(#SVGID_1_)" cx="125" cy="125" r="118.1"/>
<g>
	
		<linearGradient id="SVGID_00000100378723966259130710000002444867623011302565_" gradientUnits="userSpaceOnUse" x1="69.9274" y1="72.4554" x2="179.213" y2="181.741">
		<stop  offset="0" style="stop-color:#662D91"/>
		<stop  offset="0.3993" style="stop-color:#4C3390"/>
		<stop  offset="0.7683" style="stop-color:#343790"/>
		<stop  offset="1" style="stop-color:#2B3990"/>
	</linearGradient>
	<path fill="url(#SVGID_00000100378723966259130710000002444867623011302565_)" d="M220.8,116.3c-8.4-11.6-32.2-39.4-70.7-48.3
		c-7-1.6-14.2-2.5-21.5-2.8C119,65,109.4,65.9,100,68c-29.2,6.5-54.6,23.9-71.4,48.9c-4.2,6.2-4.2,14.6,0.1,20.7
		c11.4,16.5,26.9,29.9,44.8,38.8c16.2,8.1,33.9,12.3,51.8,12.3c2,0,4-0.1,6-0.2c49.2-2.6,79-36.1,89.5-50.4
		C225.5,131.7,225.5,122.9,220.8,116.3z M87.2,107.7c0.8-4,2.3-7.8,4.5-11.1c2.8-4.5,8.2-10.5,18-13.9c1.6-0.6,3.3-1,5-1.3
		c2.9-0.6,5.9-0.8,8.9-0.6c0.3,0,0.5,0,0.8,0.1c2.5,0.5,4.3,2.7,4.2,5.3c-0.1,2.9-2.6,5-5.4,4.9c-3.5-0.2-6.8,0.3-10,1.4
		c-6.9,2.4-10.7,6.6-12.6,9.7c-1.5,2.3-2.5,4.9-3.1,7.7c-0.5,2.4-2.7,4.1-5.1,4.1c-0.3,0-0.7,0-1-0.1
		C88.4,113.2,86.6,110.5,87.2,107.7z M208.2,129c-9.2,12.5-35.2,41.8-77.8,44.1c-1.7,0.1-3.4,0.1-5.1,0.1
		c-32.9,0-64.6-16.7-83.8-44.4c-0.7-1-0.7-2.3,0-3.2C51.6,110.6,65.2,98.7,81,91c-4,7.3-6.2,15.6-6.2,24.1
		c0,27.6,22.5,50.2,50.2,50.2c27.7,0,50.2-22.5,50.2-50.2c0-8.3-2.1-16.4-5.9-23.5c6.8,3.5,12.8,7.6,17.9,11.8
		c10.3,8.3,17.4,17,21.1,22.1C209,126.5,209,127.9,208.2,129z"/>
</g>
<g>
</g>
</svg>
