<?xml version="1.0" encoding="utf-8"?>
<!-- Generator: Adobe Illustrator 26.4.1, SVG Export Plug-In . SVG Version: 6.00 Build 0)  -->
<svg version="1.1" id="Layer_1" xmlns="http://www.w3.org/2000/svg" xmlns:xlink="http://www.w3.org/1999/xlink" x="0px" y="0px"
	 viewBox="0 0 910 250" style="enable-background:new 0 0 910 250;" xml:space="preserve">
<style type="text/css">
	.st0{fill:url(#SVGID_1_);}
	.st1{fill:url(#SVGID_00000159471863455632993810000017076214830925309846_);}
	.st2{enable-background:new    ;}
</style>
<radialGradient id="SVGID_1_" cx="125.5" cy="-9456.2998" r="152.8485" gradientTransform="matrix(1 0 0 -1 0 -9332)" gradientUnits="userSpaceOnUse">
	<stop  offset="0" style="stop-color:#FFFFFF"/>
	<stop  offset="0.3921" style="stop-color:#FEFDFF"/>
	<stop  offset="0.5333" style="stop-color:#F8F6FD"/>
	<stop  offset="0.634" style="stop-color:#EEEBFA"/>
	<stop  offset="0.7155" style="stop-color:#DFDAF6"/>
	<stop  offset="0.7852" style="stop-color:#CCC4F1"/>
	<stop  offset="0.847" style="stop-color:#B4A8EA"/>
	<stop  offset="0.9028" style="stop-color:#9988E3"/>
	<stop  offset="0.9525" style="stop-color:#7A64DA"/>
	<stop  offset="0.9983" style="stop-color:#563BD0"/>
	<stop  offset="1" style="stop-color:#563AD0"/>
</radialGradient>
<circle class="st0" cx="125.5" cy="124.3" r="121.5"/>
<g>
	<g>
		
			<linearGradient id="SVGID_00000177479105446228829310000017705909928369796272_" gradientUnits="userSpaceOnUse" x1="67.5545" y1="19481.0859" x2="178.9765" y2="19592.5078" gradientTransform="matrix(1 0 0 1 0 -19409.3457)">
			<stop  offset="0" style="stop-color:#F7DFFF"/>
			<stop  offset="0.233" style="stop-color:#CEB2F2"/>
			<stop  offset="0.5974" style="stop-color:#8D71E0"/>
			<stop  offset="0.8631" style="stop-color:#5737D4"/>
			<stop  offset="1" style="stop-color:#563AD0"/>
		</linearGradient>
		<path style="fill:url(#SVGID_00000177479105446228829310000017705909928369796272_);" d="M222.4,117.7
			c-3.8-5.3-12.2-15.9-24.8-26.1c-14.7-11.9-30.9-20-48.1-24c-7.1-1.6-14.6-2.6-22.1-2.9c-0.8,0-1.6,0-2.4,0c-9.1,0-18.2,1-27.1,2.9
			c-30.2,6.8-56.3,24.8-73.5,50.7c-3.8,5.6-3.8,13.2,0,18.6c11.8,17.2,27.8,31.1,46.2,40.3c16.6,8.4,35.1,12.8,53.4,12.8
			c2,0,3.9-0.1,5.9-0.2h0.3c50.7-2.7,81.4-37.5,92.2-52.3C226.6,131.7,226.6,123.7,222.4,117.7z M106.5,77.6c2-0.8,4.1-1.2,5.7-1.5
			c2.5-0.5,5-0.8,7.6-0.8c0.8,0,1.6,0,2.4,0.1c0.4,0,0.8,0,1.4,0.2c4.1,0.8,6.9,4.4,6.8,8.6c-0.1,4.5-3.8,8-8.4,8h-0.3
			c-0.5,0-1,0-1.4,0c-2.8,0-5.4,0.4-8.1,1.3c-6.4,2.2-10,6.2-11.8,9.1c-1.3,2.1-2.3,4.5-2.9,7.2c-0.8,3.8-4.3,6.7-8.2,6.7
			c-0.5,0-1.2,0-1.8-0.2c-4.6-1.1-7.5-5.4-6.6-10c1-4.9,2.7-9.2,5.2-12.8C89.1,88.4,95.2,81.5,106.5,77.6z M213.9,131.1L213.9,131.1
			l-0.1,0.1c-9.9,13.6-38,45.5-84.3,48c-1.8,0.1-3.7,0.1-5.5,0.1c-17.5,0-35.2-4.5-51-12.9s-29.6-20.7-39.8-35.5
			c-1.5-2.1-1.5-4.8,0-6.8c10.9-16.2,25.6-29.2,42.7-37.6l8.2-4.1l-4.4,8.1c-4,7.4-6.1,15.8-6.1,24.2c0,27.8,22.5,50.4,50.1,50.4
			s50.1-22.6,50.1-50.4c0-8.1-2-16.3-5.9-23.6l-4.3-8.2l8.2,4.2c6.6,3.4,13.1,7.7,19.4,12.8c10.8,8.7,18.3,17.9,22.8,24l0.2,0.2
			l0.1,0.3C215.3,126.6,215.2,129.1,213.9,131.1z"/>
	</g>
</g>
<g class="st2">
	<path d="M323.6,174.8V75.4h11.6l44.6,75.1h-6.2l44-75.1h11.6l0.1,99.4h-13.6l-0.1-78h3.3l-39.3,66h-6.5l-39.5-65.9h3.5v78
		L323.6,174.8L323.6,174.8z"/>
	<path d="M477.2,175.7c-5.6,0-10.5-0.9-14.7-2.8c-4.2-1.9-7.5-4.5-9.7-7.9c-2.3-3.4-3.4-7.2-3.4-11.4c0-4.1,1-7.8,2.9-11.1
		s5.1-6,9.5-8s10.3-3,17.8-3h23.9v9.8h-23.3c-6.8,0-11.4,1.1-13.8,3.4c-2.4,2.3-3.5,5-3.5,8.2c0,3.7,1.5,6.7,4.4,8.9s7,3.3,12.2,3.3
		c5.1,0,9.6-1.1,13.4-3.4c3.8-2.3,6.6-5.6,8.3-9.9l2.7,9.4c-1.8,4.5-5,8-9.5,10.6C489.8,174.4,484.1,175.7,477.2,175.7z
		 M501.9,174.8v-15.9l-0.7-3v-27.1c0-5.8-1.7-10.2-5-13.4c-3.4-3.2-8.4-4.8-15.1-4.8c-4.5,0-8.8,0.7-13.1,2.2
		c-4.3,1.5-7.9,3.4-10.8,5.9l-5.7-10.2c3.9-3.1,8.5-5.5,14-7.2c5.4-1.7,11.1-2.5,17.1-2.5c10.3,0,18.3,2.5,23.9,7.5s8.4,12.7,8.4,23
		v45.5H501.9L501.9,174.8z"/>
	<path d="M527.3,110.8V99.6h48v11.2C575.3,110.8,527.3,110.8,527.3,110.8z M564,175.7c-7.6,0-13.4-2-17.6-6.1
		c-4.2-4.1-6.2-9.9-6.2-17.5v-69h13.5v68.4c0,4.1,1,7.2,3.1,9.4c2,2.2,4.9,3.3,8.7,3.3c4.3,0,7.8-1.2,10.6-3.5l4.3,9.8
		c-2.1,1.8-4.6,3.1-7.5,4C570.1,175.3,567.1,175.7,564,175.7z"/>
	<path d="M594.9,174.8V99.6H608V120l-1.3-5.1c2.1-5.2,5.6-9.2,10.5-11.9c4.9-2.7,11-4.1,18.2-4.1v13.2c-0.6-0.1-1.1-0.1-1.6-0.1
		s-1,0-1.5,0c-7.3,0-13.1,2.2-17.3,6.5c-4.3,4.4-6.4,10.6-6.4,18.9v37.4L594.9,174.8L594.9,174.8z"/>
	<path d="M681.7,175.7c-7.6,0-14.3-1.7-20.2-5s-10.5-7.9-13.9-13.7s-5.1-12.4-5.1-19.8c0-7.5,1.7-14.1,5.1-19.9
		c3.4-5.8,8-10.3,13.9-13.6c5.9-3.3,12.6-4.9,20.2-4.9c7.5,0,14.2,1.6,20.1,4.9c5.9,3.3,10.6,7.8,13.9,13.5c3.4,5.7,5,12.4,5,20
		c0,7.5-1.7,14.1-5,19.9c-3.4,5.8-8,10.3-13.9,13.6C695.8,174,689.2,175.7,681.7,175.7z M681.7,163.8c4.8,0,9.2-1.1,13-3.3
		s6.8-5.3,9-9.3s3.3-8.7,3.3-14c0-5.4-1.1-10.1-3.3-14s-5.2-7-9-9.2s-8.2-3.3-13-3.3s-9.1,1.1-12.9,3.3c-3.8,2.2-6.8,5.2-9.1,9.2
		c-2.3,3.9-3.4,8.6-3.4,14c0,5.3,1.1,10,3.4,14c2.3,4,5.3,7.1,9.1,9.3C672.5,162.7,676.8,163.8,681.7,163.8z"/>
	<path d="M817,176c-13.1,0-23.3-3.7-30.8-11.2S775,146.4,775,132V75.4h14.2v55.9c0,11.1,2.4,19.2,7.3,24.3
		c4.9,5.1,11.8,7.7,20.7,7.7c9,0,15.9-2.6,20.8-7.7c4.9-5.1,7.3-13.2,7.3-24.3V75.4h13.8v56.5c0,14.4-3.7,25.3-11.1,32.8
		C840.5,172.2,830.2,176,817,176z"/>
	<path d="M886.2,174.8V75.4h14.2v99.4H886.2z"/>
</g>
</svg>
