<?xml version="1.0" encoding="utf-8"?>
<!-- Generator: Adobe Illustrator 26.4.1, SVG Export Plug-In . SVG Version: 6.00 Build 0)  -->
<svg version="1.1" id="Layer_1" xmlns="http://www.w3.org/2000/svg" xmlns:xlink="http://www.w3.org/1999/xlink" x="0px" y="0px"
	 viewBox="0 0 12 12" style="enable-background:new 0 0 12 12;" xml:space="preserve">
<style type="text/css">
	.st0{fill:#A189FF;}
</style>
<g>
	<path class="st0" d="M7,1.1C6,1.1,5.1,2,5.1,3c0,0.9,0.6,1.6,1.4,1.8l0.1,0v3.7c0,0.9-0.8,1.6-1.6,1.6S3.4,9.4,3.4,8.5V8.4h1.3
		L2.6,6.3v2.2c0,1.3,1,2.4,2.4,2.4s2.4-1,2.4-2.4V4.8l0.1,0C8.3,4.6,8.9,3.9,8.9,3C8.9,2,8,1.1,7,1.1z M7,4.1C6.3,4.1,5.9,3.7,5.9,3
		S6.3,1.9,7,1.9S8.1,2.3,8.1,3S7.7,4.1,7,4.1z"/>
</g>
</svg>
