<?xml version="1.0" encoding="utf-8"?>
<!-- Generator: Adobe Illustrator 26.4.1, SVG Export Plug-In . SVG Version: 6.00 Build 0)  -->
<svg version="1.1" id="a" xmlns="http://www.w3.org/2000/svg" xmlns:xlink="http://www.w3.org/1999/xlink" x="0px" y="0px"
	 viewBox="0 0 324.7 208.8" style="enable-background:new 0 0 324.7 208.8;" xml:space="preserve">
<style type="text/css">
	.st0{fill:#F5F5FC;stroke:#D9D9ED;stroke-miterlimit:10;}
	.st1{fill:#F5F5FC;stroke:#5353C1;stroke-width:2;stroke-miterlimit:10;}
	.st2{fill:#ABA6E0;}
	.st3{fill:#A6A3C4;}
	.st4{fill:#E0DFF4;}
	.st5{fill:#D2D1ED;}
	.st6{fill:none;stroke:#D9D9ED;stroke-miterlimit:10;}
	.st7{fill:#FFFFFF;}
</style>
<path class="st0" d="M59.7,59.2h204.8c2.1,0,3.8,1.7,3.8,3.8v119.4c0,2.1-1.7,3.8-3.8,3.8H59.7c-2.1,0-3.8-1.7-3.8-3.8V63
	C55.9,60.9,57.6,59.2,59.7,59.2z"/>
<path class="st1" d="M60,33h204.3c2.2,0,4.1,1.8,4.1,4.1v26.6H55.9V37.1C55.9,34.8,57.7,33,60,33z"/>
<path class="st2" d="M69.1,44.3h120.4c2.2,0,4,1.8,4,4l0,0c0,2.2-1.8,4-4,4H69.1c-2.2,0-4-1.8-4-4l0,0
	C65.1,46.1,66.9,44.3,69.1,44.3z"/>
<path class="st3" d="M249.5,45.4l-4.4,5.4c-0.2,0.2-0.1,0.7,0.2,0.7h9.5c0.2,0,0.4-0.4,0.2-0.7l-4.4-5.4
	C250.3,45.1,249.8,45.1,249.5,45.4z"/>
<path class="st4" d="M70.1,74.1h94.6c2.2,0,4,1.8,4,4l0,0c0,2.2-1.8,4-4,4H70.1c-2.2,0-4-1.8-4-4l0,0C66.1,75.9,67.9,74.1,70.1,74.1
	z"/>
<path class="st4" d="M70.1,90.5h169.7c2.2,0,4,1.8,4,4l0,0c0,2.2-1.8,4-4,4H70.1c-2.2,0-4-1.8-4-4l0,0
	C66.1,92.3,67.9,90.5,70.1,90.5z"/>
<path class="st4" d="M70.1,106.5h151.5c2.2,0,4,1.8,4,4l0,0c0,2.2-1.8,4-4,4H70.1c-2.2,0-4-1.8-4-4l0,0
	C66.1,108.3,67.9,106.5,70.1,106.5z"/>
<path class="st5" d="M69.1,168h120.4c2.2,0,4,1.8,4,4l0,0c0,2.2-1.8,4-4,4H69.1c-2.2,0-4-1.8-4-4l0,0C65.1,169.8,66.9,168,69.1,168z
	"/>
<path class="st3" d="M250.6,174.8l4.4-5.4c0.2-0.2,0.1-0.7-0.2-0.7h-9.5c-0.2,0-0.4,0.4-0.2,0.7l4.4,5.4
	C249.8,175.2,250.3,175.2,250.6,174.8z"/>
<line class="st6" x1="55.9" y1="156.9" x2="268.4" y2="156.9"/>
<path class="st5" d="M69.1,137.5h120.4c2.2,0,4,1.8,4,4l0,0c0,2.2-1.8,4-4,4H69.1c-2.2,0-4-1.8-4-4l0,0
	C65.1,139.3,66.9,137.5,69.1,137.5z"/>
<line class="st6" x1="55.9" y1="126.9" x2="268.4" y2="126.9"/>
<path class="st3" d="M250.6,144.4l4.4-5.4c0.2-0.2,0.1-0.7-0.2-0.7h-9.5c-0.2,0-0.4,0.4-0.2,0.7l4.4,5.4
	C249.8,144.8,250.3,144.8,250.6,144.4z"/>
<g>
	<path class="st7" d="M305,95.4c-0.1,0.2-0.2,0.4-0.4,0.6c-0.3,0.2-0.6,0.4-1.1,0.5c0,0,0,0,0,0l-3,0.6l2.1,3.8
		c0.1,0.2,0.1,0.4,0.1,0.6c-0.1,0.2-0.2,0.4-0.4,0.5c0,0,0,0,0,0l-2.2,1.3c0,0,0,0,0,0c-0.2,0.1-0.4,0.1-0.6,0.1
		c-0.2-0.1-0.4-0.2-0.5-0.4l-2.2-3.7l-2,2.3c-0.3,0.3-0.6,0.6-0.9,0.7c-0.2,0.1-0.5,0.1-0.7,0.1c-0.2-0.1-0.5-0.2-0.6-0.4
		c-0.1-0.2-0.2-0.4-0.2-0.8l-1.1-14.9v0c0-0.1,0-0.2,0-0.3c0-0.1,0.1-0.2,0.2-0.2c0,0,0.1-0.1,0.1-0.1c0.1,0,0.2,0,0.3,0
		c0.1,0,0.2,0,0.2,0.1c0,0,0,0,0.1,0l12.3,8.4c0.3,0.2,0.5,0.4,0.6,0.6C305.1,94.9,305.1,95.2,305,95.4L305,95.4z"/>
	<path d="M300.1,103.2c-0.2,0.1-0.4,0.1-0.6,0.1c-0.2-0.1-0.4-0.2-0.5-0.4l-2.2-3.7l-2,2.3c-0.3,0.3-0.6,0.6-0.9,0.7
		c-0.2,0.1-0.5,0.1-0.7,0.1c-0.2-0.1-0.5-0.2-0.6-0.4c-0.1-0.2-0.2-0.4-0.2-0.8l-1.1-14.9c0,0,0,0,0,0c0-0.1,0-0.2,0-0.3
		c0-0.1,0.1-0.2,0.2-0.2c0,0,0.1-0.1,0.1-0.1c0.1,0,0.2,0,0.3,0c0.1,0,0.2,0,0.2,0.1c0,0,0,0,0.1,0l12.3,8.4
		c0.3,0.2,0.5,0.4,0.6,0.6c0.1,0.2,0.1,0.5,0.1,0.8c-0.1,0.2-0.2,0.4-0.4,0.6c-0.3,0.2-0.6,0.4-1.1,0.5h0l-3,0.6l2.1,3.7
		c0.1,0.2,0.1,0.4,0.1,0.6c-0.1,0.2-0.2,0.4-0.4,0.5l0,0L300.1,103.2C300.1,103.2,300.1,103.2,300.1,103.2L300.1,103.2L300.1,103.2z
		 M299.7,102.5C299.7,102.5,299.7,102.5,299.7,102.5C299.7,102.5,299.7,102.5,299.7,102.5l2.3-1.3c0,0,0,0,0-0.1c0,0,0,0,0-0.1
		l-2.4-4.2l0,0c0,0,0-0.1,0-0.1c0-0.2,0.1-0.4,0.3-0.5l3.5-0.7c0,0,0,0,0,0c0.3-0.1,0.6-0.2,0.7-0.3c0.1-0.1,0.1-0.1,0.2-0.2
		c0,0,0-0.1,0-0.1c0-0.1-0.1-0.2-0.3-0.3l-12-8.2L293,101c0,0.2,0,0.3,0.1,0.4c0,0.1,0.1,0.1,0.1,0.1c0.1,0,0.1,0,0.2,0
		c0.2-0.1,0.4-0.2,0.6-0.5l2.4-2.7l0,0c0,0,0.1-0.1,0.1-0.1c0.2-0.1,0.4-0.1,0.5,0.1L299.7,102.5
		C299.6,102.5,299.6,102.5,299.7,102.5L299.7,102.5L299.7,102.5z M299.8,102.5c0,0,0.1,0,0.2,0L299.8,102.5L299.8,102.5z"/>
</g>
</svg>
