<?xml version="1.0" encoding="utf-8"?>
<!-- Generator: Adobe Illustrator 26.4.1, SVG Export Plug-In . SVG Version: 6.00 Build 0)  -->
<svg version="1.1" id="a" xmlns="http://www.w3.org/2000/svg" xmlns:xlink="http://www.w3.org/1999/xlink" x="0px" y="0px"
	 viewBox="0 0 324.7 208.8" style="enable-background:new 0 0 324.7 208.8;" xml:space="preserve">
<style type="text/css">
	.st0{opacity:0.3;fill:#918AE8;}
	.st1{fill:#FFFFFF;}
	.st2{fill:#A09BCE;}
</style>
<path class="st0" d="M242.6,120.5H84.8c-6.3,0-11.3-5.1-11.3-11.3V87.6c0-6.3,5.1-11.3,11.3-11.3h157.8c6.3,0,11.3,5.1,11.3,11.3
	v21.5C254,115.5,248.9,120.5,242.6,120.5z"/>
<g>
	<g>
		<path class="st1" d="M212.3,128.3c-0.1,0.3-0.3,0.5-0.5,0.7c-0.3,0.3-0.8,0.5-1.3,0.6c0,0,0,0,0,0l-3.7,0.8l2.6,4.6
			c0.1,0.2,0.2,0.5,0.1,0.8c-0.1,0.3-0.2,0.5-0.5,0.6c0,0,0,0,0,0l-2.7,1.6c0,0,0,0-0.1,0c-0.2,0.1-0.5,0.1-0.7,0.1
			c-0.3-0.1-0.5-0.2-0.6-0.5l-2.7-4.6l-2.5,2.9c-0.3,0.4-0.7,0.7-1.1,0.9c-0.3,0.1-0.6,0.2-0.9,0.1c-0.3-0.1-0.6-0.2-0.7-0.6
			c-0.1-0.2-0.2-0.6-0.3-1l-1.4-18.5v0c0-0.1,0-0.2,0.1-0.3c0-0.1,0.1-0.2,0.2-0.3c0,0,0.1-0.1,0.1-0.1c0.1,0,0.2-0.1,0.3,0
			c0.1,0,0.2,0.1,0.3,0.1c0,0,0.1,0,0.1,0.1l15.2,10.5c0.3,0.2,0.6,0.5,0.7,0.7C212.4,127.7,212.4,128,212.3,128.3z"/>
	</g>
	<path d="M206.2,138.1c-0.2,0.1-0.5,0.1-0.7,0.1c-0.3-0.1-0.5-0.2-0.6-0.5l-2.7-4.6l-2.5,2.9c-0.4,0.4-0.8,0.7-1.1,0.9
		c-0.3,0.1-0.6,0.2-0.9,0.1c-0.3-0.1-0.6-0.2-0.8-0.5c-0.2-0.2-0.3-0.6-0.3-1l-1.4-18.5c0,0,0,0,0,0c0-0.1,0-0.2,0.1-0.3
		c0.1-0.1,0.1-0.2,0.2-0.3c0,0,0.1-0.1,0.2-0.1c0.1,0,0.2,0,0.3,0c0.1,0,0.2,0,0.3,0.1c0,0,0.1,0,0.1,0.1l15.2,10.5
		c0.3,0.2,0.6,0.5,0.7,0.7c0.2,0.3,0.2,0.6,0.1,0.9c-0.1,0.3-0.3,0.5-0.5,0.7c-0.3,0.3-0.8,0.5-1.3,0.6c0,0,0,0,0,0l-3.7,0.8
		l2.6,4.6c0.1,0.2,0.2,0.5,0.1,0.8c-0.1,0.3-0.2,0.5-0.5,0.6c0,0,0,0,0,0L206.2,138.1C206.2,138,206.2,138.1,206.2,138.1
		L206.2,138.1z M205.7,137.2C205.7,137.2,205.7,137.2,205.7,137.2c0.1,0,0.1,0,0.1,0l2.7-1.6c0,0,0,0,0.1-0.1c0,0,0,0,0-0.1l-3-5.2
		h0c0,0,0-0.1-0.1-0.1c-0.1-0.3,0.1-0.5,0.4-0.6l4.4-0.9c0,0,0,0,0,0c0.4-0.1,0.7-0.2,0.9-0.4c0.1-0.1,0.2-0.2,0.2-0.2
		c0,0,0-0.1,0-0.2c-0.1-0.1-0.2-0.2-0.4-0.4l-14.8-10.2l1.4,18c0,0.2,0.1,0.4,0.1,0.5c0,0.1,0.1,0.1,0.1,0.1c0.1,0,0.2,0,0.3-0.1
		c0.2-0.1,0.5-0.3,0.8-0.6l3-3.4l0,0c0,0,0.1-0.1,0.1-0.1c0.2-0.1,0.5-0.1,0.7,0.2L205.7,137.2C205.6,137.2,205.6,137.2,205.7,137.2
		L205.7,137.2z M205.8,137.2c0.1,0,0.1,0,0.2,0L205.8,137.2L205.8,137.2z"/>
</g>
<path class="st2" d="M230.2,104h-133c-2.8,0-5-2.2-5-5v-1.2c0-2.8,2.2-5,5-5h133c2.8,0,5,2.2,5,5V99C235.2,101.8,233,104,230.2,104z
	"/>
</svg>
