<?xml version="1.0" encoding="utf-8"?>
<!-- Generator: Adobe Illustrator 26.4.1, SVG Export Plug-In . SVG Version: 6.00 Build 0)  -->
<svg version="1.1" id="a" xmlns="http://www.w3.org/2000/svg" xmlns:xlink="http://www.w3.org/1999/xlink" x="0px" y="0px"
	 viewBox="0 0 324.7 208.8" style="enable-background:new 0 0 324.7 208.8;" xml:space="preserve">
<style type="text/css">
	.st0{fill:#84849B;}
	.st1{fill:#A1A1B2;}
	.st2{fill:#8E85FF;}
</style>
<path class="st0" d="M41.8,94.7v-1.3L52.4,88v2.1L44.2,94l0.1-0.1v0.3l-0.1-0.1l8.1,3.9v2.1L41.8,94.7z"/>
<path class="st0" d="M57.3,102.2V85.3h2v7.5h9v-7.5h2v16.9h-2v-7.5h-9v7.5C59.3,102.2,57.3,102.2,57.3,102.2z"/>
<path class="st0" d="M75.6,87.4c-0.4,0-0.7-0.1-1-0.4c-0.3-0.3-0.4-0.6-0.4-0.9c0-0.4,0.1-0.7,0.4-0.9c0.3-0.3,0.6-0.4,1-0.4
	c0.4,0,0.7,0.1,1,0.4c0.3,0.3,0.4,0.6,0.4,0.9c0,0.4-0.1,0.7-0.4,0.9C76.3,87.3,76,87.4,75.6,87.4z M74.6,102.2V89.5h1.9v12.7H74.6z
	"/>
<path class="st0" d="M85.4,102.5c-1.1,0-2-0.3-2.8-0.8c-0.8-0.5-1.4-1.3-1.9-2.3c-0.5-1-0.7-2.1-0.7-3.5c0-1.3,0.2-2.5,0.7-3.5
	c0.5-1,1.1-1.7,1.9-2.3c0.8-0.5,1.8-0.8,2.8-0.8c0.8,0,1.5,0.1,2,0.4c0.5,0.3,0.8,0.6,1.1,0.9c0.3,0.4,0.5,0.6,0.6,0.8h0.2v-6.2h1.9
	v16.9h-1.9v-1.9h-0.2c-0.1,0.2-0.3,0.5-0.6,0.9s-0.6,0.7-1.1,0.9C86.9,102.3,86.2,102.5,85.4,102.5L85.4,102.5z M85.7,100.7
	c0.8,0,1.4-0.2,2-0.6c0.5-0.4,0.9-1,1.2-1.7s0.4-1.6,0.4-2.5c0-0.9-0.1-1.8-0.4-2.5c-0.3-0.7-0.7-1.3-1.2-1.7
	c-0.5-0.4-1.2-0.6-2-0.6s-1.5,0.2-2.1,0.6c-0.5,0.4-1,1-1.2,1.7C82.1,94.2,82,95,82,95.9s0.1,1.7,0.4,2.4c0.3,0.7,0.7,1.3,1.2,1.7
	C84.2,100.5,84.9,100.7,85.7,100.7z"/>
<path class="st0" d="M100.8,102.5c-1.2,0-2.3-0.3-3.1-0.8c-0.9-0.5-1.6-1.3-2-2.3c-0.5-1-0.7-2.1-0.7-3.4c0-1.3,0.2-2.4,0.7-3.4
	c0.5-1,1.1-1.8,2-2.3c0.9-0.6,1.9-0.8,3-0.8c0.7,0,1.3,0.1,2,0.3c0.6,0.2,1.2,0.6,1.8,1.1c0.5,0.5,0.9,1.1,1.3,1.9
	c0.3,0.8,0.5,1.8,0.5,3v0.8h-9.7v-1.7h7.8c0-0.7-0.1-1.4-0.4-1.9c-0.3-0.6-0.7-1-1.2-1.3c-0.5-0.3-1.1-0.5-1.8-0.5
	c-0.8,0-1.4,0.2-2,0.6c-0.6,0.4-1,0.9-1.3,1.5c-0.3,0.6-0.5,1.3-0.5,2v1.1c0,1,0.2,1.8,0.5,2.4c0.3,0.7,0.8,1.2,1.4,1.5
	c0.6,0.3,1.3,0.5,2.1,0.5c0.5,0,1-0.1,1.4-0.2c0.4-0.1,0.8-0.4,1.1-0.7c0.3-0.3,0.5-0.7,0.7-1.1l1.9,0.5c-0.2,0.6-0.5,1.2-1,1.7
	c-0.5,0.5-1,0.9-1.7,1.1C102.4,102.3,101.7,102.5,100.8,102.5L100.8,102.5z"/>
<path class="st1" d="M72.6,117.4L67.9,130h-2l-4.7-12.7h2.1l3.5,10.1H67l3.5-10.1H72.6L72.6,117.4z"/>
<path class="st1" d="M76.6,115.3c-0.4,0-0.7-0.1-1-0.4c-0.3-0.3-0.4-0.6-0.4-0.9c0-0.4,0.1-0.7,0.4-0.9c0.3-0.3,0.6-0.4,1-0.4
	c0.4,0,0.7,0.1,1,0.4s0.4,0.6,0.4,0.9c0,0.4-0.1,0.7-0.4,0.9S77,115.3,76.6,115.3z M75.6,130v-12.7h1.9V130H75.6z"/>
<path class="st1" d="M86.9,130.3c-1.2,0-2.3-0.3-3.1-0.8c-0.9-0.5-1.6-1.3-2-2.3c-0.5-1-0.7-2.1-0.7-3.4c0-1.3,0.2-2.4,0.7-3.4
	c0.5-1,1.1-1.8,2-2.3c0.9-0.6,1.9-0.8,3-0.8c0.7,0,1.3,0.1,2,0.3c0.6,0.2,1.2,0.6,1.8,1.1c0.5,0.5,0.9,1.1,1.3,1.9
	c0.3,0.8,0.5,1.8,0.5,3v0.8h-9.7v-1.7h7.8c0-0.7-0.1-1.4-0.4-1.9c-0.3-0.6-0.7-1-1.2-1.3c-0.5-0.3-1.1-0.5-1.8-0.5
	c-0.8,0-1.4,0.2-2,0.6s-1,0.9-1.3,1.5s-0.5,1.3-0.5,2v1.1c0,1,0.2,1.8,0.5,2.4c0.3,0.7,0.8,1.2,1.4,1.5c0.6,0.3,1.3,0.5,2.1,0.5
	c0.5,0,1-0.1,1.4-0.2c0.4-0.1,0.8-0.4,1.1-0.7c0.3-0.3,0.5-0.7,0.7-1.1l1.9,0.5c-0.2,0.6-0.5,1.2-1,1.7c-0.5,0.5-1,0.9-1.7,1.1
	C88.6,130.1,87.8,130.3,86.9,130.3L86.9,130.3z"/>
<path class="st1" d="M98.5,130l-3.9-12.7h2l2.7,9.7h0.1l2.7-9.7h2.1l2.7,9.6h0.1l2.7-9.6h2l-3.9,12.7h-1.9l-2.8-9.7h-0.2l-2.8,9.7
	H98.5L98.5,130z"/>
<path class="st1" d="M114.9,134.7v-17.4h1.9v2h0.2c0.1-0.2,0.3-0.5,0.6-0.8c0.3-0.3,0.6-0.7,1.1-0.9c0.5-0.3,1.1-0.4,2-0.4
	c1.1,0,2,0.3,2.8,0.8c0.8,0.5,1.4,1.3,1.9,2.3c0.5,1,0.7,2.1,0.7,3.5c0,1.3-0.2,2.5-0.7,3.5c-0.5,1-1.1,1.7-1.9,2.3
	s-1.7,0.8-2.8,0.8c-0.8,0-1.5-0.1-2-0.4c-0.5-0.3-0.9-0.6-1.1-0.9s-0.5-0.6-0.6-0.9h-0.2v6.7L114.9,134.7L114.9,134.7z M116.9,123.7
	c0,1,0.1,1.8,0.4,2.5s0.7,1.3,1.2,1.7c0.5,0.4,1.2,0.6,2,0.6c0.8,0,1.5-0.2,2-0.6c0.5-0.4,1-1,1.2-1.7c0.3-0.7,0.4-1.6,0.4-2.4
	c0-0.9-0.1-1.7-0.4-2.4c-0.3-0.7-0.7-1.3-1.2-1.7c-0.5-0.4-1.2-0.6-2.1-0.6c-0.8,0-1.5,0.2-2,0.6c-0.5,0.4-0.9,0.9-1.2,1.7
	C117,121.9,116.9,122.7,116.9,123.7z"/>
<path class="st1" d="M134.7,130.3c-1.1,0-2.1-0.3-3-0.8c-0.9-0.5-1.5-1.3-2-2.3c-0.5-1-0.7-2.1-0.7-3.4c0-1.3,0.2-2.5,0.7-3.4
	c0.5-1,1.1-1.7,2-2.3c0.9-0.5,1.9-0.8,3-0.8c1.1,0,2.1,0.3,3,0.8c0.9,0.5,1.5,1.3,2,2.3c0.5,1,0.7,2.1,0.7,3.4
	c0,1.3-0.2,2.4-0.7,3.4c-0.5,1-1.1,1.7-2,2.3C136.8,130,135.8,130.3,134.7,130.3z M134.7,128.5c0.9,0,1.6-0.2,2.1-0.7
	c0.6-0.4,1-1,1.2-1.8c0.3-0.7,0.4-1.5,0.4-2.4c0-0.8-0.1-1.6-0.4-2.4c-0.3-0.7-0.7-1.3-1.2-1.8c-0.6-0.5-1.3-0.7-2.1-0.7
	c-0.9,0-1.6,0.2-2.1,0.7c-0.6,0.5-1,1-1.2,1.8c-0.3,0.7-0.4,1.5-0.4,2.4c0,0.8,0.1,1.6,0.4,2.4c0.3,0.7,0.7,1.3,1.2,1.8
	C133.1,128.3,133.8,128.5,134.7,128.5z"/>
<path class="st1" d="M143.9,130v-12.7h1.9v1.9h0.1c0.2-0.6,0.6-1.1,1.2-1.5s1.3-0.6,2-0.6c0.1,0,0.3,0,0.5,0s0.4,0,0.5,0v2
	c-0.1,0-0.2,0-0.5-0.1c-0.2,0-0.5-0.1-0.7-0.1c-0.6,0-1.2,0.1-1.6,0.4c-0.5,0.3-0.9,0.6-1.1,1.1c-0.3,0.5-0.4,1-0.4,1.5v8L143.9,130
	L143.9,130z"/>
<path class="st1" d="M158.5,117.4v1.6h-6.6v-1.6H158.5z M153.8,114.3h1.9v12.1c0,0.5,0.1,1,0.2,1.2c0.2,0.3,0.4,0.5,0.6,0.5
	c0.3,0.1,0.5,0.1,0.8,0.1c0.2,0,0.4,0,0.5,0c0.1,0,0.3,0,0.3-0.1l0.4,1.7c-0.1,0.1-0.3,0.1-0.6,0.2c-0.2,0.1-0.5,0.1-0.9,0.1
	c-0.5,0-1.1-0.1-1.6-0.4s-1-0.6-1.3-1.1c-0.3-0.5-0.5-1.1-0.5-1.8L153.8,114.3L153.8,114.3z"/>
<path class="st1" d="M162.7,121.9v-1.8h10.1v1.8H162.7z M162.7,126.8V125h10.1v1.8H162.7z"/>
<path class="st0" d="M179.4,113.1v1.5c0,0.5-0.1,0.9-0.2,1.4c-0.2,0.5-0.4,1-0.7,1.5c-0.3,0.5-0.7,0.9-1.1,1.2l-1.1-0.9
	c0.3-0.5,0.6-1,0.9-1.5c0.3-0.5,0.4-1.1,0.4-1.7v-1.5L179.4,113.1L179.4,113.1z M183.6,113.1v1.5c0,0.5-0.1,0.9-0.2,1.4
	c-0.2,0.5-0.4,1-0.7,1.5s-0.7,0.9-1.1,1.2l-1.1-0.9c0.3-0.5,0.6-1,0.9-1.5c0.3-0.5,0.4-1.1,0.4-1.7v-1.5L183.6,113.1L183.6,113.1z"
	/>
<path class="st2" d="M187.5,122.5v-1.3l10.6-5.4v2.1l-8.1,3.9l0.1-0.1v0.3l-0.1-0.1l8.1,3.9v2.1L187.5,122.5z"/>
<path class="st2" d="M203.3,130l7.5-14.9V115h-8.7v-1.8h10.8v1.9l-7.5,14.9L203.3,130L203.3,130z"/>
<path class="st2" d="M221.7,130.2c-0.7,0-1.4-0.1-2.1-0.4c-0.7-0.3-1.3-0.7-1.9-1.3c-0.6-0.6-1-1.4-1.4-2.4c-0.3-1-0.5-2.3-0.5-3.9
	s0.1-2.8,0.4-4c0.3-1.2,0.7-2.1,1.2-2.9c0.5-0.8,1.2-1.4,1.9-1.8c0.8-0.4,1.6-0.6,2.6-0.6c1,0,1.8,0.2,2.5,0.6s1.3,0.9,1.8,1.6
	c0.5,0.7,0.8,1.4,0.9,2.3h-2c-0.2-0.8-0.5-1.4-1.1-1.9c-0.5-0.5-1.2-0.7-2.1-0.7c-1.3,0-2.3,0.6-3.1,1.7c-0.7,1.1-1.1,2.7-1.1,4.8
	h0.1c0.3-0.5,0.7-0.9,1.1-1.2s0.9-0.6,1.4-0.8c0.5-0.2,1.1-0.3,1.6-0.3c1,0,1.8,0.2,2.7,0.7c0.8,0.5,1.4,1.1,1.9,2
	c0.5,0.8,0.7,1.8,0.7,2.9s-0.2,2-0.7,2.9c-0.5,0.9-1.1,1.6-2,2.1S222.8,130.3,221.7,130.2L221.7,130.2z M221.7,128.4
	c0.7,0,1.3-0.2,1.9-0.5c0.6-0.3,1-0.8,1.3-1.4c0.3-0.6,0.5-1.2,0.5-1.9c0-0.7-0.2-1.3-0.5-1.9c-0.3-0.6-0.7-1-1.3-1.4
	c-0.5-0.3-1.2-0.5-1.8-0.5c-0.5,0-1,0.1-1.5,0.3c-0.5,0.2-0.8,0.5-1.2,0.8c-0.3,0.4-0.6,0.8-0.8,1.2c-0.2,0.5-0.3,0.9-0.3,1.4
	c0,0.7,0.2,1.3,0.5,1.9c0.3,0.6,0.7,1,1.3,1.4C220.4,128.2,221,128.4,221.7,128.4z"/>
<path class="st2" d="M236.4,130.2c-1.1,0-2.1-0.2-3-0.6c-0.9-0.4-1.5-1-2-1.7c-0.5-0.7-0.7-1.5-0.7-2.4c0-0.7,0.1-1.4,0.4-2
	c0.3-0.6,0.7-1.1,1.2-1.5c0.5-0.4,1-0.7,1.7-0.8v-0.1c-0.8-0.2-1.5-0.7-1.9-1.4s-0.7-1.5-0.7-2.4c0-0.9,0.2-1.6,0.7-2.3
	c0.4-0.7,1-1.2,1.8-1.6c0.8-0.4,1.7-0.6,2.6-0.6s1.8,0.2,2.6,0.6c0.8,0.4,1.4,0.9,1.8,1.6c0.4,0.7,0.7,1.4,0.7,2.3
	c0,0.9-0.3,1.7-0.7,2.4c-0.5,0.7-1.1,1.2-1.9,1.4v0.1c0.6,0.1,1.2,0.4,1.6,0.8c0.5,0.4,0.9,0.9,1.2,1.5s0.4,1.3,0.4,2
	c0,0.9-0.3,1.7-0.7,2.4c-0.5,0.7-1.2,1.3-2,1.7C238.6,130,237.6,130.2,236.4,130.2L236.4,130.2z M236.4,128.4c0.8,0,1.4-0.1,2-0.4
	c0.6-0.3,1-0.6,1.3-1c0.3-0.5,0.5-1,0.5-1.6c0-0.6-0.2-1.2-0.5-1.7c-0.3-0.5-0.8-0.9-1.3-1.1c-0.6-0.3-1.2-0.4-1.9-0.4
	c-0.7,0-1.4,0.1-1.9,0.4s-1,0.7-1.3,1.1c-0.3,0.5-0.5,1-0.5,1.7c0,0.6,0.1,1.1,0.4,1.6c0.3,0.5,0.7,0.8,1.3,1
	C235,128.3,235.7,128.4,236.4,128.4L236.4,128.4z M236.4,120.4c0.6,0,1.1-0.1,1.6-0.4c0.5-0.2,0.8-0.6,1.1-1
	c0.3-0.4,0.4-0.9,0.4-1.5c0-0.6-0.1-1.1-0.4-1.5c-0.3-0.4-0.6-0.8-1.1-1s-1-0.4-1.6-0.4c-0.6,0-1.2,0.1-1.7,0.4s-0.8,0.6-1.1,1
	c-0.3,0.4-0.4,0.9-0.4,1.5c0,0.6,0.1,1.1,0.4,1.5c0.3,0.4,0.6,0.8,1.1,1C235.3,120.3,235.8,120.4,236.4,120.4L236.4,120.4z"/>
<path class="st0" d="M247.6,113.1v1.5c0,0.5-0.1,0.9-0.2,1.4c-0.2,0.5-0.4,1-0.7,1.5c-0.3,0.5-0.7,0.9-1.1,1.2l-1.1-0.9
	c0.3-0.5,0.6-1,0.9-1.5c0.3-0.5,0.4-1.1,0.4-1.7v-1.5L247.6,113.1L247.6,113.1z M251.8,113.1v1.5c0,0.5-0.1,0.9-0.2,1.4
	c-0.2,0.5-0.4,1-0.7,1.5s-0.7,0.9-1.1,1.2l-1.1-0.9c0.3-0.5,0.6-1,0.9-1.5c0.3-0.5,0.4-1.1,0.4-1.7v-1.5L251.8,113.1L251.8,113.1z"
	/>
<path class="st0" d="M257.8,112.4l-5.4,20.2h-1.8l5.4-20.2H257.8z"/>
<path class="st0" d="M271.8,124.1l-10.6,5.4v-2.1l8.1-3.9l-0.1,0.1v-0.3l0.1,0.1l-8.1-3.9v-2.1l10.6,5.4V124.1z"/>
</svg>
