<?xml version="1.0" encoding="utf-8"?>
<!-- Generator: Adobe Illustrator 26.4.1, SVG Export Plug-In . SVG Version: 6.00 Build 0)  -->
<svg version="1.1" id="a" xmlns="http://www.w3.org/2000/svg" xmlns:xlink="http://www.w3.org/1999/xlink" x="0px" y="0px"
	 viewBox="0 0 324.7 208.8" style="enable-background:new 0 0 324.7 208.8;" xml:space="preserve">
<style type="text/css">
	.st0{fill:#D6D2EE;enable-background:new    ;}
	.st1{fill:#FFFFFF;stroke:#5353C1;stroke-width:2;stroke-miterlimit:10;}
	.st2{fill:#8A8A9E;}
	.st3{fill:none;stroke:#474751;stroke-linecap:round;stroke-linejoin:round;}
	.st4{fill:#6D6D7C;}
</style>
<path class="st0" d="M57.4,76.8h87.4c1.4,0,2.5,1.1,2.5,2.5v10.9c0,1.4-1.1,2.5-2.5,2.5H57.4c-1.4,0-2.5-1.1-2.5-2.5V79.3
	C54.9,78,56,76.8,57.4,76.8z"/>
<path class="st1" d="M62,102.2h198.3c3.9,0,7.1,3.2,7.1,7.1v23.3c0,3.9-3.2,7.1-7.1,7.1H62c-3.9,0-7.1-3.2-7.1-7.1v-23.3
	C54.9,105.3,58.1,102.2,62,102.2z"/>
<g>
	<path class="st2" d="M72.2,116.6v-1.2h8.7v1.2h-3.7V127h-1.4v-10.4H72.2L72.2,116.6z"/>
	<path class="st2" d="M84.1,130.3c-0.2,0-0.4,0-0.6-0.1c-0.2,0-0.3-0.1-0.4-0.1l0.3-1.2c0.3,0.1,0.6,0.1,0.9,0.1s0.5-0.1,0.7-0.3
		c0.2-0.2,0.4-0.5,0.5-1l0.2-0.7l-3.2-8.8H84l2.4,6.9h0.1l2.4-6.9h1.5l-3.7,10c-0.2,0.4-0.4,0.8-0.6,1.1s-0.5,0.5-0.9,0.7
		C84.8,130.2,84.5,130.3,84.1,130.3L84.1,130.3z"/>
	<path class="st2" d="M92.5,130.3v-12h1.3v1.4h0.2c0.1-0.2,0.2-0.3,0.4-0.6c0.2-0.2,0.4-0.4,0.8-0.6s0.8-0.3,1.3-0.3
		c0.7,0,1.4,0.2,1.9,0.6s1,0.9,1.3,1.6s0.5,1.5,0.5,2.4s-0.2,1.7-0.5,2.4s-0.8,1.2-1.3,1.6s-1.2,0.6-1.9,0.6c-0.6,0-1-0.1-1.3-0.3
		s-0.6-0.4-0.8-0.6s-0.3-0.4-0.4-0.6h-0.1v4.6H92.5L92.5,130.3z M93.8,122.6c0,0.7,0.1,1.2,0.3,1.7s0.5,0.9,0.8,1.2s0.8,0.4,1.4,0.4
		s1-0.2,1.4-0.4s0.7-0.7,0.8-1.2s0.3-1.1,0.3-1.7s-0.1-1.2-0.3-1.7c-0.2-0.5-0.5-0.9-0.8-1.2s-0.8-0.4-1.4-0.4s-1,0.1-1.4,0.4
		s-0.7,0.7-0.8,1.2S93.8,122,93.8,122.6L93.8,122.6z"/>
	<path class="st2" d="M103.2,116.8c-0.3,0-0.5-0.1-0.7-0.3c-0.2-0.2-0.3-0.4-0.3-0.6s0.1-0.5,0.3-0.6s0.4-0.3,0.7-0.3
		s0.5,0.1,0.7,0.3s0.3,0.4,0.3,0.6s-0.1,0.5-0.3,0.6S103.5,116.8,103.2,116.8z M102.6,127v-8.7h1.3v8.7
		C103.9,127,102.6,127,102.6,127z"/>
	<path class="st2" d="M108,121.7v5.2h-1.3v-8.7h1.3v1.4h0.1c0.2-0.4,0.5-0.8,0.9-1.1c0.4-0.3,0.9-0.4,1.6-0.4c0.6,0,1.1,0.1,1.6,0.4
		s0.8,0.6,1,1.1s0.4,1.1,0.4,1.8v5.6h-1.3v-5.4c0-0.7-0.2-1.2-0.5-1.6c-0.4-0.4-0.8-0.6-1.5-0.6c-0.4,0-0.8,0.1-1.1,0.3
		s-0.6,0.5-0.8,0.8S108,121.2,108,121.7L108,121.7z"/>
	<path class="st2" d="M119.9,130.4c-0.7,0-1.2-0.1-1.7-0.2c-0.5-0.2-0.8-0.4-1.2-0.6c-0.3-0.3-0.6-0.6-0.7-0.9l1.1-0.8
		c0.1,0.2,0.3,0.3,0.5,0.6s0.4,0.4,0.8,0.5s0.8,0.2,1.3,0.2c0.7,0,1.3-0.2,1.7-0.5c0.5-0.3,0.7-0.9,0.7-1.6v-1.8h-0.1
		c-0.1,0.2-0.2,0.3-0.4,0.6s-0.4,0.4-0.8,0.6c-0.3,0.2-0.8,0.3-1.4,0.3c-0.7,0-1.3-0.2-1.9-0.5c-0.6-0.3-1-0.8-1.3-1.4
		c-0.3-0.6-0.5-1.4-0.5-2.3s0.2-1.7,0.5-2.3s0.8-1.2,1.3-1.6s1.2-0.6,1.9-0.6c0.6,0,1,0.1,1.4,0.3s0.6,0.4,0.8,0.6s0.3,0.4,0.4,0.6
		h0.1v-1.4h1.3v9c0,0.8-0.2,1.4-0.5,1.8c-0.3,0.5-0.8,0.8-1.4,1C121.3,130.3,120.6,130.4,119.9,130.4L119.9,130.4z M119.9,125.6
		c0.5,0,1-0.1,1.4-0.4s0.7-0.6,0.8-1.1c0.2-0.5,0.3-1,0.3-1.7s-0.1-1.2-0.3-1.7s-0.5-0.9-0.8-1.1s-0.8-0.4-1.4-0.4s-1,0.1-1.4,0.4
		s-0.7,0.7-0.8,1.2s-0.3,1-0.3,1.6s0.1,1.1,0.3,1.6c0.2,0.5,0.5,0.8,0.8,1.1C118.8,125.5,119.3,125.6,119.9,125.6L119.9,125.6z"/>
	<path class="st2" d="M127.4,127.1c-0.3,0-0.5-0.1-0.7-0.3c-0.2-0.2-0.3-0.4-0.3-0.7s0.1-0.5,0.3-0.7c0.2-0.2,0.4-0.3,0.7-0.3
		s0.5,0.1,0.7,0.3c0.2,0.2,0.3,0.4,0.3,0.7c0,0.2-0.1,0.4-0.1,0.5s-0.2,0.3-0.4,0.4S127.6,127.1,127.4,127.1z"/>
	<path class="st2" d="M132.2,127.1c-0.3,0-0.5-0.1-0.7-0.3c-0.2-0.2-0.3-0.4-0.3-0.7s0.1-0.5,0.3-0.7c0.2-0.2,0.4-0.3,0.7-0.3
		s0.5,0.1,0.7,0.3c0.2,0.2,0.3,0.4,0.3,0.7c0,0.2-0.1,0.4-0.1,0.5c-0.1,0.2-0.2,0.3-0.4,0.4C132.6,127,132.4,127.1,132.2,127.1
		L132.2,127.1z"/>
	<path class="st2" d="M136.9,127.1c-0.3,0-0.5-0.1-0.7-0.3c-0.2-0.2-0.3-0.4-0.3-0.7s0.1-0.5,0.3-0.7c0.2-0.2,0.4-0.3,0.7-0.3
		s0.5,0.1,0.7,0.3c0.2,0.2,0.3,0.4,0.3,0.7c0,0.2-0.1,0.4-0.1,0.5s-0.2,0.3-0.4,0.4S137.1,127.1,136.9,127.1L136.9,127.1z"/>
</g>
<line class="st3" x1="147.4" y1="131.3" x2="147.4" y2="111.3"/>
<path class="st4" d="M202.3,132.9c0,0.1-0.1,0.2-0.2,0.2h-1.1c-0.7,0-1.3-0.4-1.6-1c-0.3,0.6-0.9,1-1.6,1h-1.1
	c-0.1,0-0.2-0.1-0.2-0.2c0-0.1,0.1-0.2,0.2-0.2h1.1c0.8,0,1.4-0.6,1.4-1.4v-4.1h-2c-0.1,0-0.2-0.1-0.2-0.2s0.1-0.2,0.2-0.2h2V122
	c0-0.8-0.6-1.4-1.4-1.4h-1.1c-0.1,0-0.2-0.1-0.2-0.2s0.1-0.2,0.2-0.2h1.1c0.7,0,1.3,0.4,1.6,1c0.3-0.6,0.9-1,1.6-1h1.1
	c0.1,0,0.2,0.1,0.2,0.2s-0.1,0.2-0.2,0.2h-1.1c-0.8,0-1.4,0.6-1.4,1.4v4.8h2c0.1,0,0.2,0.1,0.2,0.2s-0.1,0.2-0.2,0.2h-2v4.1
	c0,0.8,0.6,1.4,1.4,1.4h1.1C202.2,132.7,202.3,132.8,202.3,132.9L202.3,132.9z"/>
</svg>
