<?xml version="1.0" encoding="utf-8"?>
<!-- Generator: Adobe Illustrator 26.4.1, SVG Export Plug-In . SVG Version: 6.00 Build 0)  -->
<svg version="1.1" id="a" xmlns="http://www.w3.org/2000/svg" xmlns:xlink="http://www.w3.org/1999/xlink" x="0px" y="0px"
	 viewBox="0 0 324.7 208.8" style="enable-background:new 0 0 324.7 208.8;" xml:space="preserve">
<style type="text/css">
	.st0{fill:#84849B;}
	.st1{fill:#A1A1B2;}
	.st2{fill:#8E85FF;}
</style>
<path class="st0" d="M65.8,82.6v-1.3l10.3-5.3v2L68.2,82l0.1-0.1v0.3L68.2,82l7.9,3.8v2L65.8,82.6z"/>
<path class="st0" d="M80.8,89.9V73.5h2v7.3h8.7v-7.3h2v16.4h-2v-7.3h-8.7v7.3C82.8,89.9,80.8,89.9,80.8,89.9z"/>
<path class="st0" d="M98.7,75.6c-0.4,0-0.7-0.1-1-0.4s-0.4-0.5-0.4-0.9s0.1-0.7,0.4-0.9c0.3-0.2,0.6-0.4,1-0.4c0.4,0,0.7,0.1,1,0.4
	c0.3,0.2,0.4,0.5,0.4,0.9s-0.1,0.7-0.4,0.9S99.1,75.6,98.7,75.6z M97.7,89.9V77.6h1.9v12.3H97.7z"/>
<path class="st0" d="M108.2,90.2c-1,0-1.9-0.3-2.7-0.8c-0.8-0.5-1.4-1.3-1.8-2.2s-0.7-2.1-0.7-3.4s0.2-2.4,0.7-3.4
	c0.4-1,1.1-1.7,1.9-2.2c0.8-0.5,1.7-0.8,2.7-0.8c0.8,0,1.4,0.1,1.9,0.4c0.5,0.3,0.8,0.6,1.1,0.9c0.2,0.3,0.4,0.6,0.6,0.8h0.2v-6h1.9
	v16.4H112v-1.9h-0.2c-0.1,0.2-0.3,0.5-0.6,0.8c-0.3,0.3-0.6,0.6-1.1,0.9C109.6,90.1,109,90.2,108.2,90.2L108.2,90.2z M108.5,88.5
	c0.8,0,1.4-0.2,1.9-0.6s0.9-1,1.2-1.7c0.3-0.7,0.4-1.5,0.4-2.5s-0.1-1.7-0.4-2.4c-0.3-0.7-0.7-1.2-1.2-1.6c-0.5-0.4-1.2-0.6-1.9-0.6
	c-0.8,0-1.5,0.2-2,0.6c-0.5,0.4-0.9,1-1.2,1.7c-0.3,0.7-0.4,1.5-0.4,2.3s0.1,1.7,0.4,2.4c0.3,0.7,0.7,1.3,1.2,1.7
	C107,88.3,107.7,88.5,108.5,88.5z"/>
<path class="st0" d="M123.2,90.2c-1.2,0-2.2-0.3-3.1-0.8c-0.9-0.5-1.5-1.3-2-2.2c-0.5-1-0.7-2-0.7-3.3c0-1.3,0.2-2.4,0.7-3.3
	c0.5-1,1.1-1.7,1.9-2.3c0.8-0.5,1.8-0.8,2.9-0.8c0.6,0,1.3,0.1,1.9,0.3c0.6,0.2,1.2,0.6,1.7,1s0.9,1.1,1.2,1.9
	c0.3,0.8,0.5,1.8,0.5,2.9v0.8h-9.5v-1.6h7.6c0-0.7-0.1-1.3-0.4-1.9c-0.3-0.5-0.7-1-1.2-1.3c-0.5-0.3-1.1-0.5-1.8-0.5
	c-0.8,0-1.4,0.2-2,0.6c-0.5,0.4-1,0.9-1.3,1.4c-0.3,0.6-0.4,1.2-0.4,1.9v1.1c0,0.9,0.2,1.7,0.5,2.4c0.3,0.6,0.8,1.1,1.4,1.5
	c0.6,0.3,1.2,0.5,2,0.5c0.5,0,1-0.1,1.4-0.2c0.4-0.1,0.8-0.4,1-0.6c0.3-0.3,0.5-0.6,0.7-1.1l1.8,0.5c-0.2,0.6-0.5,1.2-1,1.6
	c-0.5,0.5-1,0.8-1.7,1.1S124,90.2,123.2,90.2L123.2,90.2z"/>
<path class="st1" d="M85.7,117v-12.3h1.8v1.9h0.2c0.3-0.7,0.7-1.2,1.2-1.5s1.3-0.5,2.1-0.5c0.8,0,1.5,0.2,2,0.5s1,0.9,1.3,1.5h0.1
	c0.3-0.6,0.8-1.1,1.4-1.5c0.6-0.4,1.4-0.6,2.3-0.6c1.1,0,2,0.3,2.7,1s1,1.8,1,3.2v8.2h-1.9v-8.2c0-0.9-0.2-1.6-0.7-1.9
	c-0.5-0.4-1.1-0.6-1.8-0.6c-0.9,0-1.5,0.3-2,0.8c-0.5,0.5-0.7,1.2-0.7,2v8h-1.9v-8.4c0-0.7-0.2-1.3-0.7-1.7c-0.5-0.4-1-0.6-1.8-0.6
	c-0.5,0-1,0.1-1.4,0.4c-0.4,0.3-0.8,0.6-1,1.1c-0.3,0.5-0.4,1-0.4,1.6v7.7L85.7,117L85.7,117z"/>
<path class="st1" d="M106.7,102.7c-0.4,0-0.7-0.1-1-0.4c-0.3-0.2-0.4-0.5-0.4-0.9s0.1-0.7,0.4-0.9s0.6-0.4,1-0.4
	c0.4,0,0.7,0.1,1,0.4c0.3,0.2,0.4,0.5,0.4,0.9s-0.1,0.7-0.4,0.9C107.4,102.5,107.1,102.7,106.7,102.7z M105.8,117v-12.3h1.9V117
	H105.8z"/>
<path class="st1" d="M113.5,109.6v7.4h-1.9v-12.3h1.8v1.9h0.2c0.3-0.6,0.7-1.1,1.3-1.5c0.6-0.4,1.3-0.6,2.3-0.6
	c0.8,0,1.6,0.2,2.2,0.5c0.6,0.3,1.1,0.9,1.5,1.5c0.4,0.7,0.5,1.5,0.5,2.6v7.8h-1.9v-7.7c0-1-0.3-1.7-0.8-2.3
	c-0.5-0.5-1.2-0.8-2.1-0.8c-0.6,0-1.1,0.1-1.6,0.4c-0.5,0.3-0.8,0.6-1.1,1.1C113.6,108.3,113.4,108.9,113.5,109.6L113.5,109.6z"/>
<path class="st1" d="M126,109.1v-1.7h9.9v1.7C135.9,109.1,126,109.1,126,109.1z M126,113.8v-1.7h9.9v1.7
	C135.9,113.8,126,113.8,126,113.8z"/>
<path class="st0" d="M142.3,100.6v1.4c0,0.4-0.1,0.9-0.2,1.4c-0.2,0.5-0.4,1-0.7,1.4c-0.3,0.5-0.7,0.9-1.1,1.2l-1-0.8
	c0.3-0.5,0.6-1,0.9-1.5c0.2-0.5,0.4-1.1,0.4-1.7v-1.5L142.3,100.6L142.3,100.6z M146.3,100.6v1.4c0,0.4-0.1,0.9-0.2,1.4
	c-0.2,0.5-0.4,1-0.7,1.4c-0.3,0.5-0.7,0.9-1.1,1.2l-1-0.8c0.3-0.5,0.6-1,0.9-1.5c0.2-0.5,0.4-1.1,0.4-1.7v-1.5L146.3,100.6
	L146.3,100.6z"/>
<path class="st2" d="M150.1,117l7.3-14.5v-0.1H149v-1.8h10.5v1.9l-7.3,14.5L150.1,117L150.1,117z"/>
<path class="st2" d="M168.1,117.2c-0.7,0-1.3-0.1-2-0.4c-0.7-0.2-1.3-0.7-1.8-1.2c-0.6-0.6-1-1.4-1.3-2.4c-0.3-1-0.5-2.3-0.5-3.8
	s0.1-2.7,0.4-3.9s0.7-2.1,1.2-2.8c0.5-0.8,1.1-1.4,1.9-1.8c0.7-0.4,1.6-0.6,2.5-0.6c0.9,0,1.7,0.2,2.5,0.5c0.7,0.4,1.3,0.9,1.8,1.5
	c0.5,0.6,0.7,1.4,0.9,2.2h-2c-0.2-0.7-0.5-1.4-1.1-1.8c-0.5-0.5-1.2-0.7-2.1-0.7c-1.3,0-2.3,0.5-3,1.7c-0.7,1.1-1.1,2.7-1.1,4.7h0.1
	c0.3-0.5,0.7-0.8,1.1-1.2c0.4-0.3,0.9-0.6,1.4-0.7c0.5-0.2,1-0.3,1.6-0.3c0.9,0,1.8,0.2,2.6,0.7c0.8,0.5,1.4,1.1,1.9,1.9
	c0.5,0.8,0.7,1.8,0.7,2.8c0,1.1-0.2,1.9-0.7,2.8c-0.5,0.8-1.1,1.5-1.9,2C170.1,117,169.2,117.2,168.1,117.2L168.1,117.2z
	 M168.1,115.5c0.7,0,1.3-0.2,1.8-0.5c0.5-0.3,1-0.8,1.3-1.4c0.3-0.6,0.5-1.2,0.5-1.9s-0.1-1.3-0.5-1.9s-0.7-1-1.2-1.3
	c-0.5-0.3-1.1-0.5-1.8-0.5c-0.5,0-1,0.1-1.4,0.3c-0.4,0.2-0.8,0.5-1.1,0.8c-0.3,0.3-0.6,0.7-0.8,1.2c-0.2,0.5-0.3,0.9-0.3,1.4
	c0,0.6,0.2,1.3,0.5,1.8c0.3,0.6,0.7,1,1.3,1.4C166.8,115.3,167.4,115.5,168.1,115.5z"/>
<path class="st2" d="M182.4,117.2c-1.1,0-2.1-0.2-2.9-0.6c-0.8-0.4-1.5-0.9-2-1.6c-0.5-0.7-0.7-1.5-0.7-2.4c0-0.7,0.1-1.3,0.4-1.9
	c0.3-0.6,0.7-1.1,1.1-1.5c0.5-0.4,1-0.6,1.6-0.8v-0.1c-0.8-0.2-1.4-0.6-1.9-1.3c-0.5-0.7-0.7-1.5-0.7-2.3c0-0.8,0.2-1.6,0.6-2.2
	s1-1.2,1.8-1.5c0.7-0.4,1.6-0.6,2.6-0.6s1.8,0.2,2.5,0.6c0.8,0.4,1.3,0.9,1.8,1.5s0.6,1.4,0.7,2.2c0,0.9-0.2,1.6-0.7,2.3
	c-0.5,0.7-1.1,1.1-1.9,1.3v0.1c0.6,0.1,1.1,0.4,1.6,0.8c0.5,0.4,0.9,0.9,1.1,1.5c0.3,0.6,0.4,1.2,0.4,1.9c0,0.9-0.2,1.7-0.7,2.4
	c-0.5,0.7-1.1,1.2-2,1.6C184.5,117,183.5,117.2,182.4,117.2L182.4,117.2z M182.4,115.5c0.7,0,1.4-0.1,1.9-0.4c0.5-0.2,1-0.6,1.2-1
	c0.3-0.4,0.4-1,0.5-1.5c0-0.6-0.2-1.2-0.5-1.6c-0.3-0.5-0.7-0.9-1.3-1.1c-0.5-0.3-1.2-0.4-1.9-0.4s-1.3,0.1-1.9,0.4
	c-0.5,0.3-1,0.6-1.3,1.1c-0.3,0.5-0.5,1-0.5,1.6c0,0.6,0.1,1.1,0.4,1.5c0.3,0.4,0.7,0.8,1.3,1C181,115.3,181.7,115.5,182.4,115.5
	L182.4,115.5z M182.4,107.7c0.6,0,1.1-0.1,1.6-0.4c0.5-0.2,0.8-0.6,1.1-1s0.4-0.9,0.4-1.5c0-0.6-0.1-1-0.4-1.5
	c-0.3-0.4-0.6-0.7-1.1-1c-0.5-0.2-1-0.3-1.6-0.3s-1.1,0.1-1.6,0.3c-0.5,0.2-0.8,0.5-1.1,1s-0.4,0.9-0.4,1.5c0,0.6,0.1,1.1,0.4,1.5
	c0.3,0.4,0.6,0.8,1.1,1C181.3,107.6,181.8,107.7,182.4,107.7L182.4,107.7z"/>
<path class="st0" d="M193.2,100.6v1.4c0,0.4-0.1,0.9-0.2,1.4c-0.2,0.5-0.4,1-0.7,1.4c-0.3,0.5-0.7,0.9-1.1,1.2l-1-0.8
	c0.3-0.5,0.6-1,0.9-1.5c0.2-0.5,0.4-1.1,0.4-1.7v-1.5L193.2,100.6L193.2,100.6z M197.3,100.6v1.4c0,0.4-0.1,0.9-0.2,1.4
	c-0.2,0.5-0.4,1-0.7,1.4c-0.3,0.5-0.7,0.9-1.1,1.2l-1-0.8c0.3-0.5,0.6-1,0.9-1.5c0.2-0.5,0.4-1.1,0.4-1.7v-1.5L197.3,100.6
	L197.3,100.6z"/>
<path class="st1" d="M85.7,144.1v-12.3h1.8v1.9h0.2c0.3-0.7,0.7-1.2,1.2-1.5s1.3-0.5,2.1-0.5c0.8,0,1.5,0.2,2,0.5s1,0.9,1.3,1.5h0.1
	c0.3-0.6,0.8-1.1,1.4-1.5c0.6-0.4,1.4-0.6,2.3-0.6c1.1,0,2,0.3,2.7,1c0.7,0.7,1,1.8,1,3.2v8.2h-1.9v-8.2c0-0.9-0.2-1.6-0.7-1.9
	c-0.5-0.4-1.1-0.6-1.8-0.6c-0.9,0-1.5,0.3-2,0.8c-0.5,0.5-0.7,1.2-0.7,2v8h-1.9v-8.4c0-0.7-0.2-1.3-0.7-1.7c-0.5-0.4-1-0.6-1.8-0.6
	c-0.5,0-1,0.1-1.4,0.4c-0.4,0.3-0.8,0.6-1,1.1c-0.3,0.5-0.4,1-0.4,1.6v7.7L85.7,144.1L85.7,144.1z"/>
<path class="st1" d="M109.4,144.3c-0.8,0-1.5-0.1-2.1-0.4c-0.6-0.3-1.1-0.7-1.5-1.3c-0.4-0.6-0.6-1.2-0.6-2c0-0.7,0.1-1.3,0.4-1.7
	s0.6-0.8,1.1-1c0.5-0.3,1-0.4,1.5-0.6c0.6-0.1,1.1-0.2,1.7-0.3c0.7-0.1,1.4-0.2,1.8-0.2c0.5,0,0.8-0.1,1-0.3
	c0.2-0.1,0.3-0.3,0.3-0.6v-0.1c0-0.8-0.2-1.4-0.6-1.8c-0.4-0.4-1.1-0.7-2-0.7c-0.9,0-1.6,0.2-2.1,0.6c-0.5,0.4-0.9,0.8-1.1,1.3
	l-1.8-0.6c0.3-0.7,0.7-1.3,1.3-1.7c0.5-0.4,1.1-0.7,1.8-0.9s1.3-0.3,1.9-0.3c0.4,0,0.9,0,1.4,0.1c0.5,0.1,1,0.3,1.5,0.6
	c0.5,0.3,0.9,0.7,1.2,1.3c0.3,0.6,0.5,1.4,0.5,2.3v8.1h-1.9v-1.7H113c-0.1,0.3-0.3,0.5-0.6,0.9c-0.3,0.3-0.7,0.6-1.2,0.8
	C110.7,144.2,110.1,144.3,109.4,144.3L109.4,144.3z M109.7,142.7c0.7,0,1.4-0.1,1.9-0.4c0.5-0.3,0.9-0.7,1.2-1.1
	c0.3-0.5,0.4-1,0.4-1.5v-1.7c-0.1,0.1-0.3,0.2-0.5,0.3c-0.3,0.1-0.6,0.1-0.9,0.2c-0.4,0-0.7,0.1-1,0.1c-0.3,0-0.6,0.1-0.8,0.1
	c-0.5,0.1-1,0.2-1.4,0.3c-0.4,0.1-0.8,0.4-1,0.6c-0.3,0.3-0.4,0.7-0.4,1.1c0,0.7,0.2,1.1,0.7,1.5S108.9,142.7,109.7,142.7
	L109.7,142.7z"/>
<path class="st1" d="M120.4,131.8l3,5l3-5h2.2l-4,6.1l4,6.1h-2.2l-3-4.8l-3,4.8h-2.2l3.9-6.1l-3.9-6.1H120.4z"/>
<path class="st1" d="M132.4,136.1v-1.7h9.9v1.7H132.4z M132.4,140.9v-1.7h9.9v1.7H132.4z"/>
<path class="st0" d="M148.6,127.7v1.4c0,0.4-0.1,0.9-0.2,1.4c-0.2,0.5-0.4,1-0.7,1.4c-0.3,0.5-0.7,0.9-1.1,1.2l-1-0.8
	c0.3-0.5,0.6-1,0.9-1.5c0.2-0.5,0.4-1.1,0.4-1.7v-1.5L148.6,127.7L148.6,127.7z M152.7,127.7v1.4c0,0.4-0.1,0.9-0.2,1.4
	c-0.2,0.5-0.4,1-0.7,1.4c-0.3,0.5-0.7,0.9-1.1,1.2l-1-0.8c0.3-0.5,0.6-1,0.9-1.5c0.2-0.5,0.4-1.1,0.4-1.7v-1.5L152.7,127.7
	L152.7,127.7z"/>
<path class="st2" d="M161.7,127.7v16.4h-2v-14.3h-0.1l-4,2.7v-2l4.1-2.7H161.7L161.7,127.7z"/>
<path class="st2" d="M172.2,144.3c-1.2,0-2.2-0.3-3.1-1c-0.9-0.7-1.5-1.6-2-2.9c-0.5-1.3-0.7-2.8-0.7-4.6c0-1.8,0.2-3.3,0.7-4.5
	c0.5-1.3,1.1-2.2,2-2.9c0.9-0.7,1.9-1,3.1-1s2.2,0.3,3.1,1c0.9,0.7,1.5,1.6,2,2.9c0.5,1.3,0.7,2.8,0.7,4.5s-0.2,3.3-0.7,4.6
	c-0.5,1.3-1.1,2.2-1.9,2.9C174.5,143.9,173.4,144.3,172.2,144.3L172.2,144.3z M172.2,142.5c1.2,0,2.1-0.6,2.8-1.7
	c0.7-1.2,1-2.8,1-4.9c0-1.4-0.1-2.6-0.5-3.6c-0.3-1-0.7-1.8-1.3-2.3c-0.6-0.5-1.2-0.8-2-0.8c-1.2,0-2.1,0.6-2.8,1.7
	c-0.7,1.2-1,2.8-1,4.9c0,1.4,0.1,2.6,0.5,3.6s0.7,1.7,1.3,2.3S171.5,142.5,172.2,142.5L172.2,142.5z"/>
<path class="st2" d="M181.5,144.1v-1.4l5.4-5.9c0.6-0.7,1.2-1.3,1.6-1.8c0.4-0.5,0.7-1,0.9-1.5c0.2-0.5,0.3-0.9,0.3-1.4
	c0-0.6-0.1-1.1-0.4-1.5s-0.6-0.7-1.1-1c-0.5-0.2-1-0.3-1.6-0.3c-0.6,0-1.2,0.1-1.6,0.4c-0.5,0.3-0.8,0.6-1.1,1.1
	c-0.3,0.5-0.4,1-0.4,1.6h-1.9c0-1,0.2-1.8,0.7-2.5c0.4-0.7,1-1.3,1.8-1.7c0.8-0.4,1.6-0.6,2.6-0.6s1.8,0.2,2.6,0.6
	c0.7,0.4,1.3,1,1.7,1.6s0.6,1.5,0.6,2.3c0,0.6-0.1,1.2-0.3,1.8c-0.2,0.6-0.6,1.2-1.1,1.9c-0.5,0.7-1.3,1.6-2.2,2.6l-3.7,3.9v0.1h7.6
	v1.8L181.5,144.1L181.5,144.1z"/>
<path class="st2" d="M195.2,140.7v-1.6l7.2-11.4h1.2v2.5h-0.8l-5.4,8.6v0.1h9.7v1.8H195.2z M202.9,144.1v-16.4h1.9v16.4H202.9z"/>
<path class="st0" d="M212.2,127.7v1.4c0,0.4-0.1,0.9-0.2,1.4c-0.2,0.5-0.4,1-0.7,1.4c-0.3,0.5-0.7,0.9-1.1,1.2l-1-0.8
	c0.3-0.5,0.6-1,0.9-1.5s0.4-1.1,0.4-1.7v-1.5L212.2,127.7L212.2,127.7z M216.3,127.7v1.4c0,0.4-0.1,0.9-0.2,1.4
	c-0.2,0.5-0.4,1-0.7,1.4c-0.3,0.5-0.7,0.9-1.1,1.2l-1-0.8c0.3-0.5,0.6-1,0.9-1.5s0.4-1.1,0.4-1.7v-1.5L216.3,127.7L216.3,127.7z"/>
<path class="st0" d="M222.2,126.9l-5.3,19.6h-1.7l5.3-19.6C220.5,126.9,222.2,126.9,222.2,126.9z"/>
<path class="st0" d="M235.8,138.3l-10.3,5.3v-2l7.9-3.8l-0.1,0.1v-0.3l0.1,0.1l-7.9-3.8v-2l10.3,5.3V138.3L235.8,138.3z"/>
</svg>
