<?xml version="1.0" encoding="utf-8"?>
<!-- Generator: Adobe Illustrator 26.4.1, SVG Export Plug-In . SVG Version: 6.00 Build 0)  -->
<svg version="1.1" id="a" xmlns="http://www.w3.org/2000/svg" xmlns:xlink="http://www.w3.org/1999/xlink" x="0px" y="0px"
	 viewBox="0 0 324.7 208.8" style="enable-background:new 0 0 324.7 208.8;" xml:space="preserve">
<style type="text/css">
	.st0{fill:#D6D2EE;enable-background:new    ;}
	.st1{fill:#9388ff;stroke:#9388ff;stroke-width:1.5;stroke-miterlimit:10;}
	.st2{fill:#FFFFFF;}
	.st3{fill:#FFFFFF;stroke:#BEBED3;stroke-width:2;stroke-miterlimit:10;}
</style>
<path class="st0" d="M102.4,62h152.4c2.5,0,4.5,2,4.5,4.5v2.9c0,2.5-2,4.5-4.5,4.5H102.4c-2.5,0-4.5-2-4.5-4.5v-2.9
	C97.8,64,99.9,62,102.4,62z"/>
<path class="st0" d="M101.4,101.4h152.4c2.5,0,4.5,2,4.5,4.5v2.9c0,2.5-2,4.5-4.5,4.5H101.4c-2.5,0-4.5-2-4.5-4.5v-2.9
	C96.8,103.4,98.9,101.4,101.4,101.4z"/>
<path class="st0" d="M102.4,141.2h132.4c2.5,0,4.5,2,4.5,4.5v2.9c0,2.5-2,4.5-4.5,4.5H102.4c-2.5,0-4.5-2-4.5-4.5v-2.9
	C97.8,143.2,99.9,141.2,102.4,141.2z"/>
<circle class="st1" cx="66" cy="147.2" r="11"/>
<ellipse transform="matrix(7.088896e-02 -0.9975 0.9975 7.088896e-02 -85.6716 202.3972)" class="st2" cx="65.8" cy="147.2" rx="5.1" ry="5.1"/>
<circle class="st3" cx="66" cy="68" r="10.5"/>
<circle class="st3" cx="66" cy="107.4" r="10.5"/>
</svg>
