<?xml version="1.0" encoding="utf-8"?>
<!-- Generator: Adobe Illustrator 26.4.1, SVG Export Plug-In . SVG Version: 6.00 Build 0)  -->
<svg version="1.1" id="a" xmlns="http://www.w3.org/2000/svg" xmlns:xlink="http://www.w3.org/1999/xlink" x="0px" y="0px"
	 viewBox="0 0 324.7 208.8" style="enable-background:new 0 0 324.7 208.8;" xml:space="preserve">
<style type="text/css">
	.st0{fill:#84849B;}
	.st1{fill:#A1A1B2;}
	.st2{fill:#8E85FF;}
</style>
<path class="st0" d="M46.5,94.7v-1.3L57,88v2.1L48.9,94l0.1-0.1v0.3L48.9,94l8.1,3.9v2.1L46.5,94.7z"/>
<path class="st0" d="M71,89.6c-0.1-0.8-0.5-1.5-1.2-1.9c-0.7-0.5-1.5-0.7-2.6-0.7c-0.7,0-1.4,0.1-1.9,0.4c-0.5,0.2-1,0.6-1.3,1
	c-0.3,0.4-0.5,0.9-0.5,1.4c0,0.4,0.1,0.8,0.3,1.1c0.2,0.3,0.5,0.6,0.8,0.8c0.3,0.2,0.7,0.4,1.1,0.5c0.4,0.1,0.7,0.2,1,0.3l1.7,0.5
	c0.4,0.1,0.9,0.3,1.5,0.5c0.5,0.2,1,0.5,1.5,0.8c0.5,0.3,0.9,0.8,1.2,1.3s0.5,1.2,0.5,2c0,0.9-0.2,1.7-0.7,2.4
	c-0.5,0.7-1.2,1.3-2.1,1.7s-2,0.6-3.3,0.6c-1.2,0-2.2-0.2-3.1-0.6c-0.9-0.4-1.6-0.9-2.1-1.6c-0.5-0.7-0.8-1.5-0.8-2.4h2.1
	c0,0.6,0.3,1.1,0.6,1.6c0.4,0.4,0.8,0.7,1.4,0.9c0.6,0.2,1.2,0.3,1.9,0.3c0.8,0,1.5-0.1,2.1-0.4c0.6-0.2,1.1-0.6,1.5-1.1
	c0.4-0.4,0.5-1,0.5-1.6c0-0.6-0.2-1-0.5-1.4c-0.3-0.3-0.7-0.6-1.2-0.8c-0.5-0.2-1-0.4-1.6-0.6l-2.1-0.6c-1.3-0.4-2.3-0.9-3.1-1.6
	c-0.8-0.7-1.1-1.6-1.1-2.7c0-0.9,0.2-1.7,0.8-2.4c0.5-0.7,1.2-1.2,2.1-1.6s1.8-0.6,2.9-0.6c1.1,0,2,0.2,2.9,0.6
	c0.8,0.4,1.5,0.9,2,1.6c0.5,0.7,0.7,1.4,0.8,2.3L71,89.6L71,89.6z"/>
<path class="st0" d="M78.6,94.6v7.5h-1.9V85.4h1.9v6.1h0.2c0.3-0.6,0.7-1.2,1.3-1.5c0.6-0.4,1.4-0.6,2.4-0.6c0.8,0,1.6,0.2,2.2,0.5
	c0.6,0.3,1.1,0.9,1.5,1.6c0.4,0.7,0.5,1.6,0.5,2.7v8h-1.9v-7.8c0-1-0.3-1.8-0.8-2.3c-0.5-0.5-1.2-0.8-2.1-0.8
	c-0.6,0-1.2,0.1-1.7,0.4c-0.5,0.3-0.9,0.7-1.2,1.2C78.8,93.2,78.6,93.8,78.6,94.6L78.6,94.6z"/>
<path class="st0" d="M95.8,102.4c-1.1,0-2.1-0.3-3-0.8c-0.8-0.5-1.5-1.3-2-2.3c-0.5-1-0.7-2.1-0.7-3.4c0-1.3,0.2-2.4,0.7-3.4
	c0.5-1,1.1-1.7,2-2.3s1.8-0.8,3-0.8s2.1,0.3,3,0.8c0.8,0.5,1.5,1.3,2,2.3c0.5,1,0.7,2.1,0.7,3.4c0,1.3-0.2,2.4-0.7,3.4
	c-0.5,1-1.1,1.7-2,2.3S97,102.4,95.8,102.4z M95.8,100.6c0.9,0,1.6-0.2,2.1-0.7c0.5-0.4,1-1,1.2-1.7c0.3-0.7,0.4-1.5,0.4-2.3
	c0-0.8-0.1-1.6-0.4-2.3c-0.3-0.7-0.7-1.3-1.2-1.8c-0.6-0.4-1.3-0.7-2.1-0.7s-1.6,0.2-2.1,0.7c-0.6,0.4-1,1-1.2,1.8
	c-0.3,0.7-0.4,1.5-0.4,2.3c0,0.8,0.1,1.6,0.4,2.3c0.3,0.7,0.7,1.3,1.2,1.7C94.3,100.4,95,100.6,95.8,100.6z"/>
<path class="st0" d="M107.8,102.1L104,89.6h2l2.7,9.6h0.1l2.7-9.6h2.1l2.6,9.6h0.1l2.7-9.6h2l-3.8,12.5h-1.9l-2.7-9.6h-0.2l-2.7,9.6
	H107.8L107.8,102.1z"/>
<path class="st1" d="M77,117.1l-4.6,12.5h-2l-4.6-12.5h2.1l3.5,10h0.1l3.5-10L77,117.1L77,117.1z"/>
<path class="st1" d="M81,115.1c-0.4,0-0.7-0.1-1-0.4s-0.4-0.6-0.4-0.9c0-0.4,0.1-0.7,0.4-0.9s0.6-0.4,1-0.4c0.4,0,0.7,0.1,1,0.4
	s0.4,0.6,0.4,0.9c0,0.4-0.1,0.7-0.4,0.9S81.4,115.1,81,115.1z M80,129.7v-12.5H82v12.5H80z"/>
<path class="st1" d="M91.2,129.9c-1.2,0-2.2-0.3-3.1-0.8c-0.9-0.5-1.5-1.3-2-2.2c-0.5-1-0.7-2.1-0.7-3.4s0.2-2.4,0.7-3.4
	c0.5-1,1.1-1.7,2-2.3c0.8-0.5,1.8-0.8,3-0.8c0.6,0,1.3,0.1,1.9,0.3c0.6,0.2,1.2,0.6,1.7,1.1c0.5,0.5,0.9,1.1,1.2,1.9s0.5,1.8,0.5,3
	v0.8h-9.7v-1.7h7.7c0-0.7-0.1-1.3-0.4-1.9c-0.3-0.6-0.7-1-1.2-1.3c-0.5-0.3-1.1-0.5-1.8-0.5c-0.8,0-1.4,0.2-2,0.6
	c-0.6,0.4-1,0.9-1.3,1.5s-0.4,1.2-0.4,1.9v1.1c0,0.9,0.2,1.7,0.5,2.4c0.3,0.7,0.8,1.1,1.4,1.5c0.6,0.3,1.3,0.5,2,0.5
	c0.5,0,1-0.1,1.4-0.2c0.4-0.1,0.8-0.4,1.1-0.6c0.3-0.3,0.5-0.6,0.7-1.1l1.9,0.5c-0.2,0.6-0.5,1.2-1,1.7c-0.5,0.5-1,0.8-1.7,1.1
	C92.8,129.8,92.1,129.9,91.2,129.9L91.2,129.9z"/>
<path class="st1" d="M102.7,129.7l-3.8-12.5h2l2.7,9.6h0.1l2.7-9.6h2.1l2.6,9.6h0.1l2.7-9.6h2l-3.8,12.5h-1.9l-2.7-9.6h-0.2
	l-2.7,9.6H102.7L102.7,129.7z"/>
<path class="st1" d="M119,134.4v-17.2h1.9v2h0.2c0.1-0.2,0.3-0.5,0.6-0.8s0.6-0.6,1.1-0.9c0.5-0.3,1.1-0.4,1.9-0.4
	c1.1,0,2,0.3,2.8,0.8c0.8,0.5,1.4,1.3,1.9,2.2c0.5,1,0.7,2.1,0.7,3.4c0,1.3-0.2,2.5-0.7,3.4c-0.4,1-1.1,1.7-1.9,2.2
	c-0.8,0.5-1.7,0.8-2.8,0.8c-0.8,0-1.4-0.1-1.9-0.4c-0.5-0.3-0.9-0.6-1.1-0.9c-0.3-0.3-0.5-0.6-0.6-0.9h-0.2v6.6L119,134.4L119,134.4
	z M120.9,123.4c0,0.9,0.1,1.8,0.4,2.5c0.3,0.7,0.7,1.3,1.2,1.7c0.5,0.4,1.2,0.6,2,0.6s1.5-0.2,2-0.6c0.5-0.4,0.9-1,1.2-1.7
	c0.3-0.7,0.4-1.5,0.4-2.4s-0.1-1.7-0.4-2.4c-0.3-0.7-0.7-1.3-1.2-1.7c-0.5-0.4-1.2-0.6-2-0.6c-0.8,0-1.4,0.2-2,0.6
	c-0.5,0.4-0.9,0.9-1.2,1.6S120.9,122.5,120.9,123.4L120.9,123.4z"/>
<path class="st1" d="M138.5,129.9c-1.1,0-2.1-0.3-3-0.8c-0.8-0.5-1.5-1.3-2-2.3c-0.5-1-0.7-2.1-0.7-3.4c0-1.3,0.2-2.4,0.7-3.4
	c0.5-1,1.1-1.7,2-2.3c0.8-0.5,1.8-0.8,3-0.8s2.1,0.3,3,0.8c0.8,0.5,1.5,1.3,2,2.3c0.5,1,0.7,2.1,0.7,3.4c0,1.3-0.2,2.4-0.7,3.4
	c-0.5,1-1.1,1.7-2,2.3C140.7,129.7,139.7,129.9,138.5,129.9z M138.5,128.2c0.9,0,1.6-0.2,2.1-0.7c0.5-0.4,1-1,1.2-1.7
	c0.3-0.7,0.4-1.5,0.4-2.3c0-0.8-0.1-1.6-0.4-2.3c-0.3-0.7-0.7-1.3-1.2-1.8c-0.6-0.4-1.3-0.7-2.1-0.7s-1.6,0.2-2.1,0.7
	c-0.6,0.4-1,1-1.2,1.8c-0.3,0.7-0.4,1.5-0.4,2.3s0.1,1.6,0.4,2.3c0.3,0.7,0.7,1.3,1.2,1.7C137,128,137.7,128.2,138.5,128.2z"/>
<path class="st1" d="M147.6,129.7v-12.5h1.9v1.9h0.1c0.2-0.6,0.6-1.1,1.2-1.5c0.6-0.4,1.3-0.6,2-0.6c0.1,0,0.3,0,0.5,0
	c0.2,0,0.4,0,0.5,0v2c-0.1,0-0.2,0-0.4-0.1c-0.2,0-0.5,0-0.7,0c-0.6,0-1.1,0.1-1.6,0.4s-0.8,0.6-1.1,1c-0.3,0.4-0.4,0.9-0.4,1.5v7.9
	L147.6,129.7L147.6,129.7z"/>
<path class="st1" d="M162.1,117.1v1.6h-6.5v-1.6H162.1z M157.5,114.1h1.9v11.9c0,0.5,0.1,0.9,0.2,1.2c0.2,0.3,0.4,0.4,0.6,0.5
	c0.2,0.1,0.5,0.1,0.8,0.1c0.2,0,0.4,0,0.5,0c0.1,0,0.2,0,0.3-0.1l0.4,1.7c-0.1,0-0.3,0.1-0.5,0.1c-0.2,0-0.5,0.1-0.9,0.1
	c-0.5,0-1.1-0.1-1.6-0.3c-0.5-0.2-0.9-0.6-1.3-1.1s-0.5-1.1-0.5-1.8L157.5,114.1L157.5,114.1z"/>
<path class="st1" d="M166.3,121.6v-1.8h10v1.8H166.3z M166.3,126.5v-1.8h10v1.8H166.3z"/>
<path class="st0" d="M182.8,113v1.5c0,0.4-0.1,0.9-0.2,1.4c-0.2,0.5-0.4,1-0.7,1.5c-0.3,0.5-0.7,0.9-1.1,1.2l-1-0.8
	c0.3-0.5,0.6-1,0.9-1.5c0.2-0.5,0.4-1.1,0.4-1.7V113L182.8,113L182.8,113z M187,113v1.5c0,0.4-0.1,0.9-0.2,1.4
	c-0.2,0.5-0.4,1-0.7,1.5c-0.3,0.5-0.7,0.9-1.1,1.2l-1-0.8c0.3-0.5,0.6-1,0.9-1.5c0.2-0.5,0.4-1.1,0.4-1.7V113L187,113L187,113z"/>
<path class="st2" d="M201.4,122.2l-10.5,5.4v-2.1l8.1-3.9l-0.1,0.1v-0.3l0.1,0.1l-8.1-3.9v-2.1l10.5,5.4V122.2z"/>
<path class="st2" d="M211.6,129.9c-1.1,0-2-0.2-2.9-0.6c-0.8-0.4-1.5-0.9-2-1.5s-0.8-1.4-0.8-2.3h2.1c0,0.5,0.2,1,0.5,1.4
	c0.3,0.4,0.7,0.7,1.3,0.9c0.5,0.2,1.1,0.3,1.8,0.3c0.7,0,1.4-0.1,1.9-0.4c0.5-0.2,1-0.6,1.3-1c0.3-0.4,0.5-1,0.5-1.5
	c0-0.6-0.1-1.2-0.5-1.6c-0.3-0.5-0.7-0.8-1.3-1.1c-0.6-0.3-1.3-0.4-2.2-0.4H210v-1.8h1.3c0.7,0,1.2-0.1,1.7-0.4
	c0.5-0.2,0.9-0.6,1.2-1c0.3-0.4,0.4-0.9,0.4-1.5c0-0.6-0.1-1.1-0.4-1.5c-0.2-0.4-0.6-0.7-1.1-1c-0.5-0.2-1-0.3-1.6-0.3
	c-0.6,0-1.1,0.1-1.6,0.3s-0.9,0.5-1.2,0.9c-0.3,0.4-0.5,0.9-0.5,1.4h-2c0-0.9,0.3-1.6,0.8-2.3c0.5-0.7,1.1-1.2,1.9-1.5
	c0.8-0.4,1.7-0.6,2.6-0.6c1,0,1.9,0.2,2.7,0.6c0.7,0.4,1.3,1,1.7,1.6c0.4,0.7,0.6,1.4,0.6,2.2c0,0.9-0.2,1.7-0.7,2.4
	c-0.5,0.7-1.2,1.1-2,1.4v0.1c1.1,0.2,1.9,0.6,2.5,1.3s0.9,1.6,0.9,2.7c0,0.9-0.2,1.7-0.7,2.4c-0.5,0.7-1.2,1.3-2,1.7
	S212.7,129.9,211.6,129.9L211.6,129.9z"/>
<path class="st2" d="M226.5,129.9c-1.2,0-2.3-0.3-3.1-1c-0.9-0.7-1.5-1.6-2-2.9c-0.5-1.3-0.7-2.8-0.7-4.6s0.2-3.3,0.7-4.6
	c0.5-1.3,1.1-2.3,2-2.9c0.9-0.7,1.9-1,3.1-1s2.3,0.3,3.1,1c0.9,0.7,1.5,1.7,2,2.9c0.5,1.3,0.7,2.8,0.7,4.6s-0.2,3.4-0.7,4.6
	c-0.5,1.3-1.1,2.3-2,2.9C228.8,129.6,227.7,129.9,226.5,129.9L226.5,129.9z M226.5,128.1c1.2,0,2.2-0.6,2.8-1.8c0.7-1.2,1-2.8,1-5
	c0-1.4-0.1-2.7-0.5-3.7s-0.7-1.8-1.3-2.3c-0.6-0.5-1.3-0.8-2.1-0.8c-1.2,0-2.1,0.6-2.8,1.8c-0.7,1.2-1,2.9-1,5
	c0,1.4,0.1,2.7,0.5,3.7c0.3,1,0.7,1.8,1.3,2.3C225,127.8,225.7,128.1,226.5,128.1L226.5,128.1z"/>
<path class="st2" d="M241.3,129.9c-1.2,0-2.3-0.3-3.1-1c-0.9-0.7-1.5-1.6-2-2.9c-0.5-1.3-0.7-2.8-0.7-4.6s0.2-3.3,0.7-4.6
	c0.5-1.3,1.1-2.3,2-2.9c0.9-0.7,1.9-1,3.1-1s2.3,0.3,3.1,1c0.9,0.7,1.5,1.7,2,2.9c0.5,1.3,0.7,2.8,0.7,4.6s-0.2,3.4-0.7,4.6
	c-0.5,1.3-1.1,2.3-2,2.9C243.6,129.6,242.6,129.9,241.3,129.9L241.3,129.9z M241.3,128.1c1.2,0,2.2-0.6,2.8-1.8c0.7-1.2,1-2.8,1-5
	c0-1.4-0.1-2.7-0.5-3.7s-0.7-1.8-1.3-2.3s-1.3-0.8-2.1-0.8c-1.2,0-2.1,0.6-2.8,1.8c-0.7,1.2-1,2.9-1,5c0,1.4,0.1,2.7,0.5,3.7
	c0.3,1,0.7,1.8,1.3,2.3C239.9,127.8,240.6,128.1,241.3,128.1L241.3,128.1z"/>
<path class="st0" d="M252.5,113v1.5c0,0.4-0.1,0.9-0.2,1.4c-0.2,0.5-0.4,1-0.7,1.5c-0.3,0.5-0.7,0.9-1.1,1.2l-1-0.8
	c0.3-0.5,0.6-1,0.9-1.5c0.2-0.5,0.4-1.1,0.4-1.7V113L252.5,113L252.5,113z M256.7,113v1.5c0,0.4-0.1,0.9-0.2,1.4
	c-0.2,0.5-0.4,1-0.7,1.5c-0.3,0.5-0.7,0.9-1.1,1.2l-1-0.8c0.3-0.5,0.6-1,0.9-1.5c0.2-0.5,0.4-1.1,0.4-1.7V113L256.7,113L256.7,113z"
	/>
<path class="st0" d="M262.6,112.2l-5.4,20h-1.8l5.4-20H262.6z"/>
<path class="st0" d="M276.5,123.8l-10.5,5.4v-2.1l8.1-3.9l-0.1,0.1V123l0.1,0.1l-8.1-3.9v-2.1l10.5,5.4
	C276.5,122.5,276.5,123.8,276.5,123.8z"/>
</svg>
