<?xml version="1.0" encoding="utf-8"?>
<!-- Generator: Adobe Illustrator 26.4.1, SVG Export Plug-In . SVG Version: 6.00 Build 0)  -->
<svg version="1.1" id="a" xmlns="http://www.w3.org/2000/svg" xmlns:xlink="http://www.w3.org/1999/xlink" x="0px" y="0px"
	 viewBox="0 0 324.7 208.8" style="enable-background:new 0 0 324.7 208.8;" xml:space="preserve">
<style type="text/css">
	.st0{fill:#9290F4;}
	.st1{fill:#FFFFFF;}
	.st2{fill:#D6D2EE;enable-background:new    ;}
</style>
<path class="st0" d="M144.1,114h28.7c8.4,0,15.2,6.8,15.2,15.2l0,0c0,8.4-6.8,15.2-15.2,15.2h-28.7c-8.4,0-15.2-6.8-15.2-15.2l0,0
	C128.9,120.8,135.7,114,144.1,114z"/>
<circle class="st1" cx="172.2" cy="129.2" r="11.8"/>
<path class="st2" d="M144.1,68h28.7c8.4,0,15.2,6.8,15.2,15.2v0c0,8.4-6.8,15.2-15.2,15.2h-28.7c-8.4,0-15.2-6.8-15.2-15.2v0
	C128.9,74.8,135.7,68,144.1,68z"/>
<circle class="st1" cx="143.7" cy="83.2" r="11.8"/>
</svg>
