<?xml version="1.0" encoding="utf-8"?>
<!-- Generator: Adobe Illustrator 26.4.1, SVG Export Plug-In . SVG Version: 6.00 Build 0)  -->
<svg version="1.1" id="Layer_1" xmlns="http://www.w3.org/2000/svg" xmlns:xlink="http://www.w3.org/1999/xlink" x="0px" y="0px"
	 viewBox="0 0 12 12" style="enable-background:new 0 0 12 12;" xml:space="preserve">
<style type="text/css">
	.st0{fill:none;stroke:#A189FF;stroke-width:0.8;stroke-linecap:round;stroke-linejoin:round;stroke-miterlimit:2;}
</style>
<g>
	<path class="st0" d="M7.6,1.5h2.6c0.3,0,0.5,0.2,0.5,0.5v2.6c0,0.3-0.2,0.5-0.5,0.5H7.6c-0.3,0-0.5-0.2-0.5-0.5V2
		C7.1,1.7,7.3,1.5,7.6,1.5z"/>
	<path class="st0" d="M5.3,10.5V3.8c0-0.3-0.2-0.5-0.5-0.5H2.2c-0.3,0-0.5,0.2-0.5,0.5V10c0,0.3,0.2,0.5,0.5,0.5h6.1
		c0.3,0,0.5-0.2,0.5-0.5V7.4c0-0.3-0.2-0.5-0.5-0.5H1.7"/>
</g>
</svg>
