<?xml version="1.0" encoding="utf-8"?>
<!-- Generator: Adobe Illustrator 26.4.1, SVG Export Plug-In . SVG Version: 6.00 Build 0)  -->
<svg version="1.1" id="Layer_1" xmlns="http://www.w3.org/2000/svg" xmlns:xlink="http://www.w3.org/1999/xlink" x="0px" y="0px"
	 viewBox="0 0 12 12" style="enable-background:new 0 0 12 12;" xml:space="preserve">
<style type="text/css">
	.st0{fill:#A189FF;}
</style>
<g>
	<path class="st0" d="M9.1,1.4L9.1,1.4c-0.6-0.6-1.5-0.6-2,0L7,1.5L6.9,1.4C6.6,1.1,6.3,1,5.9,1c-0.4,0-0.7,0.2-1,0.4
		C4.6,1.7,4.5,2,4.5,2.4c0,0.4,0.1,0.7,0.4,1l1.8,1.8C6.8,5.2,6.9,5.2,7,5.2c0.1,0,0.2,0,0.3-0.1l1.8-1.8c0.3-0.3,0.4-0.6,0.4-1
		C9.5,2,9.4,1.7,9.1,1.4z M8.6,2.8L7,4.3L5.4,2.8C5.3,2.7,5.2,2.5,5.2,2.4c0-0.2,0.1-0.3,0.2-0.5c0.1-0.1,0.3-0.2,0.5-0.2
		c0.2,0,0.3,0.1,0.5,0.2L7,2.5l0.6-0.6c0,0,0.6-0.4,0.9,0C8.8,2.2,8.8,2.6,8.6,2.8z"/>
</g>
<g>
	<g>
		<path class="st0" d="M9.1,5.6c-0.2,0-0.4,0.1-1.4,1C7.5,6.9,7.2,7.1,7,7.3L6.9,7.4l0-0.1c-0.3-1-1.3-1.7-2.4-1.7H1.8
			C1.3,5.6,0.9,6,0.9,6.5v3.2c0,0.5,0.4,0.9,0.9,0.9H6c0.6,0,1.3-0.1,1.4-0.1c0.8-0.2,3.5-3.2,3.6-3.7l0-0.1
			C11.1,6.1,9.4,5.7,9.1,5.6z M10.1,6.9C9.5,7.7,7.7,9.6,7.2,9.8l0,0c0,0-0.1,0-0.1,0c-0.2,0-0.6,0.1-1,0.1H1.8
			c-0.1,0-0.2-0.1-0.2-0.2V6.5c0-0.1,0.1-0.2,0.2-0.2h2.6c0.8,0,1.5,0.5,1.7,1.3l0,0.1H6.1c-0.4,0-1.1,0-1.5,0h-1l0,0.7h1.1
			c0.6,0,1.1,0,1.5,0c0.3,0,0.4,0,0.6-0.1c0.1,0,0.2-0.1,0.3-0.2c0.2-0.2,0.6-0.5,1.2-1c0.2-0.1,0.7-0.6,0.9-0.8l0,0l0.1,0
			c0.2,0.1,0.6,0.2,0.8,0.3l0.1,0.1L10.1,6.9z"/>
	</g>
</g>
</svg>
