<?xml version="1.0" encoding="utf-8"?>
<!-- Generator: Adobe Illustrator 26.4.1, SVG Export Plug-In . SVG Version: 6.00 Build 0)  -->
<svg version="1.1" id="Layer_1" xmlns="http://www.w3.org/2000/svg" xmlns:xlink="http://www.w3.org/1999/xlink" x="0px" y="0px"
	 viewBox="0 0 12 12" style="enable-background:new 0 0 12 12;" xml:space="preserve">
<style type="text/css">
	.st0{fill-rule:evenodd;clip-rule:evenodd;fill:#A189FF;}
</style>
<g>
	<g>
		<g>
			<g>
				<g>
					<path class="st0" d="M7.9,3L7.5,2.6C7.4,2.8,7.3,3,7.2,3.2L7.1,3.5L7,3.2c-0.3-0.9-0.9-1.6-1.7-2L4.8,0.8
						c-0.3,1.5-0.9,2.7-2,3.6C1.3,5.8,0.7,7.3,1.3,8.8C1.8,10,3,10.8,4.3,11L5,11.1l-0.3-0.6C4.4,9.9,4.3,9.4,4.4,9
						c0.1-0.4,0.4-0.9,0.9-1.3l0.1-0.1l0.1,0.1C5.6,8,5.8,8.2,5.9,8.4L6,8.5C6.2,8.8,6.3,9,6.4,9.3c0,0.3,0,0.7-0.1,1.2L6.1,11
						L6.7,11c2.1-0.2,3.4-1.6,3.4-3.7C10.1,5.9,9.3,4.3,7.9,3z M7.2,10c0.1-0.6,0-1.2-0.3-1.7C6.6,7.8,6.3,7.4,6.1,6.9L5.9,6.3
						L5.3,6.6C4.2,7.3,3.7,8,3.5,8.8c-0.1,0.3-0.1,0.7,0,1C2.9,9.6,2.4,9.1,2.1,8.4c-0.3-0.8-0.2-2,1.3-3.3c0.9-0.8,1.6-1.8,2-2.8
						c0.7,0.7,1,1.5,1,2.2v0.8C6.9,5,7.5,4.8,7.8,4.2c0.7,0.9,1.4,2,1.4,3.1C9.2,8.6,8.6,9.7,7.2,10z"/>
				</g>
			</g>
		</g>
	</g>
</g>
</svg>
