<?xml version="1.0" encoding="utf-8"?>
<!-- Generator: Adobe Illustrator 26.4.1, SVG Export Plug-In . SVG Version: 6.00 Build 0)  -->
<svg version="1.1" id="Layer_1" xmlns="http://www.w3.org/2000/svg" xmlns:xlink="http://www.w3.org/1999/xlink" x="0px" y="0px"
	 viewBox="0 0 12 12" style="enable-background:new 0 0 12 12;" xml:space="preserve">
<style type="text/css">
	.st0{fill:none;stroke:#A189FF;stroke-width:0.8;stroke-linecap:round;stroke-linejoin:round;stroke-miterlimit:2;}
</style>
<path class="st0" d="M3.2,10.5h7c0.1,0,0.3-0.1,0.3-0.3l0,0v-3 M4,10.3l6.3-3c0.1-0.1,0.2-0.2,0.1-0.4L9.2,4.3
	C9.1,4.2,9,4.1,8.8,4.2L6,5.5 M4.9,9.2c-0.3,0.9-1.2,1.5-2.1,1.2S1.3,9.2,1.6,8.3l0,0l1.8-6.7c0-0.1,0.2-0.2,0.3-0.2l2.9,0.8
	c0.1,0,0.2,0.2,0.2,0.3L4.9,9.2z M3.2,8.8L3.2,8.8L3.2,8.8L3.2,8.8L3.2,8.8z"/>
</svg>
