<?xml version="1.0" encoding="UTF-8"?><svg id="a" xmlns="http://www.w3.org/2000/svg" viewBox="0 0 324.66 208.78"><path d="M96.98,113.89H42.1c-3.68,0-6.66-2.69-6.66-6h0c0-3.31,2.98-6,6.66-6h54.89c3.68,0,6.66,2.69,6.66,6h0c0,3.31-2.98,6-6.66,6Z" style="fill:#cdcde0;"/><path d="M186.22,113.89h-54.89c-3.68,0-6.66-2.69-6.66-6h0c0-3.31,2.98-6,6.66-6h54.89c3.68,0,6.66,2.69,6.66,6h0c0,3.31-2.98,6-6.66,6Z" style="fill:#cdcde0;"/><path d="M275.46,113.89h-54.89c-3.68,0-6.66-2.69-6.66-6h0c0-3.31,2.98-6,6.66-6h54.89c3.68,0,6.66,2.69,6.66,6h0c0,3.31-2.98,6-6.66,6Z" style="fill:#aea1d7;"/><polyline points="110.89 101.89 117.43 108.11 111.02 113.89" style="fill:none; stroke:#a1a1b2; stroke-miterlimit:10;"/><polyline points="200.13 101.89 206.66 108.11 200.26 113.89" style="fill:none; stroke:#a1a1b2; stroke-miterlimit:10;"/></svg>