<?xml version="1.0" encoding="utf-8"?>
<!-- Generator: Adobe Illustrator 26.4.1, SVG Export Plug-In . SVG Version: 6.00 Build 0)  -->
<svg version="1.1" id="a" xmlns="http://www.w3.org/2000/svg" xmlns:xlink="http://www.w3.org/1999/xlink" x="0px" y="0px"
	 viewBox="0 0 324.7 208.8" style="enable-background:new 0 0 324.7 208.8;" xml:space="preserve">
<style type="text/css">
	.st0{opacity:0.8;fill:#CDCDE0;}
	.st1{fill:#AEA1D7;}
	.st2{fill:none;stroke:#A1A1B2;stroke-miterlimit:10;}
</style>
<path class="st0" d="M97,113.9H42.1c-3.7,0-6.7-2.7-6.7-6l0,0c0-3.3,3-6,6.7-6H97c3.7,0,6.7,2.7,6.7,6l0,0
	C103.6,111.2,100.7,113.9,97,113.9L97,113.9z"/>
<path class="st0" d="M186.2,113.9h-54.9c-3.7,0-6.7-2.7-6.7-6l0,0c0-3.3,3-6,6.7-6h54.9c3.7,0,6.7,2.7,6.7,6l0,0
	C192.9,111.2,189.9,113.9,186.2,113.9z"/>
<path class="st1" d="M275.5,113.9h-54.9c-3.7,0-6.7-2.7-6.7-6l0,0c0-3.3,3-6,6.7-6h54.9c3.7,0,6.7,2.7,6.7,6l0,0
	C282.1,111.2,279.1,113.9,275.5,113.9z"/>
<polyline class="st2" points="110.9,101.9 117.4,108.1 111,113.9 "/>
<polyline class="st2" points="200.1,101.9 206.7,108.1 200.3,113.9 "/>
</svg>
