<?xml version="1.0" encoding="utf-8"?>
<!-- Generator: Adobe Illustrator 26.4.1, SVG Export Plug-In . SVG Version: 6.00 Build 0)  -->
<svg version="1.1" id="a" xmlns="http://www.w3.org/2000/svg" xmlns:xlink="http://www.w3.org/1999/xlink" x="0px" y="0px"
	 viewBox="0 0 324.7 208.8" style="enable-background:new 0 0 324.7 208.8;" xml:space="preserve">
<style type="text/css">
	.st0{opacity:0.8;fill:#C6C3E0;}
	.st1{fill:#A69FF4;}
	.st2{fill:none;stroke:#A1A1B2;stroke-width:2;stroke-miterlimit:10;}
</style>
<g>
	<path class="st0" d="M92,118.2H29.5c-4.2,0-7.6-3.1-7.6-6.8l0,0c0-3.8,3.4-6.8,7.6-6.8H92c4.2,0,7.6,3.1,7.6,6.8l0,0
		C99.6,115.2,96.2,118.2,92,118.2L92,118.2z"/>
	<path class="st0" d="M193.6,118.2h-62.5c-4.2,0-7.6-3.1-7.6-6.8l0,0c0-3.8,3.4-6.8,7.6-6.8h62.5c4.2,0,7.6,3.1,7.6,6.8l0,0
		C201.2,115.2,197.8,118.2,193.6,118.2z"/>
	<path class="st1" d="M295.2,118.2h-62.5c-4.2,0-7.6-3.1-7.6-6.8l0,0c0-3.8,3.4-6.8,7.6-6.8h62.5c4.2,0,7.6,3.1,7.6,6.8l0,0
		C302.8,115.2,299.4,118.2,295.2,118.2z"/>
	<polyline class="st2" points="107.8,104.6 115.3,111.6 108,118.2 	"/>
	<polyline class="st2" points="209.4,104.6 216.8,111.6 209.6,118.2 	"/>
</g>
</svg>
