<?xml version="1.0" encoding="UTF-8"?><svg id="a" xmlns="http://www.w3.org/2000/svg" viewBox="0 0 324.66 208.78"><rect x="83.21" y="87.24" width="154.37" height="42.33" rx="11.35" ry="11.35" style="fill:#aea1d6;"/><g><path d="M227.93,137.14c-.09,.28-.28,.52-.53,.71-.33,.27-.8,.47-1.33,.57,0,.01-.01,.01-.01,.01l-3.78,.78,2.69,4.7c.14,.24,.16,.53,.1,.8-.08,.25-.23,.5-.47,.65-.01,0-.03,.01-.04,.01l-2.79,1.61s-.04,.03-.06,.04c-.24,.11-.51,.13-.75,.06-.27-.08-.51-.24-.65-.48l-2.71-4.69-2.57,2.9c-.35,.41-.76,.71-1.15,.88-.3,.11-.61,.15-.89,.1-.3-.06-.57-.24-.76-.56-.15-.24-.25-.56-.29-.98l-1.43-18.75v-.04c0-.11,.01-.23,.06-.34,.05-.11,.14-.23,.25-.31,.05-.04,.1-.06,.15-.08,.1-.04,.22-.05,.33-.04,.1,.01,.2,.05,.29,.1,.04,.01,.06,.03,.09,.05l15.45,10.6c.34,.24,.57,.48,.7,.74,.18,.33,.19,.65,.1,.94Z" style="fill:#fff;"/><path d="M221.71,147.03c-.24,.11-.51,.13-.75,.07-.27-.07-.5-.24-.65-.49l-2.71-4.68-2.57,2.9c-.36,.4-.77,.71-1.16,.87-.3,.12-.6,.16-.88,.1-.31-.07-.57-.24-.76-.55-.15-.24-.25-.57-.29-.98l-1.44-18.75s0-.03,0-.04c0-.12,.02-.23,.07-.34,.05-.12,.14-.23,.25-.31,.05-.04,.1-.06,.15-.07,.11-.04,.22-.05,.33-.04,.1,.01,.21,.04,.3,.09,.03,.01,.06,.03,.09,.05l15.44,10.61c.34,.24,.57,.49,.71,.74,.17,.32,.19,.64,.09,.94-.09,.27-.27,.51-.53,.71-.33,.26-.8,.46-1.33,.57,0,0-.01,0-.02,0l-3.77,.78,2.69,4.7c.14,.25,.17,.54,.1,.8-.07,.26-.23,.49-.47,.65,0,0-.02,.01-.03,.02l-2.79,1.62s-.04,.02-.06,.03h0Zm-.5-.88s.05,0,.08,0c0,0,.02-.01,.03-.01l2.75-1.6s.04-.05,.05-.07c0-.02,0-.05,0-.06l-3.02-5.28h0s-.04-.09-.05-.15c-.05-.26,.12-.52,.38-.58l4.43-.92s.01,0,.02,0c.38-.08,.71-.22,.92-.39,.11-.08,.18-.17,.2-.25,.02-.05,0-.11-.03-.18-.06-.12-.19-.24-.39-.39l-15.06-10.34,1.4,18.26c.02,.25,.07,.42,.14,.53,.04,.06,.09,.1,.14,.11,.08,.02,.19,0,.31-.05,.25-.1,.53-.32,.79-.61l3.02-3.4h0s.07-.07,.12-.1c.23-.14,.53-.06,.67,.18l3.05,5.27s.03,.03,.05,.03h0Zm.11-.02c.06-.03,.14-.05,.21-.05l-.21,.05h0Z"/></g><rect x="96.19" y="101.18" width="128.42" height="14.43" rx="6.22" ry="6.22" style="fill:#8d83b7;"/></svg>