<?xml version="1.0" encoding="utf-8"?>
<!-- Generator: Adobe Illustrator 26.4.1, SVG Export Plug-In . SVG Version: 6.00 Build 0)  -->
<svg version="1.1" id="a" xmlns="http://www.w3.org/2000/svg" xmlns:xlink="http://www.w3.org/1999/xlink" x="0px" y="0px"
	 viewBox="0 0 324.7 208.8" style="enable-background:new 0 0 324.7 208.8;" xml:space="preserve">
<style type="text/css">
	.st0{opacity:0.5;fill:#918AE8;}
	.st1{fill:#FFFFFF;}
	.st2{opacity:0.3;fill:#837AD8;}
</style>
<path class="st0" d="M94.6,87.1h131.7c6.3,0,11.4,5.1,11.4,11.3V118c0,6.3-5.1,11.3-11.4,11.3H94.6c-6.3,0-11.3-5.1-11.3-11.3V98.5
	C83.2,92.2,88.3,87.1,94.6,87.1z"/>
<g>
	<path class="st1" d="M227.9,137.1c-0.1,0.3-0.3,0.5-0.5,0.7c-0.3,0.3-0.8,0.5-1.3,0.6l0,0l-3.8,0.8l2.7,4.7
		c0.1,0.2,0.2,0.5,0.1,0.8c-0.1,0.2-0.2,0.5-0.5,0.6l0,0l-2.8,1.6c0,0,0,0-0.1,0c-0.2,0.1-0.5,0.1-0.8,0.1c-0.3-0.1-0.5-0.2-0.6-0.5
		l-2.7-4.7l-2.6,2.9c-0.4,0.4-0.8,0.7-1.1,0.9c-0.3,0.1-0.6,0.1-0.9,0.1c-0.3-0.1-0.6-0.2-0.8-0.6c-0.1-0.2-0.2-0.6-0.3-1l-1.4-18.8
		l0,0c0-0.1,0-0.2,0.1-0.3c0.1-0.1,0.1-0.2,0.2-0.3c0.1,0,0.1-0.1,0.1-0.1c0.1,0,0.2-0.1,0.3,0c0.1,0,0.2,0.1,0.3,0.1
		c0,0,0.1,0,0.1,0.1l15.4,10.6c0.3,0.2,0.6,0.5,0.7,0.7C228,136.5,228,136.8,227.9,137.1L227.9,137.1z"/>
	<path d="M221.7,147c-0.2,0.1-0.5,0.1-0.8,0.1c-0.3-0.1-0.5-0.2-0.6-0.5l-2.7-4.7l-2.6,2.9c-0.4,0.4-0.8,0.7-1.2,0.9
		c-0.3,0.1-0.6,0.2-0.9,0.1c-0.3-0.1-0.6-0.2-0.8-0.6c-0.1-0.2-0.2-0.6-0.3-1l-1.4-18.8l0,0c0-0.1,0-0.2,0.1-0.3
		c0.1-0.1,0.1-0.2,0.2-0.3c0.1,0,0.1-0.1,0.1-0.1c0.1,0,0.2-0.1,0.3,0c0.1,0,0.2,0,0.3,0.1c0,0,0.1,0,0.1,0.1l15.4,10.6
		c0.3,0.2,0.6,0.5,0.7,0.7c0.2,0.3,0.2,0.6,0.1,0.9c-0.1,0.3-0.3,0.5-0.5,0.7c-0.3,0.3-0.8,0.5-1.3,0.6l0,0l-3.8,0.8l2.7,4.7
		c0.1,0.2,0.2,0.5,0.1,0.8c-0.1,0.3-0.2,0.5-0.5,0.6l0,0L221.7,147C221.8,147,221.7,147,221.7,147L221.7,147L221.7,147z
		 M221.2,146.1C221.2,146.1,221.3,146.1,221.2,146.1c0.1,0,0.1,0,0.1,0l2.8-1.6c0,0,0-0.1,0.1-0.1v-0.1l-3-5.3l0,0
		c0,0,0-0.1-0.1-0.1c-0.1-0.3,0.1-0.5,0.4-0.6l4.4-0.9l0,0c0.4-0.1,0.7-0.2,0.9-0.4c0.1-0.1,0.2-0.2,0.2-0.2c0-0.1,0-0.1,0-0.2
		c-0.1-0.1-0.2-0.2-0.4-0.4l-15.1-10.3l1.4,18.3c0,0.2,0.1,0.4,0.1,0.5s0.1,0.1,0.1,0.1c0.1,0,0.2,0,0.3-0.1
		c0.2-0.1,0.5-0.3,0.8-0.6l3-3.4l0,0l0.1-0.1c0.2-0.1,0.5-0.1,0.7,0.2L221.2,146.1L221.2,146.1L221.2,146.1L221.2,146.1z
		 M221.3,146.1c0.1,0,0.1-0.1,0.2-0.1L221.3,146.1L221.3,146.1z"/>
</g>
<path class="st2" d="M110.7,101.7h99.5c2.9,0,5.3,2.5,5.3,5.6v1.8c0,3.1-2.4,5.6-5.3,5.6h-99.5c-2.9,0-5.3-2.5-5.3-5.6v-1.8
	C105.4,104.2,107.8,101.7,110.7,101.7z"/>
</svg>
