<?xml version="1.0" encoding="utf-8"?>
<!-- Generator: Adobe Illustrator 26.4.1, SVG Export Plug-In . SVG Version: 6.00 Build 0)  -->
<svg version="1.1" id="a" xmlns="http://www.w3.org/2000/svg" xmlns:xlink="http://www.w3.org/1999/xlink" x="0px" y="0px"
	 viewBox="0 0 324.7 208.8" style="enable-background:new 0 0 324.7 208.8;" xml:space="preserve">
<style type="text/css">
	.st0{fill:#FFFFFF;stroke:#BEBED3;stroke-width:2;stroke-miterlimit:10;}
	.st1{fill:#9388ff;stroke:#9388ff;stroke-width:2;stroke-miterlimit:10;}
	.st2{fill:none;stroke:#F2F2F7;stroke-width:3;stroke-miterlimit:10;}
	.st3{fill:#D6D2EE;enable-background:new    ;}
</style>
<path class="st0" d="M56.3,56.7h13.3c2.1,0,3.8,1.7,3.8,3.8v13.3c0,2.1-1.7,3.8-3.8,3.8H56.3c-2.1,0-3.8-1.7-3.8-3.8V60.6
	C52.5,58.5,54.2,56.7,56.3,56.7z"/>
<path class="st0" d="M56.3,96.2h13.3c2.1,0,3.8,1.7,3.8,3.8v13.3c0,2.1-1.7,3.8-3.8,3.8H56.3c-2.1,0-3.8-1.7-3.8-3.8v-13.3
	C52.5,97.9,54.2,96.2,56.3,96.2z"/>
<path class="st1" d="M56.3,136h13.3c2.1,0,3.8,1.7,3.8,3.8v13.3c0,2.1-1.7,3.8-3.8,3.8H56.3c-2.1,0-3.8-1.7-3.8-3.8v-13.3
	C52.5,137.8,54.2,136,56.3,136z"/>
<polyline class="st2" points="56.9,146.4 60.5,150.6 69.6,142.5 "/>
<path class="st3" d="M102.4,61.2h152.4c2.5,0,4.5,2,4.5,4.5v2.9c0,2.5-2,4.5-4.5,4.5H102.4c-2.5,0-4.5-2-4.5-4.5v-2.9
	C97.8,63.3,99.9,61.2,102.4,61.2z"/>
<path class="st3" d="M102.4,100.7h152.4c2.5,0,4.5,2,4.5,4.5v2.9c0,2.5-2,4.5-4.5,4.5H102.4c-2.5,0-4.5-2-4.5-4.5v-2.9
	C97.8,102.8,99.9,100.7,102.4,100.7z"/>
<path class="st3" d="M102.4,140.5h142.4c2.5,0,4.5,2,4.5,4.5v2.9c0,2.5-2,4.5-4.5,4.5H102.4c-2.5,0-4.5-2-4.5-4.5v-2.9
	C97.8,142.6,99.9,140.5,102.4,140.5z"/>
</svg>
