<?xml version="1.0" encoding="UTF-8"?><svg id="a" xmlns="http://www.w3.org/2000/svg" viewBox="0 0 324.66 208.78"><path d="M42.7,94.8v-1.31l10.52-5.36v2.09l-8.07,3.89,.07-.13v.33l-.07-.13,8.07,3.89v2.09l-10.52-5.36Z" style="fill:#84849b;"/><path d="M58.05,102.25v-16.73h2.03v7.45h8.92v-7.45h2.03v16.73h-2.03v-7.48h-8.92v7.48h-2.03Z" style="fill:#84849b;"/><path d="M76.27,87.61c-.38,0-.7-.13-.97-.38s-.4-.56-.4-.92,.13-.67,.4-.92,.59-.38,.97-.38,.7,.13,.97,.38,.4,.56,.4,.92-.13,.67-.4,.92-.59,.38-.97,.38Zm-.98,14.64v-12.55h1.93v12.55h-1.93Z" style="fill:#84849b;"/><path d="M85.97,102.51c-1.05,0-1.97-.27-2.77-.8-.8-.53-1.43-1.28-1.88-2.25-.45-.97-.68-2.12-.68-3.45s.23-2.46,.68-3.43,1.08-1.72,1.89-2.25,1.74-.79,2.79-.79c.82,0,1.46,.13,1.94,.4,.48,.27,.84,.57,1.09,.92s.45,.62,.59,.84h.16v-6.17h1.93v16.73h-1.86v-1.93h-.23c-.14,.23-.34,.52-.6,.86s-.63,.65-1.12,.92c-.48,.27-1.13,.4-1.94,.4Zm.26-1.73c.77,0,1.43-.2,1.96-.61,.53-.41,.94-.97,1.22-1.69,.28-.72,.42-1.56,.42-2.5s-.14-1.76-.41-2.46c-.27-.71-.68-1.25-1.21-1.65-.53-.39-1.19-.59-1.98-.59s-1.5,.21-2.04,.62c-.54,.42-.95,.98-1.22,1.69-.27,.71-.4,1.51-.4,2.39s.14,1.7,.41,2.43,.68,1.3,1.23,1.73c.54,.43,1.22,.64,2.02,.64Z" style="fill:#84849b;"/><path d="M101.25,102.51c-1.21,0-2.25-.27-3.12-.8-.87-.54-1.55-1.29-2.02-2.25-.47-.97-.71-2.09-.71-3.38s.24-2.42,.71-3.4c.47-.98,1.13-1.75,1.98-2.3,.85-.55,1.84-.83,2.97-.83,.65,0,1.3,.11,1.94,.33,.64,.22,1.22,.57,1.74,1.06,.52,.49,.94,1.13,1.25,1.93,.31,.8,.47,1.79,.47,2.96v.82h-9.67v-1.67h7.71c0-.71-.14-1.34-.42-1.89-.28-.56-.68-.99-1.19-1.32-.51-.32-1.12-.48-1.82-.48-.77,0-1.43,.19-1.99,.57s-.99,.87-1.29,1.47c-.3,.6-.45,1.25-.45,1.94v1.11c0,.95,.17,1.75,.49,2.41,.33,.66,.79,1.15,1.38,1.49s1.27,.51,2.05,.51c.51,0,.97-.07,1.38-.22,.41-.14,.77-.36,1.07-.65,.3-.29,.53-.65,.69-1.09l1.86,.52c-.2,.63-.53,1.19-.99,1.66-.46,.48-1.03,.85-1.72,1.11s-1.45,.4-2.3,.4Z" style="fill:#84849b;"/><path d="M73.26,117.3l-4.64,12.55h-1.96l-4.64-12.55h2.09l3.46,10h.13l3.46-10h2.09Z" style="fill:#a1a1b2;"/><path d="M77.27,115.21c-.38,0-.7-.13-.97-.38s-.4-.56-.4-.92,.13-.67,.4-.92,.59-.38,.97-.38,.7,.13,.97,.38,.4,.56,.4,.92-.13,.67-.4,.92-.59,.38-.97,.38Zm-.98,14.64v-12.55h1.93v12.55h-1.93Z" style="fill:#a1a1b2;"/><path d="M87.49,130.11c-1.21,0-2.25-.27-3.12-.8-.87-.54-1.55-1.29-2.02-2.25-.47-.97-.71-2.09-.71-3.38s.24-2.42,.71-3.4c.47-.98,1.13-1.75,1.98-2.3,.85-.55,1.84-.83,2.97-.83,.65,0,1.3,.11,1.94,.33,.64,.22,1.22,.57,1.74,1.06,.52,.49,.94,1.13,1.25,1.93,.31,.8,.47,1.79,.47,2.96v.82h-9.67v-1.67h7.71c0-.71-.14-1.34-.42-1.89-.28-.56-.68-.99-1.19-1.32-.51-.32-1.12-.48-1.82-.48-.77,0-1.43,.19-1.99,.57s-.99,.87-1.29,1.47c-.3,.6-.45,1.25-.45,1.94v1.11c0,.95,.17,1.75,.49,2.41,.33,.66,.79,1.15,1.38,1.49s1.27,.51,2.05,.51c.51,0,.97-.07,1.38-.22,.41-.14,.77-.36,1.07-.65,.3-.29,.53-.65,.69-1.09l1.86,.52c-.2,.63-.53,1.19-.99,1.66-.46,.48-1.03,.85-1.72,1.11s-1.45,.4-2.3,.4Z" style="fill:#a1a1b2;"/><path d="M98.95,129.85l-3.82-12.55h2.03l2.71,9.6h.13l2.68-9.6h2.06l2.65,9.57h.13l2.71-9.57h2.03l-3.82,12.55h-1.9l-2.74-9.64h-.2l-2.74,9.64h-1.9Z" style="fill:#a1a1b2;"/><path d="M115.28,134.55v-17.25h1.86v1.99h.23c.14-.22,.34-.5,.59-.84s.62-.65,1.09-.92c.48-.27,1.12-.4,1.94-.4,1.06,0,1.99,.26,2.79,.79,.81,.53,1.43,1.28,1.89,2.25,.45,.97,.68,2.11,.68,3.43s-.23,2.48-.68,3.45c-.45,.97-1.08,1.72-1.88,2.25-.8,.53-1.72,.8-2.77,.8-.81,0-1.45-.13-1.94-.4-.48-.27-.86-.58-1.12-.92s-.46-.63-.6-.86h-.16v6.63h-1.93Zm1.9-10.98c0,.95,.14,1.78,.42,2.5,.28,.72,.68,1.29,1.22,1.69s1.19,.61,1.96,.61,1.48-.21,2.02-.64c.54-.43,.95-1,1.23-1.73s.41-1.54,.41-2.43-.13-1.68-.4-2.39c-.27-.71-.68-1.27-1.22-1.69-.54-.42-1.22-.62-2.04-.62s-1.44,.2-1.98,.59c-.53,.4-.94,.94-1.21,1.65s-.41,1.53-.41,2.46Z" style="fill:#a1a1b2;"/><path d="M134.87,130.11c-1.13,0-2.12-.27-2.98-.81-.85-.54-1.52-1.29-1.99-2.26s-.71-2.1-.71-3.4,.24-2.45,.71-3.42,1.14-1.73,1.99-2.27c.85-.54,1.84-.81,2.98-.81s2.12,.27,2.98,.81,1.52,1.3,1.99,2.27c.48,.97,.71,2.12,.71,3.42s-.24,2.43-.71,3.4c-.48,.97-1.14,1.72-1.99,2.26s-1.84,.81-2.98,.81Zm0-1.73c.86,0,1.57-.22,2.12-.66s.97-1.02,1.23-1.74c.27-.72,.4-1.5,.4-2.34s-.13-1.62-.4-2.34c-.27-.72-.68-1.31-1.23-1.76-.56-.45-1.26-.67-2.12-.67s-1.57,.22-2.12,.67c-.56,.45-.97,1.03-1.23,1.76-.27,.72-.4,1.51-.4,2.34s.13,1.62,.4,2.34c.27,.72,.68,1.3,1.23,1.74,.56,.44,1.26,.66,2.12,.66Z" style="fill:#a1a1b2;"/><path d="M143.98,129.85v-12.55h1.86v1.9h.13c.23-.62,.64-1.12,1.24-1.51s1.27-.58,2.03-.58c.14,0,.32,0,.53,0s.37,.01,.48,.02v1.96c-.07-.02-.21-.04-.45-.08-.23-.04-.48-.05-.73-.05-.61,0-1.15,.13-1.63,.38-.48,.25-.85,.6-1.13,1.05s-.41,.95-.41,1.52v7.94h-1.93Z" style="fill:#a1a1b2;"/><path d="M158.48,117.3v1.63h-6.5v-1.63h6.5Zm-4.61-3.01h1.93v11.96c0,.54,.08,.95,.24,1.22s.37,.45,.62,.54c.25,.09,.52,.13,.8,.13,.21,0,.39-.01,.52-.04,.14-.02,.25-.04,.33-.06l.39,1.73c-.13,.05-.31,.1-.55,.15-.23,.05-.53,.08-.89,.08-.54,0-1.08-.12-1.6-.35-.52-.23-.95-.59-1.29-1.07s-.51-1.08-.51-1.81v-12.48Z" style="fill:#a1a1b2;"/><path d="M162.65,121.78v-1.76h10.06v1.76h-10.06Zm0,4.84v-1.76h10.06v1.76h-10.06Z" style="fill:#a1a1b2;"/><path d="M179.21,113.12v1.47c0,.45-.08,.92-.24,1.43-.16,.5-.4,.99-.7,1.46-.31,.47-.68,.88-1.11,1.23l-1.05-.85c.34-.49,.64-1,.89-1.53,.25-.53,.38-1.1,.38-1.7v-1.5h1.83Zm4.18,0v1.47c0,.45-.08,.92-.24,1.43-.16,.5-.39,.99-.7,1.46-.31,.47-.68,.88-1.12,1.23l-1.05-.85c.34-.49,.64-1,.89-1.53s.38-1.1,.38-1.7v-1.5h1.83Z" style="fill:#84849b;"/><path d="M187.3,122.4v-1.31l10.52-5.36v2.09l-8.07,3.89,.07-.13v.33l-.07-.13,8.07,3.89v2.09l-10.52-5.36Z" style="fill:#aea1d6;"/><path d="M202.88,129.85l7.48-14.8v-.13h-8.62v-1.8h10.72v1.89l-7.45,14.83h-2.12Z" style="fill:#aea1d6;"/><path d="M221.17,130.08c-.69-.01-1.37-.14-2.06-.39-.69-.25-1.31-.67-1.88-1.27s-1.02-1.4-1.36-2.43c-.34-1.02-.51-2.3-.51-3.85s.14-2.79,.42-3.94c.28-1.15,.68-2.11,1.21-2.9,.53-.79,1.17-1.38,1.92-1.79,.75-.41,1.59-.61,2.54-.61s1.77,.19,2.5,.56,1.33,.89,1.79,1.56c.46,.66,.76,1.43,.9,2.29h-1.99c-.19-.75-.54-1.38-1.08-1.87-.53-.5-1.24-.74-2.12-.74-1.3,0-2.32,.56-3.06,1.69-.74,1.13-1.12,2.71-1.12,4.75h.13c.31-.46,.67-.86,1.09-1.19,.42-.33,.89-.58,1.4-.76s1.05-.27,1.63-.27c.96,0,1.83,.24,2.63,.71s1.43,1.13,1.91,1.97c.48,.84,.72,1.79,.72,2.87s-.23,1.98-.69,2.84c-.46,.86-1.11,1.54-1.95,2.04-.84,.5-1.82,.75-2.94,.74Zm0-1.8c.69,0,1.3-.17,1.85-.51,.55-.34,.98-.8,1.3-1.38s.48-1.22,.48-1.93-.15-1.32-.46-1.89c-.31-.57-.73-1.02-1.27-1.36-.54-.34-1.15-.51-1.83-.51-.52,0-1,.1-1.45,.31-.45,.2-.84,.48-1.17,.84-.33,.35-.6,.76-.79,1.21-.19,.46-.29,.93-.29,1.43,0,.66,.16,1.29,.47,1.86,.31,.58,.74,1.04,1.29,1.4,.55,.35,1.17,.53,1.87,.53Z" style="fill:#aea1d6;"/><path d="M235.8,130.08c-1.12,0-2.11-.2-2.97-.6s-1.53-.95-2.01-1.66c-.48-.71-.72-1.51-.71-2.41,0-.71,.13-1.36,.42-1.96,.28-.6,.67-1.1,1.16-1.51,.49-.41,1.04-.66,1.65-.77v-.1c-.8-.21-1.44-.66-1.91-1.35s-.71-1.48-.7-2.37c0-.85,.21-1.61,.65-2.28s1.04-1.2,1.8-1.58,1.64-.58,2.62-.58,1.83,.19,2.6,.58c.76,.39,1.36,.91,1.8,1.58,.44,.67,.66,1.43,.67,2.28,0,.89-.25,1.68-.72,2.37-.48,.69-1.11,1.15-1.89,1.35v.1c.6,.11,1.15,.37,1.63,.77,.48,.41,.87,.91,1.16,1.51,.29,.6,.44,1.26,.44,1.96,0,.9-.25,1.71-.73,2.41-.48,.71-1.15,1.26-2,1.66s-1.84,.6-2.95,.6Zm0-1.8c.76,0,1.41-.12,1.96-.37,.55-.25,.97-.59,1.27-1.04,.3-.45,.45-.97,.46-1.57,0-.63-.17-1.19-.49-1.67-.32-.48-.76-.87-1.31-1.14-.55-.28-1.18-.42-1.89-.42s-1.35,.14-1.91,.42c-.56,.28-1,.66-1.31,1.14-.32,.48-.48,1.04-.47,1.67,0,.6,.14,1.12,.44,1.57,.3,.45,.72,.79,1.28,1.04,.56,.24,1.21,.37,1.98,.37Zm0-7.94c.6,0,1.13-.12,1.6-.36,.47-.24,.83-.57,1.1-1,.27-.43,.4-.93,.41-1.51,0-.57-.14-1.06-.4-1.48-.26-.42-.62-.75-1.09-.98s-1-.35-1.62-.35-1.17,.12-1.64,.35-.83,.56-1.09,.98c-.26,.42-.38,.92-.38,1.48,0,.58,.12,1.08,.39,1.51s.63,.77,1.1,1c.47,.24,1.01,.36,1.62,.36Z" style="fill:#aea1d6;"/><path d="M246.83,113.12v1.47c0,.45-.08,.92-.24,1.43-.16,.5-.4,.99-.7,1.46-.31,.47-.68,.88-1.11,1.23l-1.05-.85c.34-.49,.64-1,.89-1.53,.25-.53,.38-1.1,.38-1.7v-1.5h1.83Zm4.18,0v1.47c0,.45-.08,.92-.24,1.43-.16,.5-.39,.99-.7,1.46-.31,.47-.68,.88-1.12,1.23l-1.05-.85c.34-.49,.64-1,.89-1.53s.38-1.1,.38-1.7v-1.5h1.83Z" style="fill:#84849b;"/><path d="M257.02,112.34l-5.39,20.03h-1.76l5.39-20.03h1.76Z" style="fill:#84849b;"/><path d="M270.86,123.97l-10.52,5.36v-2.09l8.07-3.89-.07,.13v-.33l.07,.13-8.07-3.89v-2.09l10.52,5.36v1.31Z" style="fill:#84849b;"/></svg>