<?xml version="1.0" encoding="utf-8"?>
<!-- Generator: Adobe Illustrator 26.4.1, SVG Export Plug-In . SVG Version: 6.00 Build 0)  -->
<svg version="1.1" id="a" xmlns="http://www.w3.org/2000/svg" xmlns:xlink="http://www.w3.org/1999/xlink" x="0px" y="0px"
	 viewBox="0 0 324.7 208.8" style="enable-background:new 0 0 324.7 208.8;" xml:space="preserve">
<style type="text/css">
	.st0{fill:#D6D2EE;enable-background:new    ;}
	.st1{fill:#FFFFFF;stroke:#5353C1;stroke-width:2;stroke-miterlimit:10;}
	.st2{fill:#8A8A9E;}
	.st3{fill:none;stroke:#474751;stroke-linecap:round;stroke-linejoin:round;}
	.st4{fill:#6D6D7C;}
	.st5{fill:#C4BFE2;}
</style>
<path class="st0" d="M58.2,76.8h87.4c1.4,0,2.5,1.1,2.5,2.5v10.9c0,1.4-1.1,2.5-2.5,2.5H58.2c-1.4,0-2.5-1.1-2.5-2.5V79.3
	C55.6,78,56.8,76.8,58.2,76.8z"/>
<path class="st1" d="M62.7,102.2h198.3c3.9,0,7.1,3.2,7.1,7.1v23.3c0,3.9-3.2,7.1-7.1,7.1H62.7c-3.9,0-7.1-3.2-7.1-7.1v-23.3
	C55.6,105.3,58.8,102.2,62.7,102.2z"/>
<g>
	<path class="st2" d="M77.4,115.9v11.6H76v-10.2h-0.1l-2.8,1.9v-1.4l2.9-1.9L77.4,115.9L77.4,115.9z"/>
	<path class="st2" d="M81.1,127.5v-1l3.8-4.2c0.4-0.5,0.8-0.9,1.1-1.3s0.5-0.7,0.7-1s0.2-0.7,0.2-1c0-0.4-0.1-0.8-0.3-1.1
		c-0.2-0.3-0.5-0.5-0.8-0.7c-0.3-0.2-0.7-0.2-1.1-0.2c-0.4,0-0.8,0.1-1.2,0.3c-0.3,0.2-0.6,0.4-0.8,0.8c-0.2,0.3-0.3,0.7-0.3,1.2
		h-1.3c0-0.7,0.2-1.3,0.5-1.8c0.3-0.5,0.7-0.9,1.3-1.2c0.5-0.3,1.2-0.4,1.8-0.4s1.3,0.1,1.8,0.4s0.9,0.7,1.2,1.2
		c0.3,0.5,0.4,1,0.4,1.6c0,0.4-0.1,0.8-0.2,1.2c-0.2,0.4-0.4,0.9-0.8,1.4s-0.9,1.1-1.6,1.8l-2.6,2.8v0.1h5.4v1.2L81.1,127.5
		L81.1,127.5z"/>
	<path class="st2" d="M95,127.7c-0.8,0-1.4-0.1-2-0.4s-1.1-0.6-1.4-1.1s-0.5-1-0.6-1.6h1.4c0,0.4,0.2,0.7,0.4,1
		c0.2,0.3,0.5,0.5,0.9,0.6c0.4,0.2,0.8,0.2,1.2,0.2c0.5,0,0.9-0.1,1.3-0.3c0.4-0.2,0.7-0.4,0.9-0.7c0.2-0.3,0.3-0.7,0.3-1.1
		s-0.1-0.8-0.3-1.1c-0.2-0.3-0.5-0.6-0.9-0.8c-0.4-0.2-0.9-0.3-1.5-0.3h-0.9v-1.2h0.9c0.5,0,0.9-0.1,1.2-0.2s0.6-0.4,0.8-0.7
		c0.2-0.3,0.3-0.7,0.3-1.1s-0.1-0.7-0.3-1c-0.2-0.3-0.4-0.5-0.7-0.7s-0.7-0.2-1.1-0.2c-0.4,0-0.8,0.1-1.1,0.2s-0.6,0.4-0.9,0.6
		c-0.2,0.3-0.3,0.6-0.4,1h-1.4c0-0.6,0.2-1.1,0.6-1.6c0.3-0.5,0.8-0.8,1.3-1.1c0.6-0.3,1.2-0.4,1.8-0.4c0.7,0,1.3,0.1,1.8,0.4
		s0.9,0.7,1.2,1.2c0.3,0.5,0.4,1,0.4,1.5c0,0.7-0.2,1.2-0.5,1.7s-0.8,0.8-1.4,1v0.1c0.7,0.1,1.3,0.4,1.7,0.9s0.6,1.1,0.6,1.9
		c0,0.6-0.2,1.2-0.5,1.7c-0.3,0.5-0.8,0.9-1.4,1.2S95.8,127.7,95,127.7L95,127.7z"/>
</g>
<line class="st3" x1="107.1" y1="131.3" x2="107.1" y2="111.3"/>
<path class="st4" d="M132,132.9c0,0.1-0.1,0.2-0.2,0.2h-1.1c-0.7,0-1.3-0.4-1.6-1c-0.3,0.6-0.9,1-1.6,1h-1.1c-0.1,0-0.2-0.1-0.2-0.2
	c0-0.1,0.1-0.2,0.2-0.2h1.1c0.8,0,1.4-0.6,1.4-1.4v-4.1h-2c-0.1,0-0.2-0.1-0.2-0.2s0.1-0.2,0.2-0.2h2V122c0-0.8-0.6-1.4-1.4-1.4
	h-1.1c-0.1,0-0.2-0.1-0.2-0.2s0.1-0.2,0.2-0.2h1.1c0.7,0,1.3,0.4,1.6,1c0.3-0.6,0.9-1,1.6-1h1.1c0.1,0,0.2,0.1,0.2,0.2
	s-0.1,0.2-0.2,0.2h-1.1c-0.8,0-1.4,0.6-1.4,1.4v4.8h2c0.1,0,0.2,0.1,0.2,0.2s-0.1,0.2-0.2,0.2h-2v4.1c0,0.8,0.6,1.4,1.4,1.4h1.1
	C131.9,132.7,132,132.8,132,132.9L132,132.9z"/>
<g>
	<path class="st5" d="M249.3,111.3l-5.1,6.2c-0.2,0.3-0.1,0.8,0.2,0.8h11c0.3,0,0.4-0.5,0.2-0.8l-5.1-6.2
		C250.2,110.9,249.6,110.9,249.3,111.3z"/>
	<path class="st5" d="M250.5,130.6l5.1-6.2c0.2-0.3,0.1-0.8-0.2-0.8h-11c-0.3,0-0.4,0.5-0.2,0.8l5.1,6.2
		C249.6,131,250.2,131,250.5,130.6z"/>
</g>
</svg>
