<?xml version="1.0" encoding="UTF-8"?><svg id="a" xmlns="http://www.w3.org/2000/svg" viewBox="0 0 324.66 208.78"><rect x="54.91" y="76.82" width="92.45" height="16" rx="2.53" ry="2.53" style="fill:#c4bfe2; opacity:.5;"/><rect x="54.91" y="102.18" width="212.5" height="37.51" rx="7.08" ry="7.08" style="fill:#f5f5fc; stroke:#5353c1; stroke-miterlimit:10; stroke-width:2px;"/><g><path d="M72.17,116.6v-1.25h8.73v1.25h-3.66v10.39h-1.41v-10.39h-3.66Z" style="fill:#8a8a9e;"/><path d="M84.09,130.26c-.23,0-.43-.02-.61-.05-.18-.04-.3-.07-.37-.11l.34-1.18c.33,.08,.61,.11,.86,.09s.47-.13,.67-.33c.19-.2,.37-.52,.54-.96l.25-.68-3.23-8.77h1.45l2.41,6.95h.09l2.41-6.95h1.46l-3.71,10c-.17,.45-.37,.82-.62,1.12s-.53,.52-.86,.66c-.32,.14-.69,.22-1.09,.22Z" style="fill:#8a8a9e;"/><path d="M92.47,130.26v-12h1.3v1.39h.16c.1-.15,.24-.35,.41-.58,.18-.24,.43-.45,.76-.64,.33-.19,.78-.28,1.35-.28,.74,0,1.38,.18,1.94,.55s1,.89,1.31,1.56c.31,.67,.47,1.47,.47,2.39s-.16,1.72-.47,2.4c-.31,.68-.75,1.2-1.31,1.57-.56,.37-1.2,.55-1.93,.55-.56,0-1.01-.09-1.35-.28-.34-.19-.6-.4-.78-.64-.18-.24-.32-.44-.42-.6h-.11v4.61h-1.34Zm1.32-7.64c0,.66,.1,1.24,.29,1.74s.48,.89,.85,1.18,.83,.42,1.36,.42,1.03-.15,1.41-.45,.66-.7,.85-1.2,.29-1.07,.29-1.69-.09-1.17-.28-1.66c-.19-.49-.47-.89-.85-1.18s-.85-.43-1.42-.43-1,.14-1.38,.41-.65,.66-.84,1.15-.28,1.06-.28,1.71Z" style="fill:#8a8a9e;"/><path d="M103.24,116.8c-.26,0-.49-.09-.67-.27-.19-.18-.28-.39-.28-.64s.09-.46,.28-.64,.41-.27,.67-.27,.49,.09,.67,.27,.28,.39,.28,.64-.09,.46-.28,.64c-.19,.18-.41,.27-.67,.27Zm-.68,10.18v-8.73h1.34v8.73h-1.34Z" style="fill:#8a8a9e;"/><path d="M108.03,121.73v5.25h-1.34v-8.73h1.3v1.36h.11c.21-.44,.52-.8,.93-1.07,.42-.27,.95-.41,1.61-.41,.59,0,1.11,.12,1.55,.36,.44,.24,.79,.6,1.03,1.09s.37,1.1,.37,1.84v5.55h-1.34v-5.45c0-.69-.18-1.22-.53-1.6-.36-.38-.84-.58-1.47-.58-.43,0-.81,.09-1.14,.28s-.6,.46-.79,.81-.29,.79-.29,1.3Z" style="fill:#8a8a9e;"/><path d="M119.91,130.44c-.65,0-1.21-.08-1.67-.25-.47-.16-.85-.38-1.16-.65-.31-.27-.55-.55-.74-.85l1.07-.75c.12,.16,.27,.34,.46,.55,.19,.21,.44,.39,.76,.54,.32,.15,.75,.23,1.28,.23,.7,0,1.29-.17,1.74-.51,.46-.34,.69-.88,.69-1.6v-1.77h-.11c-.1,.16-.24,.35-.42,.59s-.44,.44-.77,.62c-.34,.18-.79,.27-1.36,.27-.7,0-1.34-.17-1.89-.5-.56-.33-1-.82-1.32-1.45-.32-.64-.49-1.41-.49-2.32s.16-1.67,.47-2.34,.75-1.18,1.31-1.55c.56-.37,1.21-.55,1.94-.55,.57,0,1.02,.09,1.36,.28s.59,.4,.77,.64c.18,.24,.32,.43,.42,.58h.14v-1.39h1.3v8.98c0,.75-.17,1.36-.51,1.83-.34,.47-.79,.82-1.36,1.04-.57,.22-1.2,.33-1.9,.33Zm-.05-4.8c.54,0,.99-.12,1.36-.37,.37-.25,.65-.6,.85-1.06,.19-.46,.29-1.02,.29-1.66s-.09-1.18-.28-1.66c-.19-.48-.47-.86-.84-1.13s-.83-.41-1.38-.41-1.04,.14-1.42,.43c-.38,.29-.66,.67-.85,1.16s-.28,1.02-.28,1.61,.1,1.14,.29,1.61c.19,.46,.48,.83,.85,1.09,.38,.26,.85,.4,1.41,.4Z" style="fill:#8a8a9e;"/><path d="M127.45,127.07c-.28,0-.52-.1-.72-.3-.2-.2-.3-.44-.3-.72s.1-.52,.3-.72c.2-.2,.44-.3,.72-.3s.52,.1,.72,.3c.2,.2,.3,.44,.3,.72,0,.19-.05,.36-.14,.51s-.22,.28-.37,.37-.33,.14-.51,.14Z" style="fill:#8a8a9e;"/><path d="M132.2,127.07c-.28,0-.52-.1-.72-.3-.2-.2-.3-.44-.3-.72s.1-.52,.3-.72c.2-.2,.44-.3,.72-.3s.52,.1,.72,.3c.2,.2,.3,.44,.3,.72,0,.19-.05,.36-.14,.51-.09,.16-.21,.28-.37,.37-.15,.09-.32,.14-.51,.14Z" style="fill:#8a8a9e;"/><path d="M136.94,127.07c-.28,0-.52-.1-.72-.3-.2-.2-.3-.44-.3-.72s.1-.52,.3-.72c.2-.2,.44-.3,.72-.3s.52,.1,.72,.3c.2,.2,.3,.44,.3,.72,0,.19-.05,.36-.14,.51s-.22,.28-.37,.37-.33,.14-.51,.14Z" style="fill:#8a8a9e;"/></g><line x1="147.36" y1="131.32" x2="147.36" y2="111.32" style="fill:none; stroke:#474751; stroke-linecap:round; stroke-linejoin:round;"/><path d="M202.26,132.91c0,.12-.1,.22-.22,.22h-1.12c-.71,0-1.31-.4-1.61-.99-.3,.57-.91,.96-1.6,.96h-1.12c-.12,0-.22-.09-.22-.22,0-.12,.1-.22,.22-.22h1.12c.76,0,1.37-.6,1.38-1.37v-4.07h-1.98c-.12,0-.22-.1-.22-.22s.1-.22,.22-.22h1.98v-4.82c0-.76-.62-1.38-1.38-1.38h-1.12c-.12,0-.22-.1-.22-.22s.1-.22,.22-.22h1.12c.71,0,1.31,.39,1.6,.97,.3-.57,.92-.96,1.61-.96h1.12c.12,0,.22,.1,.22,.22s-.1,.22-.22,.22h-1.12c-.77,0-1.38,.6-1.39,1.37v4.82h1.98c.12,0,.22,.1,.22,.22s-.1,.22-.22,.22h-1.98v4.07c0,.76,.62,1.39,1.39,1.39h1.12c.12,0,.22,.1,.22,.22Z" style="fill:#6d6d7c;"/></svg>