<?xml version="1.0" encoding="utf-8"?>
<!-- Generator: Adobe Illustrator 26.4.1, SVG Export Plug-In . SVG Version: 6.00 Build 0)  -->
<svg version="1.1" id="a" xmlns="http://www.w3.org/2000/svg" xmlns:xlink="http://www.w3.org/1999/xlink" x="0px" y="0px"
	 viewBox="0 0 324.7 208.8" style="enable-background:new 0 0 324.7 208.8;" xml:space="preserve">
<style type="text/css">
	.st0{fill:#FFFFFF;}
	.st1{fill:#ADABD6;}
	.st2{fill:#8580AA;}
</style>
<rect x="92" y="89.8" class="st0" width="60.1" height="29.2"/>
<path class="st1" d="M149.4,86.8H94.3c-2.3,0-4.2,1.9-4.2,4.2v29.4c0,2.3,1.9,3.2,4.2,3.2h55.1c2.3,0,4.2-0.9,4.2-3.2V91
	C153.6,88.7,151.7,86.8,149.4,86.8z M149.4,117.6H94.3c-0.7,0-1.2-0.5-1.2-1.2V91c0-0.7,0.5-1.2,1.2-1.2h55.1c0.7,0,1.2,0.5,1.2,1.2
	v25.4C150.6,117,150,117.6,149.4,117.6z"/>
<path class="st2" d="M115.3,100.8h-3.2c-0.1-0.5-0.3-1-0.5-1.4c-0.2-0.4-0.5-0.8-0.9-1c-0.4-0.3-0.8-0.5-1.2-0.6
	c-0.5-0.1-1-0.2-1.5-0.2c-0.9,0-1.8,0.2-2.5,0.7s-1.3,1.2-1.7,2.1s-0.6,2-0.6,3.3c0,1.3,0.2,2.5,0.6,3.4c0.4,0.9,1,1.6,1.7,2.1
	c0.7,0.5,1.6,0.7,2.5,0.7c0.5,0,1-0.1,1.5-0.2s0.9-0.3,1.2-0.6s0.7-0.6,0.9-1c0.3-0.4,0.4-0.8,0.5-1.4l3.2,0
	c-0.1,0.8-0.4,1.6-0.8,2.3c-0.4,0.7-0.9,1.4-1.5,1.9c-0.6,0.6-1.4,1-2.2,1.3c-0.8,0.3-1.8,0.5-2.8,0.5c-1.5,0-2.9-0.4-4.1-1.1
	c-1.2-0.7-2.1-1.7-2.8-3.1c-0.7-1.3-1-2.9-1-4.8c0-1.9,0.4-3.5,1.1-4.8c0.7-1.3,1.7-2.4,2.9-3.1c1.2-0.7,2.6-1.1,4.1-1.1
	c1,0,1.9,0.1,2.7,0.4c0.8,0.3,1.6,0.7,2.2,1.2c0.6,0.5,1.2,1.2,1.6,1.9C114.9,99,115.1,99.9,115.3,100.8L115.3,100.8z"/>
<path class="st2" d="M124.6,99.3v2.4h-7.5v-2.4H124.6z M118.9,96.2h3.1v12.3c0,0.4,0.1,0.7,0.2,1s0.3,0.4,0.5,0.4
	c0.2,0.1,0.4,0.1,0.7,0.1c0.2,0,0.4,0,0.5,0s0.3-0.1,0.4-0.1l0.5,2.4c-0.2,0.1-0.4,0.1-0.7,0.2s-0.7,0.1-1.1,0.1
	c-0.8,0-1.5-0.1-2.1-0.4c-0.6-0.3-1.1-0.7-1.5-1.2c-0.4-0.5-0.5-1.2-0.5-2L118.9,96.2L118.9,96.2z"/>
<path class="st2" d="M127.2,112.4V99.3h3v2.2h0.1c0.2-0.8,0.6-1.3,1.2-1.7c0.6-0.4,1.3-0.6,2-0.6c0.2,0,0.4,0,0.6,0
	c0.2,0,0.4,0,0.5,0.1v2.8c-0.1,0-0.3-0.1-0.6-0.1c-0.3,0-0.6-0.1-0.8-0.1c-0.6,0-1.1,0.1-1.5,0.4s-0.8,0.6-1.1,1
	c-0.3,0.4-0.4,0.9-0.4,1.5v7.7L127.2,112.4L127.2,112.4z"/>
<path class="st2" d="M139.8,94.9v17.4h-3.1V94.9H139.8z"/>
<path class="st2" d="M164.8,105.1v-2.1h12.1v2.1H164.8z M169.8,110.1V98.1h2.1v12.1H169.8z"/>
<rect x="189.7" y="88.5" class="st0" width="33.3" height="30.5"/>
<path class="st1" d="M220.4,86.8h-28.1c-2.3,0-4.2,1.9-4.2,4.2v29.4c0,2.3,1.9,3.2,4.2,3.2h28.1c2.3,0,4.2-0.9,4.2-3.2V91
	C224.6,88.7,222.7,86.8,220.4,86.8z M220.4,117.6h-28.1c-0.6,0-1.2-0.5-1.2-1.2V91c0-0.7,0.5-1.2,1.2-1.2h28.1
	c0.7,0,1.2,0.5,1.2,1.2v25.4C221.6,117,221,117.6,220.4,117.6z"/>
<path class="st2" d="M200.8,112.3V95.1h6.4c1.3,0,2.4,0.2,3.3,0.7c0.9,0.5,1.6,1.2,2,2c0.5,0.9,0.7,1.8,0.7,2.9
	c0,1.1-0.2,2.1-0.7,2.9c-0.5,0.9-1.1,1.5-2.1,2c-0.9,0.5-2,0.7-3.3,0.7h-4.3v-2.6h3.9c0.8,0,1.4-0.1,1.9-0.4
	c0.5-0.3,0.9-0.6,1.1-1.1c0.2-0.5,0.4-1,0.4-1.6c0-0.6-0.1-1.1-0.4-1.6c-0.2-0.5-0.6-0.8-1.1-1.1c-0.5-0.3-1.1-0.4-1.9-0.4h-2.8
	v14.6L200.8,112.3L200.8,112.3z"/>
</svg>
