<?xml version="1.0" encoding="utf-8"?>
<!-- Generator: Adobe Illustrator 26.4.1, SVG Export Plug-In . SVG Version: 6.00 Build 0)  -->
<svg version="1.1" id="a" xmlns="http://www.w3.org/2000/svg" xmlns:xlink="http://www.w3.org/1999/xlink" x="0px" y="0px"
	 viewBox="0 0 324.7 208.8" style="enable-background:new 0 0 324.7 208.8;" xml:space="preserve">
<style type="text/css">
	.st0{fill:#FFFFFF;}
	.st1{fill:#857DAA;}
	.st2{fill:#524E63;}
</style>
<rect x="94.9" y="89.8" class="st0" width="60.1" height="29.2"/>
<path class="st1" d="M152.2,86.8H97.1c-2.3,0-4.2,1.9-4.2,4.2v29.4c0,2.3,1.9,3.2,4.2,3.2h55.1c2.3,0,4.2-0.9,4.2-3.2V91
	C156.4,88.7,154.5,86.8,152.2,86.8z M152.2,117.6H97.1c-0.7,0-1.2-0.5-1.2-1.2V91c0-0.7,0.5-1.2,1.2-1.2h55.1c0.7,0,1.2,0.5,1.2,1.2
	v25.4C153.4,117,152.9,117.6,152.2,117.6z"/>
<g>
	<path class="st1" d="M117.9,100.7h-3.3c-0.1-0.6-0.3-1-0.5-1.5s-0.6-0.8-1-1.1c-0.4-0.3-0.8-0.5-1.3-0.7c-0.5-0.2-1-0.2-1.6-0.2
		c-1,0-1.9,0.2-2.6,0.8s-1.4,1.2-1.8,2.2s-0.7,2.1-0.7,3.5s0.2,2.6,0.7,3.5c0.4,1,1,1.7,1.8,2.2s1.6,0.7,2.6,0.7
		c0.6,0,1.1-0.1,1.5-0.2s0.9-0.4,1.3-0.7s0.7-0.6,1-1.1c0.3-0.4,0.4-0.9,0.6-1.4l3.3,0c-0.1,0.9-0.4,1.7-0.8,2.4s-0.9,1.4-1.6,2
		s-1.4,1-2.3,1.4s-1.9,0.5-3,0.5c-1.6,0-3-0.4-4.3-1.1c-1.3-0.7-2.2-1.8-3-3.2s-1.1-3.1-1.1-5.1s0.4-3.7,1.1-5.1
		c0.7-1.4,1.7-2.5,3-3.2c1.3-0.7,2.7-1.1,4.3-1.1c1,0,2,0.1,2.8,0.4s1.7,0.7,2.3,1.2c0.7,0.6,1.2,1.2,1.7,2
		C117.5,98.8,117.8,99.7,117.9,100.7L117.9,100.7z"/>
	<path class="st1" d="M127.7,99.1v2.5h-7.9v-2.5H127.7z M121.7,95.8h3.2v12.9c0,0.4,0.1,0.8,0.2,1s0.3,0.4,0.5,0.5s0.5,0.1,0.7,0.1
		c0.2,0,0.4,0,0.6,0s0.3-0.1,0.4-0.1l0.5,2.5c-0.2,0.1-0.4,0.1-0.7,0.2s-0.7,0.1-1.2,0.1c-0.8,0-1.5-0.1-2.2-0.4
		c-0.7-0.3-1.2-0.7-1.5-1.3s-0.6-1.3-0.6-2.1L121.7,95.8L121.7,95.8z"/>
	<path class="st1" d="M130.4,112.8V99.1h3.1v2.3h0.1c0.2-0.8,0.7-1.4,1.3-1.8s1.3-0.7,2.1-0.7c0.2,0,0.4,0,0.6,0
		c0.2,0,0.4,0,0.6,0.1v3c-0.1-0.1-0.4-0.1-0.6-0.1c-0.3,0-0.6-0.1-0.9-0.1c-0.6,0-1.1,0.1-1.6,0.4s-0.8,0.6-1.1,1.1s-0.4,1-0.4,1.5
		v8.1L130.4,112.8L130.4,112.8z"/>
	<path class="st1" d="M143.6,94.5v18.3h-3.2V94.5H143.6z"/>
</g>
<rect x="184.5" y="88.5" class="st0" width="33.3" height="30.5"/>
<path class="st1" d="M215.2,86.8h-28.1c-2.3,0-4.2,1.9-4.2,4.2v29.4c0,2.3,1.9,3.2,4.2,3.2h28.1c2.3,0,4.2-0.9,4.2-3.2V91
	C219.4,88.7,217.5,86.8,215.2,86.8z M215.2,117.6h-28.1c-0.6,0-1.2-0.5-1.2-1.2V91c0-0.7,0.5-1.2,1.2-1.2h28.1
	c0.7,0,1.2,0.5,1.2,1.2v25.4C216.4,117,215.9,117.6,215.2,117.6z"/>
<path class="st2" d="M164.1,105.2V103h12.7v2.2H164.1z M169.4,110.5V97.7h2.2v12.7H169.4z"/>
<path class="st1" d="M195.3,112.8V94.5h6.9c1.4,0,2.6,0.3,3.5,0.8s1.7,1.2,2.2,2.2c0.5,0.9,0.7,1.9,0.7,3.1s-0.2,2.2-0.7,3.1
	s-1.2,1.6-2.2,2.2c-1,0.5-2.1,0.8-3.6,0.8h-4.5v-2.7h4.1c0.8,0,1.5-0.1,2-0.4c0.5-0.3,0.9-0.7,1.2-1.2c0.2-0.5,0.4-1.1,0.4-1.7
	s-0.1-1.2-0.4-1.7s-0.6-0.9-1.2-1.2c-0.5-0.3-1.2-0.4-2-0.4h-3v15.5L195.3,112.8L195.3,112.8z"/>
</svg>
