<?xml version="1.0" encoding="utf-8"?>
<!-- Generator: Adobe Illustrator 26.4.1, SVG Export Plug-In . SVG Version: 6.00 Build 0)  -->
<svg version="1.1" id="a" xmlns="http://www.w3.org/2000/svg" xmlns:xlink="http://www.w3.org/1999/xlink" x="0px" y="0px"
	 viewBox="0 0 324.7 208.8" style="enable-background:new 0 0 324.7 208.8;" xml:space="preserve">
<style type="text/css">
	.st0{opacity:0.8;fill:#FFFFFF;}
	.st1{fill:#8580AA;}
	.st2{fill:none;stroke:#ADABD6;stroke-width:3;stroke-miterlimit:10;}
</style>
<rect x="94.4" y="95.7" class="st0" width="59" height="28.7"/>
<path class="st1" d="M150.7,92.8H96.6c-2.3,0-4.1,1.8-4.1,4.1v28.9c0,2.3,1.8,4.1,4.1,4.1h54.1c2.3,0,4.1-1.9,4.1-4.1V96.9
	C154.8,94.6,153,92.8,150.7,92.8z M150.7,123H96.6c-0.6,0-1.2-0.5-1.2-1.2v-25c0-0.6,0.5-1.2,1.2-1.2h54.1c0.6,0,1.2,0.5,1.2,1.2v25
	C151.9,122.5,151.3,123,150.7,123z"/>
<path class="st1" d="M117.2,106.6h-3.1c-0.1-0.5-0.3-1-0.5-1.4c-0.2-0.4-0.5-0.7-0.9-1c-0.4-0.3-0.8-0.5-1.2-0.6
	c-0.5-0.1-0.9-0.2-1.5-0.2c-0.9,0-1.8,0.2-2.5,0.7c-0.7,0.5-1.3,1.1-1.7,2c-0.4,0.9-0.6,2-0.6,3.3s0.2,2.4,0.6,3.3
	c0.4,0.9,1,1.6,1.7,2c0.7,0.5,1.5,0.7,2.5,0.7c0.5,0,1-0.1,1.4-0.2s0.9-0.3,1.2-0.6c0.4-0.3,0.7-0.6,0.9-1c0.3-0.4,0.4-0.8,0.5-1.3
	l3.1,0c-0.1,0.8-0.4,1.6-0.8,2.3c-0.4,0.7-0.9,1.3-1.5,1.9s-1.4,1-2.2,1.3c-0.8,0.3-1.8,0.5-2.8,0.5c-1.5,0-2.9-0.3-4-1.1
	c-1.2-0.7-2.1-1.7-2.8-3c-0.7-1.3-1-2.9-1-4.7c0-1.8,0.3-3.4,1-4.7c0.7-1.3,1.6-2.3,2.8-3c1.2-0.7,2.5-1.1,4-1.1
	c1,0,1.8,0.1,2.7,0.4c0.8,0.3,1.5,0.7,2.2,1.2c0.6,0.5,1.2,1.1,1.6,1.9C116.8,104.8,117.1,105.6,117.2,106.6L117.2,106.6z"/>
<path class="st1" d="M126.3,105.1v2.3H119v-2.3H126.3z M120.8,102h3v12.1c0,0.4,0.1,0.7,0.2,0.9s0.3,0.4,0.5,0.4s0.4,0.1,0.7,0.1
	c0.2,0,0.4,0,0.5,0s0.3-0.1,0.4-0.1l0.5,2.4c-0.2,0.1-0.4,0.1-0.7,0.2c-0.3,0.1-0.7,0.1-1.1,0.1c-0.8,0-1.4-0.1-2.1-0.3
	c-0.6-0.3-1.1-0.6-1.4-1.2c-0.4-0.5-0.5-1.2-0.5-2L120.8,102L120.8,102z"/>
<path class="st1" d="M128.9,117.9v-12.9h2.9v2.1h0.1c0.2-0.7,0.6-1.3,1.2-1.7c0.6-0.4,1.2-0.6,2-0.6c0.2,0,0.4,0,0.6,0
	c0.2,0,0.4,0,0.5,0.1v2.8c-0.1,0-0.3-0.1-0.6-0.1c-0.3,0-0.5-0.1-0.8-0.1c-0.6,0-1.1,0.1-1.5,0.4s-0.8,0.6-1,1s-0.4,0.9-0.4,1.4v7.6
	L128.9,117.9L128.9,117.9z"/>
<path class="st1" d="M141.3,100.8v17.1h-3v-17.1H141.3z"/>
<path class="st1" d="M165.8,110.8v-2h11.9v2H165.8z M170.8,115.7v-11.9h2v11.9H170.8z"/>
<rect x="190.3" y="94.4" class="st0" width="32.7" height="29.9"/>
<path class="st1" d="M220.5,92.8h-27.6c-2.3,0-4.1,1.8-4.1,4.1v28.9c0,2.3,1.8,4.1,4.1,4.1h27.6c2.3,0,4.1-1.9,4.1-4.1V96.9
	C224.6,94.6,222.7,92.8,220.5,92.8z M220.5,123h-27.6c-0.6,0-1.2-0.5-1.2-1.2v-25c0-0.6,0.5-1.2,1.2-1.2h27.6c0.6,0,1.2,0.5,1.2,1.2
	v25C221.6,122.5,221.1,123,220.5,123z"/>
<path class="st1" d="M201.2,117.8v-16.9h6.3c1.3,0,2.4,0.2,3.3,0.7c0.9,0.5,1.6,1.1,2,2c0.5,0.8,0.7,1.8,0.7,2.9s-0.2,2-0.7,2.9
	c-0.5,0.8-1.1,1.5-2,2c-0.9,0.5-2,0.7-3.3,0.7h-4.2v-2.5h3.8c0.8,0,1.4-0.1,1.9-0.4c0.5-0.3,0.8-0.6,1.1-1.1c0.2-0.5,0.4-1,0.4-1.6
	c0-0.6-0.1-1.1-0.4-1.6s-0.6-0.8-1.1-1.1c-0.5-0.3-1.1-0.4-1.9-0.4h-2.8v14.3L201.2,117.8L201.2,117.8z"/>
<path class="st2" d="M150.7,124.4H96.5c-1.4,0-2.6-1.1-2.6-2.6V97c0-1.4,1.1-2.6,2.6-2.6h54.2c1.4,0,2.6,1.1,2.6,2.6v24.9
	C153.3,123.3,152.1,124.4,150.7,124.4z"/>
<path class="st2" d="M220.7,124.4h-27.9c-1.4,0-2.6-1.1-2.6-2.6V97c0-1.4,1.1-2.6,2.6-2.6h27.9c1.4,0,2.6,1.1,2.6,2.6v24.9
	C223.3,123.3,222.1,124.4,220.7,124.4z"/>
</svg>
