<?xml version="1.0" encoding="utf-8"?>
<!-- Generator: Adobe Illustrator 26.4.1, SVG Export Plug-In . SVG Version: 6.00 Build 0)  -->
<svg version="1.1" id="a" xmlns="http://www.w3.org/2000/svg" xmlns:xlink="http://www.w3.org/1999/xlink" x="0px" y="0px"
	 viewBox="0 0 324.7 208.8" style="enable-background:new 0 0 324.7 208.8;" xml:space="preserve">
<style type="text/css">
	.st0{fill:#A69FF4;}
	.st1{fill:#FFFFFF;}
	.st2{fill:#A69FF4;stroke:#FFFFFF;stroke-width:2;stroke-miterlimit:10;}
	.st3{fill:none;stroke:#FFFFFF;stroke-width:2;stroke-linecap:round;stroke-linejoin:round;stroke-miterlimit:10;}
</style>
<path class="st0" d="M47.3,101.7h230.1c4.7,0,8.5,3.8,8.5,8.5v1.9c0,4.7-3.8,8.5-8.5,8.5H47.3c-4.7,0-8.5-3.8-8.5-8.5v-1.9
	C38.8,105.5,42.6,101.7,47.3,101.7z"/>
<g>
	<path class="st1" d="M241.7,127.4c-0.1,0.3-0.3,0.5-0.5,0.7c-0.3,0.3-0.8,0.5-1.3,0.6c0,0,0,0,0,0l-3.7,0.8l2.6,4.6
		c0.1,0.2,0.2,0.5,0.1,0.8c-0.1,0.2-0.2,0.5-0.5,0.6c0,0,0,0,0,0l-2.7,1.6c0,0,0,0-0.1,0c-0.2,0.1-0.5,0.1-0.7,0.1
		c-0.3-0.1-0.5-0.2-0.6-0.5l-2.7-4.6l-2.5,2.9c-0.3,0.4-0.7,0.7-1.1,0.9c-0.3,0.1-0.6,0.1-0.9,0.1c-0.3-0.1-0.6-0.2-0.7-0.5
		c-0.1-0.2-0.2-0.5-0.3-1l-1.4-18.5v0c0-0.1,0-0.2,0.1-0.3c0-0.1,0.1-0.2,0.2-0.3c0,0,0.1-0.1,0.1-0.1c0.1,0,0.2,0,0.3,0
		c0.1,0,0.2,0,0.3,0.1c0,0,0.1,0,0.1,0l15.2,10.4c0.3,0.2,0.6,0.5,0.7,0.7C241.8,126.8,241.8,127.1,241.7,127.4L241.7,127.4z"/>
	<path d="M235.6,137.1c-0.2,0.1-0.5,0.1-0.7,0.1c-0.3-0.1-0.5-0.2-0.6-0.5l-2.7-4.6l-2.5,2.9c-0.4,0.4-0.8,0.7-1.1,0.9
		c-0.3,0.1-0.6,0.2-0.9,0.1c-0.3-0.1-0.6-0.2-0.8-0.5c-0.2-0.2-0.3-0.6-0.3-1l-1.4-18.5c0,0,0,0,0,0c0-0.1,0-0.2,0.1-0.3
		c0.1-0.1,0.1-0.2,0.2-0.3c0,0,0.1-0.1,0.2-0.1c0.1,0,0.2,0,0.3,0c0.1,0,0.2,0,0.3,0.1c0,0,0.1,0,0.1,0.1l15.2,10.4
		c0.3,0.2,0.6,0.5,0.7,0.7c0.2,0.3,0.2,0.6,0.1,0.9c-0.1,0.3-0.3,0.5-0.5,0.7c-0.3,0.3-0.8,0.5-1.3,0.6c0,0,0,0,0,0l-3.7,0.8
		l2.6,4.6c0.1,0.2,0.2,0.5,0.1,0.8c-0.1,0.3-0.2,0.5-0.5,0.6c0,0,0,0,0,0L235.6,137.1C235.6,137,235.6,137.1,235.6,137.1
		L235.6,137.1L235.6,137.1z M235.1,136.2C235.1,136.2,235.1,136.2,235.1,136.2c0.1,0,0.1,0,0.1,0l2.7-1.6c0,0,0,0,0.1-0.1
		c0,0,0,0,0-0.1l-3-5.2l0,0c0,0,0-0.1-0.1-0.1c-0.1-0.3,0.1-0.5,0.4-0.6l4.4-0.9c0,0,0,0,0,0c0.4-0.1,0.7-0.2,0.9-0.4
		c0.1-0.1,0.2-0.2,0.2-0.2c0,0,0-0.1,0-0.2c-0.1-0.1-0.2-0.2-0.4-0.4l-14.8-10.2l1.4,18c0,0.2,0.1,0.4,0.1,0.5
		c0,0.1,0.1,0.1,0.1,0.1c0.1,0,0.2,0,0.3-0.1c0.2-0.1,0.5-0.3,0.8-0.6l3-3.4l0,0c0,0,0.1-0.1,0.1-0.1c0.2-0.1,0.5-0.1,0.7,0.2
		L235.1,136.2C235,136.2,235,136.2,235.1,136.2L235.1,136.2L235.1,136.2z M235.2,136.2c0.1,0,0.1,0,0.2,0L235.2,136.2L235.2,136.2z"
		/>
</g>
<g>
	<ellipse class="st2" cx="55.2" cy="111.1" rx="5.8" ry="3.8"/>
	<ellipse class="st2" cx="68.2" cy="111.1" rx="5.8" ry="3.8"/>
	<path class="st3" d="M65.5,111.1h-7.7H65.5z"/>
</g>
</svg>
