<?xml version="1.0" encoding="UTF-8"?><svg id="a" xmlns="http://www.w3.org/2000/svg" viewBox="0 0 324.66 208.78"><rect x="57.14" y="101.5" width="221.85" height="16.98" rx="7.65" ry="7.65" style="fill:#aea1d6;"/><g><path d="M233.56,124.55c-.08,.25-.25,.46-.47,.63-.29,.24-.71,.42-1.18,.51,0,.01-.01,.01-.01,.01l-3.34,.69,2.37,4.16c.12,.21,.15,.47,.09,.71-.07,.22-.2,.44-.41,.57-.01,0-.02,.01-.03,.01l-2.46,1.43s-.03,.02-.06,.03c-.21,.1-.45,.11-.66,.06-.24-.07-.45-.21-.57-.43l-2.4-4.14-2.27,2.56c-.31,.36-.67,.63-1.02,.78-.27,.1-.54,.13-.78,.09-.27-.06-.5-.21-.67-.49-.13-.21-.22-.49-.26-.86l-1.27-16.57v-.03c0-.1,.01-.2,.06-.3,.04-.1,.12-.2,.22-.27,.04-.03,.09-.06,.13-.07,.09-.03,.19-.04,.29-.03,.09,.01,.18,.04,.26,.09,.03,.01,.06,.02,.08,.04l13.65,9.37c.3,.21,.5,.43,.62,.65,.16,.29,.17,.57,.09,.83Z" style="fill:#fff;"/><path d="M228.06,133.28c-.22,.1-.45,.12-.67,.06-.23-.06-.44-.21-.57-.43l-2.39-4.14-2.27,2.56c-.32,.36-.68,.63-1.02,.77-.27,.11-.53,.14-.78,.09-.27-.06-.5-.21-.68-.49-.14-.21-.23-.5-.25-.87l-1.27-16.57s0-.03,0-.04c0-.1,.02-.2,.06-.3,.05-.11,.12-.2,.22-.27,.04-.03,.09-.05,.14-.07,.09-.03,.19-.04,.29-.03,.09,0,.18,.04,.26,.08,.03,.01,.05,.03,.08,.05l13.64,9.37c.3,.21,.5,.43,.62,.65,.15,.28,.17,.56,.08,.83-.08,.24-.24,.45-.47,.63-.29,.23-.71,.41-1.17,.51,0,0-.01,0-.02,0l-3.33,.69,2.37,4.15c.13,.22,.15,.47,.09,.71-.06,.23-.2,.44-.42,.57,0,0-.02,.01-.03,.02l-2.47,1.43s-.03,.02-.05,.03h0Zm-.45-.78s.05,0,.07,0c0,0,.02,0,.03-.01l2.43-1.41s.04-.04,.05-.07c0-.02,0-.04,0-.05l-2.67-4.67h0s-.04-.08-.05-.13c-.05-.23,.1-.46,.34-.51l3.92-.81s0,0,.02,0c.34-.07,.62-.19,.81-.34,.09-.07,.16-.15,.18-.22,.01-.04,0-.1-.02-.16-.05-.1-.17-.22-.35-.34l-13.31-9.14,1.24,16.13c.02,.22,.06,.37,.12,.47,.04,.06,.08,.09,.12,.1,.07,.02,.17,0,.28-.05,.22-.09,.47-.28,.7-.54l2.67-3.01h0s.07-.06,.11-.09c.21-.12,.47-.05,.59,.16l2.69,4.65s.02,.02,.05,.03h0Zm.09-.01c.06-.03,.12-.04,.19-.04l-.19,.04h0Z"/></g><path d="M88.31,110.25c.03,1.25-.68,2-.8,2.24l-.26,.29c-.54,.65-1.65,1.09-2.59,1.1h-4.15c-1.59,0-3.03-1.05-3.51-2.56h0c-.31,.97-.81,1.34-.88,1.47-.54,.65-1.65,1.09-2.59,1.1h-4.15c-2.01,0-3.67-1.63-3.68-3.64,.08-1.09,.3-1.85,1.08-2.63,.68-.68,1.59-1.07,2.56-1.08h4.22c1.1,.06,1.44,.28,2.21,.8l.29,.26,.89,1.4s.02,.07,.03,.1h0c.48-1.5,1.88-2.56,3.47-2.56h4.14c.97,0,1.9,.39,2.58,1.06,.64,.54,1.09,1.65,1.1,2.59v.08h0Zm-8.35,1.07h-.86s.06,.08,.06,.08h0s.06,.07,.06,.07h0s.02,.02,.02,.02h0c.23,.23,.52,.4,.85,.48,.06,.02,.13,.03,.2,.04h0c.06,0,.13,.01,.2,.01h.03s4.11,0,4.11,0c.35,0,.67-.1,.95-.28,.06-.04,.11-.07,.16-.11,.05-.04,.1-.08,.15-.13h0s.01-.02,.01-.02c.23-.23,.4-.52,.48-.85,.02-.06,.03-.13,.03-.19h0c0-.07,.01-.14,.01-.21h0s0-.02,0-.02v-.02c0-.34-.11-.66-.28-.94h0c-.04-.06-.07-.11-.11-.16-.04-.05-.08-.1-.13-.15h0s-.01-.02-.01-.02c-.23-.23-.52-.4-.85-.48-.06-.02-.13-.03-.19-.04h0c-.07,0-.14-.01-.21-.01h-.03s-4.11,0-4.11,0c-.35,0-.67,.1-.95,.28h0c-.06,.04-.11,.07-.16,.11-.05,.04-.1,.08-.15,.13l-.02,.02h0s0,0,0,0c-.05,.05-.1,.1-.14,.16h.84s.02,0,.02,0h.03s0,0,0,0c.29,.01,.56,.13,.75,.33,.19,.19,.32,.46,.33,.76h0s0,.02,0,.02h0s0,0,0,0h0s0,0,0,0h0c0,.44-.25,.81-.61,.99-.07,.04-.15,.07-.23,.09-.08,.02-.16,.03-.24,.04h0s0,0,0,0h0s-.02,0-.02,0h0Zm-6.76-1.11h0c0,.47,.39,.86,.86,.86h1.32c-.1,.22-.24,.42-.42,.59-.38,.38-.89,.61-1.46,.61h-4.11c-.57,0-1.08-.23-1.46-.6-.37-.37-.6-.87-.61-1.42v-.03c0-.57,.23-1.08,.61-1.46,.37-.37,.88-.6,1.44-.61h.02s4.07,0,4.07,0h.05c.57,0,1.08,.23,1.46,.61,.17,.17,.32,.37,.42,.6h-1.32c-.47,0-.86,.39-.86,.86h0Z" style="fill:#f8f3ff; fill-rule:evenodd; stroke:#bf9afd; stroke-miterlimit:10; stroke-width:.25px;"/></svg>