<?xml version="1.0" encoding="utf-8"?>
<!-- Generator: Adobe Illustrator 26.4.1, SVG Export Plug-In . SVG Version: 6.00 Build 0)  -->
<svg version="1.1" id="a" xmlns="http://www.w3.org/2000/svg" xmlns:xlink="http://www.w3.org/1999/xlink" x="0px" y="0px"
	 viewBox="0 0 324.7 208.8" style="enable-background:new 0 0 324.7 208.8;" xml:space="preserve">
<style type="text/css">
	.st0{fill:#A69FF4;}
	.st1{fill-rule:evenodd;clip-rule:evenodd;fill:#F8F3FF;stroke:#9388ff;stroke-width:0.25;stroke-miterlimit:10;}
	.st2{fill:#FFFFFF;}
</style>
<path class="st0" d="M47.3,99.7h230.1c4.7,0,8.5,3.8,8.5,8.5v1.9c0,4.7-3.8,8.5-8.5,8.5H47.3c-4.7,0-8.5-3.8-8.5-8.5v-1.9
	C38.8,103.5,42.6,99.7,47.3,99.7z"/>
<path class="st1" d="M73.5,109.4c0,1.4-0.8,2.2-0.9,2.5l-0.3,0.3c-0.6,0.7-1.8,1.2-2.9,1.2h-4.6c-1.8,0-3.4-1.2-3.9-2.9l0,0
	c-0.3,1.1-0.9,1.5-1,1.6c-0.6,0.7-1.8,1.2-2.9,1.2h-4.6c-2.2,0-4.1-1.8-4.1-4.1c0.1-1.2,0.3-2.1,1.2-2.9c0.8-0.8,1.8-1.2,2.9-1.2H57
	c1.2,0.1,1.6,0.3,2.5,0.9l0.3,0.3l1,1.6c0,0,0,0.1,0,0.1l0,0c0.5-1.7,2.1-2.9,3.9-2.9h4.6c1.1,0,2.1,0.4,2.9,1.2
	C72.9,107.1,73.4,108.3,73.5,109.4L73.5,109.4L73.5,109.4L73.5,109.4z M64.2,110.6h-1l0.1,0.1l0,0l0.1,0.1l0,0l0,0l0,0
	c0.3,0.3,0.6,0.4,0.9,0.5c0.1,0,0.1,0,0.2,0l0,0c0.1,0,0.1,0,0.2,0h0h4.6c0.4,0,0.7-0.1,1.1-0.3c0.1,0,0.1-0.1,0.2-0.1
	c0.1,0,0.1-0.1,0.2-0.1l0,0l0,0c0.3-0.3,0.4-0.6,0.5-0.9c0-0.1,0-0.1,0-0.2l0,0c0-0.1,0-0.2,0-0.2l0,0v0v0c0-0.4-0.1-0.7-0.3-1l0,0
	c0-0.1-0.1-0.1-0.1-0.2c0-0.1-0.1-0.1-0.1-0.2l0,0l0,0c-0.3-0.3-0.6-0.4-0.9-0.5c-0.1,0-0.1,0-0.2,0l0,0c-0.1,0-0.2,0-0.2,0h0h-4.6
	c-0.4,0-0.7,0.1-1.1,0.3l0,0c-0.1,0-0.1,0.1-0.2,0.1s-0.1,0.1-0.2,0.1l0,0l0,0l0,0c-0.1,0.1-0.1,0.1-0.2,0.2h0.9h0h0l0,0
	c0.3,0,0.6,0.1,0.8,0.4c0.2,0.2,0.4,0.5,0.4,0.8l0,0v0l0,0l0,0l0,0l0,0l0,0c0,0.5-0.3,0.9-0.7,1.1c-0.1,0-0.2,0.1-0.3,0.1
	S64.3,110.6,64.2,110.6L64.2,110.6L64.2,110.6L64.2,110.6L64.2,110.6L64.2,110.6L64.2,110.6z M56.6,109.4L56.6,109.4
	c0,0.5,0.4,1,1,1h1.5c-0.1,0.2-0.3,0.5-0.5,0.7c-0.4,0.4-1,0.7-1.6,0.7h-4.6c-0.6,0-1.2-0.3-1.6-0.7c-0.4-0.4-0.7-1-0.7-1.6v0
	c0-0.6,0.3-1.2,0.7-1.6c0.4-0.4,1-0.7,1.6-0.7h0h4.5H57c0.6,0,1.2,0.3,1.6,0.7c0.2,0.2,0.4,0.4,0.5,0.7h-1.5
	C57.1,108.4,56.7,108.9,56.6,109.4L56.6,109.4L56.6,109.4z"/>
<g>
	<path class="st2" d="M241.7,125.4c-0.1,0.3-0.3,0.5-0.5,0.7c-0.3,0.3-0.8,0.5-1.3,0.6c0,0,0,0,0,0l-3.7,0.8l2.6,4.6
		c0.1,0.2,0.2,0.5,0.1,0.8c-0.1,0.2-0.2,0.5-0.5,0.6c0,0,0,0,0,0l-2.7,1.6c0,0,0,0-0.1,0c-0.2,0.1-0.5,0.1-0.7,0.1
		c-0.3-0.1-0.5-0.2-0.6-0.5l-2.7-4.6l-2.5,2.9c-0.3,0.4-0.7,0.7-1.1,0.9c-0.3,0.1-0.6,0.1-0.9,0.1c-0.3-0.1-0.6-0.2-0.7-0.5
		c-0.1-0.2-0.2-0.5-0.3-1l-1.4-18.5v0c0-0.1,0-0.2,0.1-0.3c0-0.1,0.1-0.2,0.2-0.3c0,0,0.1-0.1,0.1-0.1c0.1,0,0.2,0,0.3,0
		c0.1,0,0.2,0,0.3,0.1c0,0,0.1,0,0.1,0l15.2,10.4c0.3,0.2,0.6,0.5,0.7,0.7C241.8,124.8,241.8,125.1,241.7,125.4L241.7,125.4z"/>
	<path d="M235.6,135.1c-0.2,0.1-0.5,0.1-0.7,0.1c-0.3-0.1-0.5-0.2-0.6-0.5l-2.7-4.6l-2.5,2.9c-0.4,0.4-0.8,0.7-1.1,0.9
		c-0.3,0.1-0.6,0.2-0.9,0.1c-0.3-0.1-0.6-0.2-0.8-0.5c-0.2-0.2-0.3-0.6-0.3-1l-1.4-18.5c0,0,0,0,0,0c0-0.1,0-0.2,0.1-0.3
		c0.1-0.1,0.1-0.2,0.2-0.3c0,0,0.1-0.1,0.2-0.1c0.1,0,0.2,0,0.3,0c0.1,0,0.2,0,0.3,0.1c0,0,0.1,0,0.1,0.1l15.2,10.4
		c0.3,0.2,0.6,0.5,0.7,0.7c0.2,0.3,0.2,0.6,0.1,0.9c-0.1,0.3-0.3,0.5-0.5,0.7c-0.3,0.3-0.8,0.5-1.3,0.6c0,0,0,0,0,0l-3.7,0.8
		l2.6,4.6c0.1,0.2,0.2,0.5,0.1,0.8c-0.1,0.3-0.2,0.5-0.5,0.6c0,0,0,0,0,0L235.6,135.1C235.6,135,235.6,135.1,235.6,135.1
		L235.6,135.1L235.6,135.1z M235.1,134.2C235.1,134.2,235.1,134.2,235.1,134.2c0.1,0,0.1,0,0.1,0l2.7-1.6c0,0,0,0,0.1-0.1
		c0,0,0,0,0-0.1l-3-5.2l0,0c0,0,0-0.1-0.1-0.1c-0.1-0.3,0.1-0.5,0.4-0.6l4.4-0.9c0,0,0,0,0,0c0.4-0.1,0.7-0.2,0.9-0.4
		c0.1-0.1,0.2-0.2,0.2-0.2c0,0,0-0.1,0-0.2c-0.1-0.1-0.2-0.2-0.4-0.4l-14.8-10.2l1.4,18c0,0.2,0.1,0.4,0.1,0.5
		c0,0.1,0.1,0.1,0.1,0.1c0.1,0,0.2,0,0.3-0.1c0.2-0.1,0.5-0.3,0.8-0.6l3-3.4l0,0c0,0,0.1-0.1,0.1-0.1c0.2-0.1,0.5-0.1,0.7,0.2
		L235.1,134.2C235,134.2,235,134.2,235.1,134.2L235.1,134.2L235.1,134.2z M235.2,134.2c0.1,0,0.1,0,0.2,0L235.2,134.2L235.2,134.2z"
		/>
</g>
</svg>
