<?xml version="1.0" encoding="UTF-8"?><svg id="a" xmlns="http://www.w3.org/2000/svg" viewBox="0 0 324.66 208.78"><path d="M64.08,82.09v-1.31l10.52-5.36v2.09l-8.07,3.89,.07-.13v.33l-.07-.13,8.07,3.89v2.09l-10.52-5.36Z" style="fill:#84849b;"/><path d="M79.43,89.54v-16.73h2.03v7.45h8.92v-7.45h2.03v16.73h-2.03v-7.48h-8.92v7.48h-2.03Z" style="fill:#84849b;"/><path d="M97.65,74.9c-.38,0-.7-.13-.97-.38s-.4-.56-.4-.92,.13-.67,.4-.92,.59-.38,.97-.38,.7,.13,.97,.38,.4,.56,.4,.92-.13,.67-.4,.92-.59,.38-.97,.38Zm-.98,14.64v-12.55h1.93v12.55h-1.93Z" style="fill:#84849b;"/><path d="M107.35,89.8c-1.05,0-1.97-.27-2.77-.8-.8-.53-1.43-1.28-1.88-2.25-.45-.97-.68-2.12-.68-3.45s.23-2.46,.68-3.43,1.08-1.72,1.89-2.25,1.74-.79,2.79-.79c.82,0,1.46,.13,1.94,.4,.48,.27,.84,.57,1.09,.92s.45,.62,.59,.84h.16v-6.17h1.93v16.73h-1.86v-1.93h-.23c-.14,.23-.34,.52-.6,.86s-.63,.65-1.12,.92c-.48,.27-1.13,.4-1.94,.4Zm.26-1.73c.77,0,1.43-.2,1.96-.61,.53-.41,.94-.97,1.22-1.69,.28-.72,.42-1.56,.42-2.5s-.14-1.76-.41-2.46c-.27-.71-.68-1.25-1.21-1.65-.53-.39-1.19-.59-1.98-.59s-1.5,.21-2.04,.62c-.54,.42-.95,.98-1.22,1.69-.27,.71-.4,1.51-.4,2.39s.14,1.7,.41,2.43,.68,1.3,1.23,1.73c.54,.43,1.22,.64,2.02,.64Z" style="fill:#84849b;"/><path d="M122.63,89.8c-1.21,0-2.25-.27-3.12-.8-.87-.54-1.55-1.29-2.02-2.25-.47-.97-.71-2.09-.71-3.38s.24-2.42,.71-3.4c.47-.98,1.13-1.75,1.98-2.3,.85-.55,1.84-.83,2.97-.83,.65,0,1.3,.11,1.94,.33,.64,.22,1.22,.57,1.74,1.06,.52,.49,.94,1.13,1.25,1.93,.31,.8,.47,1.79,.47,2.96v.82h-9.67v-1.67h7.71c0-.71-.14-1.34-.42-1.89-.28-.56-.68-.99-1.19-1.32-.51-.32-1.12-.48-1.82-.48-.77,0-1.43,.19-1.99,.57s-.99,.87-1.29,1.47c-.3,.6-.45,1.25-.45,1.94v1.11c0,.95,.17,1.75,.49,2.41,.33,.66,.79,1.15,1.38,1.49s1.27,.51,2.05,.51c.51,0,.97-.07,1.38-.22,.41-.14,.77-.36,1.07-.65,.3-.29,.53-.65,.69-1.09l1.86,.52c-.2,.63-.53,1.19-.99,1.66s-1.03,.85-1.72,1.11-1.45,.4-2.3,.4Z" style="fill:#84849b;"/><path d="M84.38,117.14v-12.55h1.86v1.96h.16c.26-.67,.68-1.19,1.27-1.56s1.28-.56,2.1-.56,1.52,.19,2.07,.56,.98,.89,1.29,1.56h.13c.32-.65,.8-1.16,1.45-1.55,.64-.38,1.41-.58,2.31-.58,1.12,0,2.04,.35,2.75,1.05s1.07,1.79,1.07,3.26v8.4h-1.93v-8.4c0-.93-.25-1.59-.76-1.98s-1.1-.6-1.79-.6c-.88,0-1.57,.27-2.05,.8-.48,.53-.73,1.2-.73,2.01v8.17h-1.96v-8.59c0-.71-.23-1.29-.69-1.73-.46-.44-1.06-.66-1.79-.66-.5,0-.97,.13-1.4,.4-.43,.27-.78,.64-1.05,1.11-.26,.47-.4,1.01-.4,1.63v7.84h-1.93Z" style="fill:#a1a1b2;"/><path d="M105.84,102.51c-.38,0-.7-.13-.97-.38s-.4-.56-.4-.92,.13-.67,.4-.92,.59-.38,.97-.38,.7,.13,.97,.38,.4,.56,.4,.92-.13,.67-.4,.92-.59,.38-.97,.38Zm-.98,14.64v-12.55h1.93v12.55h-1.93Z" style="fill:#a1a1b2;"/><path d="M112.72,109.59v7.55h-1.93v-12.55h1.86v1.96h.16c.29-.64,.74-1.15,1.34-1.54,.6-.39,1.37-.58,2.32-.58,.85,0,1.59,.17,2.23,.52s1.13,.87,1.49,1.57,.53,1.58,.53,2.65v7.97h-1.93v-7.84c0-.99-.26-1.75-.77-2.31-.51-.55-1.21-.83-2.11-.83-.62,0-1.16,.13-1.65,.4-.48,.27-.86,.66-1.14,1.17-.28,.51-.42,1.13-.42,1.86Z" style="fill:#a1a1b2;"/><path d="M125.52,109.07v-1.76h10.06v1.76h-10.06Zm0,4.84v-1.76h10.06v1.76h-10.06Z" style="fill:#a1a1b2;"/><path d="M142.08,100.41v1.47c0,.45-.08,.92-.24,1.43-.16,.5-.39,.99-.7,1.46-.31,.47-.68,.88-1.12,1.23l-1.04-.85c.34-.49,.64-1,.89-1.53,.25-.53,.38-1.1,.38-1.7v-1.5h1.83Zm4.18,0v1.47c0,.45-.08,.92-.24,1.43-.16,.5-.39,.99-.7,1.46-.31,.47-.68,.88-1.12,1.23l-1.04-.85c.34-.49,.64-1,.89-1.53,.25-.53,.38-1.1,.38-1.7v-1.5h1.83Z" style="fill:#84849b;"/><path d="M150.11,117.14l7.48-14.8v-.13h-8.62v-1.8h10.72v1.89l-7.45,14.83h-2.12Z" style="fill:#aea1d6;"/><path d="M168.4,117.37c-.69-.01-1.37-.14-2.06-.39-.69-.25-1.31-.67-1.88-1.27s-1.02-1.4-1.36-2.43c-.34-1.02-.51-2.3-.51-3.85s.14-2.79,.42-3.94c.28-1.15,.68-2.11,1.21-2.9,.53-.79,1.17-1.38,1.92-1.79,.75-.41,1.59-.61,2.54-.61s1.77,.19,2.5,.56,1.33,.89,1.79,1.56c.46,.66,.76,1.43,.9,2.29h-1.99c-.19-.75-.54-1.38-1.08-1.87-.53-.5-1.24-.74-2.12-.74-1.3,0-2.32,.56-3.06,1.69-.74,1.13-1.12,2.71-1.12,4.75h.13c.3-.46,.67-.86,1.09-1.19,.42-.33,.89-.58,1.4-.76s1.05-.27,1.62-.27c.96,0,1.83,.24,2.63,.71s1.43,1.13,1.91,1.97c.48,.84,.72,1.79,.72,2.87s-.23,1.98-.69,2.84c-.46,.86-1.11,1.54-1.95,2.04-.84,.5-1.82,.75-2.94,.74Zm0-1.8c.69,0,1.3-.17,1.85-.51,.55-.34,.98-.8,1.3-1.38s.48-1.22,.48-1.93-.15-1.32-.46-1.89c-.31-.57-.73-1.02-1.27-1.36-.54-.34-1.15-.51-1.83-.51-.52,0-1,.1-1.45,.31s-.84,.48-1.17,.84c-.33,.35-.6,.76-.79,1.21-.19,.46-.29,.93-.29,1.43,0,.66,.16,1.29,.47,1.86s.74,1.04,1.29,1.4c.55,.35,1.17,.53,1.87,.53Z" style="fill:#aea1d6;"/><path d="M183.03,117.37c-1.12,0-2.11-.2-2.97-.6s-1.53-.95-2-1.66c-.48-.71-.72-1.51-.71-2.41,0-.71,.13-1.36,.42-1.96,.28-.6,.67-1.1,1.16-1.51,.49-.41,1.04-.66,1.65-.77v-.1c-.8-.21-1.44-.66-1.91-1.35s-.71-1.48-.7-2.37c0-.85,.21-1.61,.65-2.28s1.04-1.2,1.8-1.58c.76-.39,1.64-.58,2.62-.58s1.83,.19,2.6,.58,1.36,.91,1.8,1.58,.66,1.43,.67,2.28c0,.89-.25,1.68-.72,2.37-.48,.69-1.11,1.15-1.89,1.35v.1c.6,.11,1.15,.37,1.63,.77s.87,.91,1.16,1.51c.29,.6,.44,1.26,.44,1.96,0,.9-.25,1.71-.73,2.41-.48,.71-1.15,1.26-2,1.66-.85,.4-1.84,.6-2.95,.6Zm0-1.8c.76,0,1.41-.12,1.96-.37,.55-.25,.97-.59,1.27-1.04,.3-.45,.45-.97,.46-1.57,0-.63-.17-1.19-.49-1.67-.32-.48-.76-.87-1.31-1.14-.55-.28-1.18-.42-1.89-.42s-1.35,.14-1.91,.42c-.56,.28-1,.66-1.31,1.14-.32,.48-.48,1.04-.47,1.67,0,.6,.14,1.12,.44,1.57,.3,.45,.72,.79,1.28,1.04,.56,.24,1.21,.37,1.98,.37Zm0-7.94c.6,0,1.13-.12,1.6-.36,.47-.24,.83-.57,1.1-1,.27-.43,.4-.93,.41-1.51,0-.57-.14-1.06-.4-1.48-.26-.42-.62-.75-1.09-.98s-1-.35-1.62-.35-1.17,.12-1.64,.35c-.47,.23-.83,.56-1.09,.98-.26,.42-.38,.92-.38,1.48,0,.58,.12,1.08,.39,1.51,.26,.43,.63,.77,1.1,1,.47,.24,1.01,.36,1.62,.36Z" style="fill:#aea1d6;"/><path d="M194.06,100.41v1.47c0,.45-.08,.92-.24,1.43-.16,.5-.39,.99-.7,1.46-.31,.47-.68,.88-1.12,1.23l-1.04-.85c.34-.49,.64-1,.89-1.53,.25-.53,.38-1.1,.38-1.7v-1.5h1.83Zm4.18,0v1.47c0,.45-.08,.92-.24,1.43-.16,.5-.39,.99-.7,1.46-.31,.47-.68,.88-1.12,1.23l-1.04-.85c.34-.49,.64-1,.89-1.53,.25-.53,.38-1.1,.38-1.7v-1.5h1.83Z" style="fill:#84849b;"/><path d="M84.38,144.74v-12.55h1.86v1.96h.16c.26-.67,.68-1.19,1.27-1.56s1.28-.56,2.1-.56,1.52,.19,2.07,.56,.98,.89,1.29,1.56h.13c.32-.65,.8-1.16,1.45-1.55,.64-.38,1.41-.58,2.31-.58,1.12,0,2.04,.35,2.75,1.05s1.07,1.79,1.07,3.26v8.4h-1.93v-8.4c0-.93-.25-1.59-.76-1.98s-1.1-.6-1.79-.6c-.88,0-1.57,.27-2.05,.8-.48,.53-.73,1.2-.73,2.01v8.17h-1.96v-8.59c0-.71-.23-1.29-.69-1.73-.46-.44-1.06-.66-1.79-.66-.5,0-.97,.13-1.4,.4-.43,.27-.78,.64-1.05,1.11-.26,.47-.4,1.01-.4,1.63v7.84h-1.93Z" style="fill:#a1a1b2;"/><path d="M108.55,145.04c-.79,0-1.52-.15-2.16-.45s-1.16-.74-1.54-1.31c-.38-.57-.57-1.27-.57-2.09,0-.72,.14-1.3,.42-1.75,.28-.45,.66-.8,1.14-1.06,.47-.26,1-.45,1.57-.58,.57-.13,1.15-.23,1.74-.31,.76-.1,1.38-.17,1.86-.22,.48-.05,.82-.14,1.05-.27,.22-.13,.33-.34,.33-.65v-.06c0-.81-.22-1.43-.66-1.88-.44-.45-1.1-.67-1.99-.67s-1.64,.2-2.16,.6c-.52,.4-.89,.83-1.1,1.29l-1.83-.65c.33-.76,.76-1.36,1.31-1.78,.55-.43,1.15-.73,1.8-.9,.65-.17,1.29-.26,1.92-.26,.4,0,.87,.05,1.39,.14,.53,.1,1.03,.29,1.53,.58,.49,.29,.9,.74,1.23,1.33,.33,.59,.49,1.39,.49,2.38v8.27h-1.93v-1.7h-.1c-.13,.27-.35,.56-.65,.87-.3,.31-.71,.57-1.22,.79s-1.12,.33-1.85,.33Zm.29-1.73c.76,0,1.41-.15,1.93-.45s.92-.69,1.19-1.16,.4-.97,.4-1.49v-1.76c-.08,.1-.26,.19-.53,.27-.28,.08-.59,.15-.95,.2s-.7,.11-1.04,.15c-.33,.04-.61,.08-.81,.1-.5,.06-.97,.17-1.4,.31-.43,.14-.78,.36-1.05,.65-.26,.29-.4,.67-.4,1.16,0,.67,.25,1.17,.75,1.52s1.13,.51,1.9,.51Z" style="fill:#a1a1b2;"/><path d="M119.75,132.2l3.01,5.13,3.01-5.13h2.22l-4.05,6.27,4.05,6.27h-2.22l-3.01-4.87-3.01,4.87h-2.22l3.99-6.27-3.99-6.27h2.22Z" style="fill:#a1a1b2;"/><path d="M131.99,136.67v-1.76h10.06v1.76h-10.06Zm0,4.84v-1.76h10.06v1.76h-10.06Z" style="fill:#a1a1b2;"/><path d="M148.55,128.01v1.47c0,.45-.08,.92-.24,1.43-.16,.5-.39,.99-.7,1.46-.31,.47-.68,.88-1.12,1.23l-1.04-.85c.34-.49,.64-1,.89-1.53,.25-.53,.38-1.1,.38-1.7v-1.5h1.83Zm4.18,0v1.47c0,.45-.08,.92-.24,1.43-.16,.5-.39,.99-.7,1.46-.31,.47-.68,.88-1.12,1.23l-1.04-.85c.34-.49,.64-1,.89-1.53,.25-.53,.38-1.1,.38-1.7v-1.5h1.83Z" style="fill:#84849b;"/><path d="M161.94,128.01v16.73h-2.03v-14.6h-.1l-4.08,2.71v-2.06l4.18-2.78h2.03Z" style="fill:#aea1d6;"/><path d="M172.68,144.97c-1.23,0-2.28-.34-3.14-1.01-.87-.67-1.53-1.65-1.99-2.93-.46-1.28-.69-2.83-.69-4.65s.23-3.35,.69-4.63c.46-1.28,1.12-2.26,1.99-2.94,.87-.68,1.91-1.02,3.13-1.02s2.26,.34,3.13,1.02c.87,.68,1.53,1.66,1.99,2.94,.46,1.28,.69,2.83,.69,4.63s-.23,3.37-.69,4.65c-.46,1.28-1.12,2.26-1.98,2.93-.87,.67-1.91,1.01-3.14,1.01Zm0-1.8c1.22,0,2.17-.59,2.84-1.76,.68-1.18,1.01-2.85,1.01-5.03,0-1.45-.15-2.68-.46-3.7s-.75-1.79-1.32-2.33-1.26-.8-2.07-.8c-1.21,0-2.15,.6-2.83,1.78-.68,1.19-1.02,2.87-1.02,5.04,0,1.45,.15,2.68,.46,3.69,.31,1.01,.75,1.78,1.32,2.31s1.27,.79,2.08,.79Z" style="fill:#aea1d6;"/><path d="M182.08,144.74v-1.47l5.52-6.04c.65-.71,1.18-1.32,1.6-1.85,.42-.53,.73-1.02,.94-1.49,.2-.47,.31-.95,.31-1.47,0-.59-.14-1.1-.42-1.53s-.66-.76-1.15-1c-.48-.23-1.03-.35-1.63-.35-.64,0-1.2,.13-1.68,.4s-.84,.63-1.1,1.11-.39,1.03-.39,1.67h-1.93c0-.98,.23-1.84,.68-2.58,.45-.74,1.07-1.32,1.85-1.73,.78-.41,1.66-.62,2.63-.62s1.85,.21,2.61,.62c.76,.41,1.35,.97,1.78,1.67,.43,.7,.65,1.48,.65,2.34,0,.62-.11,1.22-.33,1.8-.22,.59-.6,1.24-1.14,1.95-.54,.72-1.29,1.59-2.25,2.62l-3.76,4.02v.13h7.78v1.8h-10.55Z" style="fill:#aea1d6;"/><path d="M196.09,141.31v-1.67l7.35-11.63h1.21v2.58h-.82l-5.55,8.79v.13h9.9v1.8h-12.09Zm7.87,3.43v-16.73h1.93v16.73h-1.93Z" style="fill:#aea1d6;"/><path d="M213.46,128.01v1.47c0,.45-.08,.92-.24,1.43-.16,.5-.4,.99-.7,1.46-.31,.47-.68,.88-1.11,1.23l-1.05-.85c.34-.49,.64-1,.89-1.53s.38-1.1,.38-1.7v-1.5h1.83Zm4.18,0v1.47c0,.45-.08,.92-.24,1.43-.16,.5-.39,.99-.7,1.46-.31,.47-.68,.88-1.12,1.23l-1.05-.85c.34-.49,.64-1,.89-1.53,.25-.53,.38-1.1,.38-1.7v-1.5h1.83Z" style="fill:#84849b;"/><path d="M223.65,127.23l-5.39,20.03h-1.76l5.39-20.03h1.76Z" style="fill:#84849b;"/><path d="M237.49,138.86l-10.52,5.36v-2.09l8.07-3.89-.07,.13v-.33l.07,.13-8.07-3.89v-2.09l10.52,5.36v1.31Z" style="fill:#84849b;"/></svg>