<?xml version="1.0" encoding="utf-8"?>
<!-- Generator: Adobe Illustrator 26.4.1, SVG Export Plug-In . SVG Version: 6.00 Build 0)  -->
<svg version="1.1" id="a" xmlns="http://www.w3.org/2000/svg" xmlns:xlink="http://www.w3.org/1999/xlink" x="0px" y="0px"
	 viewBox="0 0 324.7 208.8" style="enable-background:new 0 0 324.7 208.8;" xml:space="preserve">
<style type="text/css">
	.st0{fill:#CDCDE0;}
	.st1{fill:#AEA1D7;}
	.st2{fill:#9898AF;}
</style>
<path class="st0" d="M57,110.8h217.3c1.4,0,2.5,1.1,2.5,2.5l0,0c0,1.4-1.1,2.5-2.5,2.5H57c-1.4,0-2.5-1.1-2.5-2.5l0,0
	C54.5,112,55.6,110.8,57,110.8z"/>
<path class="st1" d="M57,110.8h93.4v5H57c-1.4,0-2.5-1.1-2.5-2.5l0,0C54.5,112,55.6,110.8,57,110.8z"/>
<g>
	<path class="st2" d="M55.6,99v-1.4l6.1-9.6h1v2.1H62l-4.6,7.3v0.1h8.2V99L55.6,99L55.6,99z M62.1,101.9V88.1h1.6v13.8H62.1z"/>
	<path class="st2" d="M72.8,102.1c-0.8,0-1.5-0.2-2.1-0.5c-0.6-0.3-1.1-0.8-1.5-1.3s-0.6-1.2-0.6-1.9h1.6c0.1,0.6,0.3,1.1,0.8,1.6
		c0.5,0.4,1.1,0.6,1.8,0.6c0.6,0,1.1-0.1,1.5-0.4c0.4-0.3,0.8-0.6,1.1-1.1c0.2-0.5,0.4-1,0.4-1.6s-0.1-1.1-0.4-1.6
		c-0.3-0.5-0.6-0.8-1.1-1.1c-0.5-0.3-1-0.4-1.6-0.4c-0.4,0-0.9,0.1-1.3,0.2s-0.8,0.3-1.1,0.5l-1.6-0.2l0.8-6.8h7.2v1.5H71l-0.5,4.1
		h0.1c0.3-0.2,0.6-0.4,1.1-0.6c0.4-0.2,0.9-0.2,1.3-0.2c0.8,0,1.6,0.2,2.3,0.6s1.2,0.9,1.6,1.7c0.4,0.7,0.6,1.5,0.6,2.4
		s-0.2,1.7-0.6,2.4s-0.9,1.2-1.6,1.6C74.5,101.8,73.7,102,72.8,102.1L72.8,102.1z"/>
	<path class="st2" d="M80.6,91.4v-0.7c0-0.5,0.1-1,0.3-1.4s0.5-0.8,0.9-1c0.4-0.2,0.9-0.4,1.5-0.4s1.1,0.1,1.5,0.4
		c0.4,0.2,0.7,0.6,0.9,1c0.2,0.4,0.3,0.9,0.3,1.4v0.7c0,0.5-0.1,1-0.3,1.4s-0.5,0.8-0.9,1c-0.4,0.2-0.9,0.4-1.5,0.4
		s-1.1-0.1-1.5-0.4s-0.7-0.6-0.9-1C80.7,92.3,80.6,91.9,80.6,91.4z M81.1,101.9l9.5-13.8h1.5l-9.5,13.8H81.1z M82,90.6v0.7
		c0,0.4,0.1,0.8,0.3,1.1s0.5,0.5,1,0.5s0.8-0.2,1-0.5c0.2-0.3,0.3-0.7,0.3-1.1v-0.7c0-0.4-0.1-0.8-0.3-1.1s-0.5-0.5-1-0.5
		s-0.8,0.2-1,0.5S82,90.2,82,90.6z M87.5,99.3v-0.7c0-0.5,0.1-1,0.3-1.4s0.5-0.8,0.9-1s0.9-0.4,1.5-0.4s1.1,0.1,1.5,0.4
		c0.4,0.2,0.7,0.6,0.9,1c0.2,0.4,0.3,0.9,0.3,1.4v0.7c0,0.5-0.1,1-0.3,1.4c-0.2,0.4-0.5,0.8-0.9,1c-0.4,0.2-0.9,0.4-1.5,0.4
		s-1.1-0.1-1.5-0.4s-0.7-0.6-0.9-1C87.6,100.3,87.5,99.8,87.5,99.3z M88.9,98.6v0.7c0,0.4,0.1,0.8,0.3,1.1c0.2,0.3,0.5,0.5,1,0.5
		s0.8-0.2,1-0.5c0.2-0.3,0.3-0.7,0.3-1.1v-0.7c0-0.4-0.1-0.8-0.3-1.1s-0.5-0.5-1-0.5s-0.8,0.2-1,0.5S88.9,98.1,88.9,98.6z"/>
</g>
</svg>
