<?xml version="1.0" encoding="utf-8"?>
<!-- Generator: Adobe Illustrator 26.4.1, SVG Export Plug-In . SVG Version: 6.00 Build 0)  -->
<svg version="1.1" id="a" xmlns="http://www.w3.org/2000/svg" xmlns:xlink="http://www.w3.org/1999/xlink" x="0px" y="0px"
	 viewBox="0 0 324.7 208.8" style="enable-background:new 0 0 324.7 208.8;" xml:space="preserve">
<style type="text/css">
	.st0{fill:#8A8AB2;}
	.st1{fill:#FFFFFF;stroke:#DDDDED;stroke-miterlimit:10;}
	.st2{fill:#8E85FF;}
</style>
<g>
	<path class="st0" d="M34.7,98v-1.3l5.9-9.3h1v2.1h-0.7l-4.5,7.1v0.1h7.9V98L34.7,98L34.7,98z M41,100.8V87.3h1.5v13.4H41z"/>
	<path class="st0" d="M51.4,100.9c-0.8,0-1.5-0.2-2.1-0.5c-0.6-0.3-1.1-0.7-1.5-1.3c-0.4-0.5-0.6-1.1-0.6-1.8h1.6
		c0.1,0.6,0.3,1.1,0.8,1.5c0.5,0.4,1.1,0.6,1.8,0.6c0.6,0,1-0.1,1.5-0.4c0.4-0.3,0.8-0.6,1-1.1c0.2-0.5,0.4-1,0.4-1.5
		s-0.1-1.1-0.4-1.6c-0.3-0.5-0.6-0.8-1-1.1c-0.4-0.3-1-0.4-1.5-0.4c-0.4,0-0.8,0.1-1.3,0.2c-0.4,0.1-0.8,0.3-1.1,0.5l-1.5-0.2
		l0.8-6.6h7v1.4h-5.6l-0.5,4h0.1c0.3-0.2,0.6-0.4,1-0.5c0.4-0.1,0.8-0.2,1.3-0.2c0.8,0,1.6,0.2,2.2,0.6c0.6,0.4,1.2,0.9,1.5,1.6
		c0.4,0.7,0.6,1.4,0.6,2.3c0,0.9-0.2,1.6-0.6,2.3s-0.9,1.2-1.6,1.6C53,100.7,52.3,100.9,51.4,100.9L51.4,100.9z"/>
	<path class="st0" d="M59,90.6v-0.7c0-0.5,0.1-0.9,0.3-1.4c0.2-0.4,0.5-0.7,0.9-1c0.4-0.2,0.9-0.4,1.4-0.4s1,0.1,1.4,0.4
		c0.4,0.2,0.7,0.6,0.9,1c0.2,0.4,0.3,0.9,0.3,1.4v0.7c0,0.5-0.1,0.9-0.3,1.4c-0.2,0.4-0.5,0.7-0.9,1c-0.4,0.2-0.9,0.4-1.4,0.4
		s-1-0.1-1.4-0.4c-0.4-0.2-0.7-0.6-0.9-1C59.1,91.5,59,91.1,59,90.6z M59.5,100.8l9.2-13.4h1.5L61,100.8H59.5z M60.3,89.9v0.7
		c0,0.4,0.1,0.8,0.3,1.1c0.2,0.3,0.5,0.5,1,0.5s0.8-0.2,1-0.5c0.2-0.3,0.3-0.7,0.3-1.1v-0.7c0-0.4-0.1-0.8-0.3-1.1
		c-0.2-0.3-0.5-0.5-1-0.5c-0.5,0-0.8,0.2-1,0.5C60.4,89.1,60.3,89.5,60.3,89.9z M65.7,98.2v-0.7c0-0.5,0.1-0.9,0.3-1.4
		c0.2-0.4,0.5-0.7,0.9-1s0.9-0.4,1.4-0.4s1,0.1,1.4,0.4c0.4,0.2,0.7,0.6,0.9,1c0.2,0.4,0.3,0.9,0.3,1.4v0.7c0,0.5-0.1,0.9-0.3,1.4
		c-0.2,0.4-0.5,0.7-0.9,1c-0.4,0.2-0.9,0.4-1.4,0.4s-1-0.1-1.4-0.4c-0.4-0.2-0.7-0.6-0.9-1C65.8,99.2,65.7,98.7,65.7,98.2z M67,97.5
		v0.7c0,0.4,0.1,0.8,0.3,1.1c0.2,0.3,0.5,0.5,1,0.5c0.5,0,0.8-0.2,1-0.5c0.2-0.3,0.3-0.7,0.3-1.1v-0.7c0-0.4-0.1-0.8-0.3-1.1
		c-0.2-0.3-0.5-0.5-1-0.5s-0.8,0.2-1,0.5C67.1,96.8,67,97.1,67,97.5z"/>
</g>
<path class="st1" d="M292.6,117.2H37.7c-2.2,0-4-1.8-4-4v0c0-2.2,1.8-4,4-4h254.9c2.2,0,4,1.8,4,4v0
	C296.6,115.4,294.8,117.2,292.6,117.2z"/>
<path class="st2" d="M147.6,117.2H37.7c-2.2,0-4-1.8-4-4v0c0-2.2,1.8-4,4-4h109.9V117.2z"/>
</svg>
