<?xml version="1.0" encoding="utf-8"?>
<!-- Generator: Adobe Illustrator 26.4.1, SVG Export Plug-In . SVG Version: 6.00 Build 0)  -->
<svg version="1.1" id="a" xmlns="http://www.w3.org/2000/svg" xmlns:xlink="http://www.w3.org/1999/xlink" x="0px" y="0px"
	 viewBox="0 0 324.7 208.8" style="enable-background:new 0 0 324.7 208.8;" xml:space="preserve">
<style type="text/css">
	.st0{fill:#FFFFFF;stroke:#5353C1;stroke-width:2;stroke-miterlimit:10;}
	.st1{fill:#D2D1ED;}
	.st2{fill:#C4BFE2;}
	.st3{fill:#F5F5FC;stroke:#DCDCEF;stroke-miterlimit:10;}
	.st4{fill:#DAD9FF;}
	.st5{fill:#ABA6E0;}
	.st6{fill:#FFFFFF;}
</style>
<path class="st0" d="M62.7,39.7h198.3c3.9,0,7.1,3.2,7.1,7.1v23.3c0,3.9-3.2,7.1-7.1,7.1H62.7c-3.9,0-7.1-3.2-7.1-7.1V46.8
	C55.6,42.9,58.8,39.7,62.7,39.7z"/>
<path class="st1" d="M76.8,54.4h120.4c2.2,0,4,1.8,4,4l0,0c0,2.2-1.8,4-4,4H76.8c-2.2,0-4-1.8-4-4l0,0
	C72.8,56.2,74.6,54.4,76.8,54.4z"/>
<path class="st2" d="M249.4,61.6l5.1-6.2c0.2-0.3,0.1-0.8-0.2-0.8h-11c-0.3,0-0.4,0.5-0.2,0.8l5.1,6.2
	C248.5,62.1,249.1,62.1,249.4,61.6z"/>
<path class="st3" d="M61.7,81.7h200.4c3.3,0,6,2.7,6,6.1v90.4c0,3.3-2.7,6.1-6,6.1H61.7c-3.3,0-6-2.7-6-6.1V87.8
	C55.6,84.4,58.3,81.7,61.7,81.7z"/>
<rect x="56.2" y="115.7" class="st4" width="211.3" height="34.1"/>
<path class="st1" d="M76.8,95.7h94.6c2.2,0,4,1.8,4,4l0,0c0,2.2-1.8,4-4,4H76.8c-2.2,0-4-1.8-4-4l0,0C72.8,97.5,74.6,95.7,76.8,95.7
	z"/>
<path class="st1" d="M76.8,163.1h60.3c2.2,0,4,1.8,4,4l0,0c0,2.2-1.8,4-4,4H76.8c-2.2,0-4-1.8-4-4l0,0
	C72.8,164.8,74.6,163.1,76.8,163.1z"/>
<path class="st5" d="M76.8,129.4h120.4c2.2,0,4,1.8,4,4l0,0c0,2.2-1.8,4-4,4H76.8c-2.2,0-4-1.8-4-4l0,0
	C72.8,131.2,74.6,129.4,76.8,129.4z"/>
<g>
	<path class="st6" d="M253.7,147.4c-0.1,0.2-0.2,0.4-0.4,0.6c-0.3,0.2-0.6,0.4-1.1,0.5c0,0,0,0,0,0l-3,0.6l2.1,3.8
		c0.1,0.2,0.1,0.4,0.1,0.6c-0.1,0.2-0.2,0.4-0.4,0.5c0,0,0,0,0,0l-2.2,1.3c0,0,0,0-0.1,0c-0.2,0.1-0.4,0.1-0.6,0.1
		c-0.2-0.1-0.4-0.2-0.5-0.4l-2.2-3.7l-2.1,2.3c-0.3,0.3-0.6,0.6-0.9,0.7c-0.2,0.1-0.5,0.1-0.7,0.1c-0.2-0.1-0.4-0.2-0.6-0.4
		c-0.1-0.2-0.2-0.4-0.2-0.8l-1.1-14.9v0c0-0.1,0-0.2,0.1-0.3c0-0.1,0.1-0.2,0.2-0.2c0,0,0.1-0.1,0.1-0.1c0.1,0,0.2,0,0.3,0
		c0.1,0,0.2,0,0.2,0.1c0,0,0.1,0,0.1,0l12.3,8.4c0.3,0.2,0.4,0.4,0.6,0.6C253.7,146.9,253.7,147.2,253.7,147.4L253.7,147.4z"/>
	<path d="M248.7,155.2c-0.2,0.1-0.4,0.1-0.6,0.1c-0.2-0.1-0.4-0.2-0.5-0.4l-2.2-3.7l-2.1,2.3c-0.3,0.3-0.6,0.6-0.9,0.7
		c-0.2,0.1-0.5,0.1-0.7,0.1c-0.2-0.1-0.4-0.2-0.6-0.4c-0.1-0.2-0.2-0.4-0.2-0.8l-1.1-14.9c0,0,0,0,0,0c0-0.1,0-0.2,0.1-0.3
		c0-0.1,0.1-0.2,0.2-0.2c0,0,0.1-0.1,0.1-0.1c0.1,0,0.2,0,0.3,0c0.1,0,0.2,0,0.2,0.1c0,0,0.1,0,0.1,0L253,146
		c0.3,0.2,0.4,0.4,0.6,0.6c0.1,0.2,0.1,0.5,0.1,0.8c-0.1,0.2-0.2,0.4-0.4,0.6c-0.3,0.2-0.6,0.4-1.1,0.5h0l-3,0.6l2.1,3.7
		c0.1,0.2,0.1,0.4,0.1,0.6c-0.1,0.2-0.2,0.4-0.4,0.5l0,0L248.7,155.2C248.8,155.2,248.7,155.2,248.7,155.2L248.7,155.2L248.7,155.2z
		 M248.3,154.5C248.3,154.5,248.4,154.5,248.3,154.5C248.4,154.5,248.4,154.5,248.3,154.5l2.3-1.3c0,0,0,0,0-0.1c0,0,0,0,0-0.1
		l-2.4-4.2l0,0c0,0,0-0.1,0-0.1c0-0.2,0.1-0.4,0.3-0.5l3.5-0.7c0,0,0,0,0,0c0.3-0.1,0.6-0.2,0.7-0.3c0.1-0.1,0.1-0.1,0.2-0.2
		c0,0,0-0.1,0-0.1c-0.1-0.1-0.1-0.2-0.3-0.3l-12-8.2l1.1,14.5c0,0.2,0.1,0.3,0.1,0.4c0,0.1,0.1,0.1,0.1,0.1c0.1,0,0.1,0,0.2,0
		c0.2-0.1,0.4-0.2,0.6-0.5l2.4-2.7l0,0c0,0,0.1-0.1,0.1-0.1c0.2-0.1,0.4-0.1,0.5,0.1L248.3,154.5
		C248.3,154.5,248.3,154.5,248.3,154.5L248.3,154.5L248.3,154.5z M248.4,154.5c0.1,0,0.1,0,0.2,0L248.4,154.5L248.4,154.5z"/>
</g>
</svg>
