<?xml version="1.0" encoding="UTF-8"?><svg id="a" xmlns="http://www.w3.org/2000/svg" viewBox="0 0 324.66 208.78"><path d="M46.35,94.65v-1.31l10.52-5.36v2.09l-8.07,3.89,.07-.13v.33l-.07-.13,8.07,3.89v2.09l-10.52-5.36Z" style="fill:#84849b;"/><path d="M70.85,89.55c-.1-.83-.5-1.47-1.19-1.93-.7-.46-1.55-.69-2.57-.69-.74,0-1.39,.12-1.94,.36-.55,.24-.98,.57-1.29,.99-.31,.42-.46,.9-.46,1.43,0,.45,.11,.83,.32,1.15,.22,.32,.49,.58,.83,.79,.34,.21,.69,.38,1.06,.51,.37,.13,.71,.24,1.02,.32l1.7,.46c.44,.11,.92,.27,1.46,.47,.54,.2,1.05,.48,1.54,.82,.49,.35,.9,.79,1.22,1.33s.48,1.2,.48,1.98c0,.9-.24,1.72-.71,2.45-.47,.73-1.16,1.31-2.06,1.74s-1.99,.65-3.28,.65c-1.2,0-2.23-.19-3.11-.58-.87-.39-1.56-.93-2.06-1.62-.5-.69-.78-1.5-.85-2.41h2.09c.05,.63,.27,1.15,.64,1.56s.85,.72,1.42,.92c.58,.2,1.19,.3,1.86,.3,.77,0,1.47-.13,2.08-.38,.62-.25,1.1-.61,1.46-1.06s.54-.99,.54-1.6c0-.56-.16-1.01-.47-1.36s-.72-.63-1.22-.85c-.51-.22-1.05-.41-1.64-.57l-2.06-.59c-1.31-.38-2.34-.91-3.1-1.61-.76-.7-1.14-1.61-1.14-2.74,0-.94,.25-1.75,.76-2.45,.51-.7,1.2-1.24,2.06-1.63,.86-.39,1.83-.58,2.9-.58s2.04,.19,2.88,.58c.84,.38,1.5,.91,2,1.57,.49,.66,.75,1.42,.78,2.26h-1.96Z" style="fill:#84849b;"/><path d="M78.52,94.55v7.55h-1.93v-16.73h1.93v6.14h.16c.29-.65,.74-1.16,1.33-1.55,.59-.38,1.38-.58,2.37-.58,.85,0,1.6,.17,2.25,.51s1.14,.86,1.5,1.56c.36,.7,.54,1.59,.54,2.67v7.97h-1.93v-7.84c0-1-.26-1.77-.77-2.32-.51-.55-1.23-.82-2.14-.82-.63,0-1.2,.13-1.69,.4-.5,.27-.89,.66-1.18,1.17-.29,.51-.43,1.13-.43,1.86Z" style="fill:#84849b;"/><path d="M95.76,102.36c-1.13,0-2.12-.27-2.98-.81-.85-.54-1.52-1.29-1.99-2.26s-.71-2.1-.71-3.4,.24-2.45,.71-3.42,1.14-1.73,1.99-2.27c.85-.54,1.84-.81,2.98-.81s2.12,.27,2.98,.81c.85,.54,1.52,1.3,1.99,2.27,.48,.97,.71,2.12,.71,3.42s-.24,2.43-.71,3.4c-.48,.97-1.14,1.72-1.99,2.26-.85,.54-1.84,.81-2.98,.81Zm0-1.73c.86,0,1.57-.22,2.12-.66,.55-.44,.97-1.02,1.23-1.74,.27-.72,.4-1.5,.4-2.34s-.13-1.62-.4-2.34c-.27-.72-.68-1.31-1.23-1.76-.56-.45-1.26-.67-2.12-.67s-1.57,.22-2.12,.67c-.56,.45-.97,1.03-1.23,1.76-.27,.72-.4,1.51-.4,2.34s.13,1.62,.4,2.34c.27,.72,.68,1.3,1.23,1.74,.55,.44,1.26,.66,2.12,.66Z" style="fill:#84849b;"/><path d="M107.71,102.1l-3.82-12.55h2.03l2.71,9.6h.13l2.68-9.6h2.06l2.65,9.57h.13l2.71-9.57h2.03l-3.82,12.55h-1.89l-2.74-9.64h-.2l-2.74,9.64h-1.9Z" style="fill:#84849b;"/><path d="M76.91,117.15l-4.64,12.55h-1.96l-4.64-12.55h2.09l3.46,10h.13l3.46-10h2.09Z" style="fill:#a1a1b2;"/><path d="M80.92,115.06c-.38,0-.7-.13-.97-.38s-.4-.56-.4-.92,.13-.67,.4-.92,.59-.38,.97-.38,.7,.13,.97,.38,.4,.56,.4,.92-.13,.67-.4,.92-.59,.38-.97,.38Zm-.98,14.64v-12.55h1.93v12.55h-1.93Z" style="fill:#a1a1b2;"/><path d="M91.14,129.96c-1.21,0-2.25-.27-3.12-.8-.87-.54-1.55-1.29-2.02-2.25-.47-.97-.71-2.09-.71-3.38s.24-2.42,.71-3.4c.47-.98,1.13-1.75,1.98-2.3,.85-.55,1.84-.83,2.97-.83,.65,0,1.3,.11,1.94,.33,.64,.22,1.22,.57,1.74,1.06,.52,.49,.94,1.13,1.25,1.93,.31,.8,.47,1.79,.47,2.96v.82h-9.67v-1.67h7.71c0-.71-.14-1.34-.42-1.89-.28-.56-.68-.99-1.19-1.32-.51-.32-1.12-.48-1.82-.48-.77,0-1.43,.19-1.99,.57-.56,.38-.99,.87-1.29,1.47-.3,.6-.45,1.25-.45,1.94v1.11c0,.95,.17,1.75,.49,2.41,.33,.66,.79,1.15,1.38,1.49s1.27,.51,2.05,.51c.51,0,.97-.07,1.38-.22,.41-.14,.77-.36,1.07-.65,.3-.29,.53-.65,.69-1.09l1.86,.52c-.2,.63-.53,1.19-.99,1.66s-1.03,.85-1.71,1.11-1.45,.4-2.3,.4Z" style="fill:#a1a1b2;"/><path d="M102.6,129.7l-3.82-12.55h2.03l2.71,9.6h.13l2.68-9.6h2.06l2.65,9.57h.13l2.71-9.57h2.03l-3.82,12.55h-1.89l-2.74-9.64h-.2l-2.74,9.64h-1.9Z" style="fill:#a1a1b2;"/><path d="M118.93,134.4v-17.25h1.86v1.99h.23c.14-.22,.34-.5,.59-.84,.25-.34,.62-.65,1.09-.92,.48-.27,1.12-.4,1.94-.4,1.06,0,1.99,.26,2.79,.79s1.43,1.28,1.89,2.25,.68,2.11,.68,3.43-.23,2.48-.68,3.45c-.45,.97-1.08,1.72-1.88,2.25-.8,.53-1.72,.8-2.77,.8-.81,0-1.45-.13-1.94-.4s-.86-.58-1.12-.92c-.26-.35-.46-.63-.6-.86h-.16v6.63h-1.93Zm1.9-10.98c0,.95,.14,1.78,.42,2.5,.28,.72,.68,1.29,1.22,1.69,.53,.41,1.19,.61,1.96,.61s1.48-.21,2.02-.64c.54-.43,.95-1,1.22-1.73,.28-.73,.41-1.54,.41-2.43s-.13-1.68-.4-2.39c-.27-.71-.68-1.27-1.22-1.69-.54-.42-1.22-.62-2.04-.62s-1.44,.2-1.98,.59c-.53,.4-.94,.94-1.21,1.65s-.41,1.53-.41,2.46Z" style="fill:#a1a1b2;"/><path d="M138.52,129.96c-1.13,0-2.12-.27-2.98-.81-.85-.54-1.52-1.29-1.99-2.26s-.71-2.1-.71-3.4,.24-2.45,.71-3.42,1.14-1.73,1.99-2.27c.85-.54,1.84-.81,2.98-.81s2.12,.27,2.98,.81c.85,.54,1.52,1.3,1.99,2.27,.48,.97,.71,2.12,.71,3.42s-.24,2.43-.71,3.4c-.48,.97-1.14,1.72-1.99,2.26-.85,.54-1.84,.81-2.98,.81Zm0-1.73c.86,0,1.57-.22,2.12-.66,.55-.44,.97-1.02,1.23-1.74,.27-.72,.4-1.5,.4-2.34s-.13-1.62-.4-2.34c-.27-.72-.68-1.31-1.23-1.76-.56-.45-1.26-.67-2.12-.67s-1.57,.22-2.12,.67c-.56,.45-.97,1.03-1.23,1.76-.27,.72-.4,1.51-.4,2.34s.13,1.62,.4,2.34c.27,.72,.68,1.3,1.23,1.74,.55,.44,1.26,.66,2.12,.66Z" style="fill:#a1a1b2;"/><path d="M147.63,129.7v-12.55h1.86v1.9h.13c.23-.62,.64-1.12,1.24-1.51,.6-.39,1.27-.58,2.03-.58,.14,0,.32,0,.53,0,.21,0,.37,.01,.48,.02v1.96c-.07-.02-.21-.04-.45-.08-.23-.04-.48-.05-.73-.05-.61,0-1.15,.13-1.63,.38-.48,.25-.85,.6-1.13,1.05-.27,.44-.41,.95-.41,1.52v7.94h-1.93Z" style="fill:#a1a1b2;"/><path d="M162.13,117.15v1.63h-6.5v-1.63h6.5Zm-4.61-3.01h1.93v11.96c0,.54,.08,.95,.24,1.22,.16,.27,.37,.45,.62,.54s.52,.13,.8,.13c.21,0,.39-.01,.52-.04,.14-.02,.25-.04,.33-.06l.39,1.73c-.13,.05-.31,.1-.55,.15-.23,.05-.53,.08-.89,.08-.54,0-1.08-.12-1.6-.35-.52-.23-.95-.59-1.29-1.07-.34-.48-.51-1.08-.51-1.81v-12.48Z" style="fill:#a1a1b2;"/><path d="M166.3,121.63v-1.76h10.06v1.76h-10.06Zm0,4.84v-1.76h10.06v1.76h-10.06Z" style="fill:#a1a1b2;"/><path d="M182.86,112.97v1.47c0,.45-.08,.92-.24,1.43-.16,.5-.39,.99-.7,1.46-.31,.47-.68,.88-1.12,1.23l-1.04-.85c.34-.49,.64-1,.89-1.53,.25-.53,.38-1.1,.38-1.7v-1.5h1.83Zm4.18,0v1.47c0,.45-.08,.92-.24,1.43-.16,.5-.39,.99-.7,1.46-.31,.47-.68,.88-1.12,1.23l-1.04-.85c.34-.49,.64-1,.89-1.53,.25-.53,.38-1.1,.38-1.7v-1.5h1.83Z" style="fill:#84849b;"/><path d="M201.48,122.25l-10.52,5.36v-2.09l8.07-3.89-.07,.13v-.33l.07,.13-8.07-3.89v-2.09l10.52,5.36v1.31Z" style="fill:#aba6e0;"/><path d="M211.66,129.93c-1.08,0-2.04-.19-2.88-.56-.84-.37-1.51-.89-2-1.55-.49-.66-.76-1.43-.8-2.31h2.06c.04,.54,.23,1,.55,1.39,.33,.39,.75,.69,1.28,.9s1.11,.32,1.76,.32c.72,0,1.36-.12,1.91-.38,.55-.25,.99-.6,1.31-1.05,.32-.45,.47-.96,.47-1.55s-.15-1.16-.46-1.63c-.31-.47-.75-.84-1.34-1.11-.59-.27-1.31-.4-2.16-.4h-1.34v-1.8h1.34c.66,0,1.25-.12,1.75-.36,.5-.24,.9-.58,1.18-1.01,.29-.44,.43-.95,.43-1.54s-.13-1.06-.38-1.48c-.25-.42-.6-.75-1.06-.98-.46-.23-.99-.35-1.61-.35-.58,0-1.12,.1-1.63,.31-.51,.21-.92,.51-1.25,.91-.32,.4-.5,.87-.52,1.43h-1.96c.03-.88,.3-1.65,.79-2.31,.5-.66,1.14-1.18,1.95-1.55,.8-.37,1.69-.56,2.65-.56,1.03,0,1.92,.21,2.66,.62,.74,.42,1.31,.97,1.71,1.65,.4,.68,.6,1.42,.6,2.21,0,.94-.25,1.75-.74,2.41-.49,.66-1.16,1.12-2,1.38v.13c1.06,.17,1.88,.62,2.47,1.34,.59,.72,.89,1.61,.89,2.68,0,.91-.25,1.72-.74,2.45-.49,.72-1.16,1.29-2.01,1.7s-1.82,.62-2.9,.62Z" style="fill:#aba6e0;"/><path d="M226.58,129.93c-1.23,0-2.28-.34-3.14-1.01-.87-.67-1.53-1.65-1.98-2.93-.46-1.28-.69-2.83-.69-4.65s.23-3.35,.69-4.63c.46-1.28,1.12-2.26,1.99-2.94,.87-.68,1.91-1.02,3.13-1.02s2.26,.34,3.13,1.02c.87,.68,1.53,1.66,1.99,2.94,.46,1.28,.69,2.83,.69,4.63s-.23,3.37-.69,4.65c-.46,1.28-1.12,2.26-1.99,2.93-.87,.67-1.91,1.01-3.14,1.01Zm0-1.8c1.22,0,2.17-.59,2.84-1.76,.67-1.18,1.01-2.85,1.01-5.03,0-1.45-.15-2.68-.46-3.7s-.75-1.79-1.32-2.33c-.57-.53-1.26-.8-2.07-.8-1.21,0-2.15,.6-2.83,1.78-.68,1.19-1.02,2.87-1.02,5.04,0,1.45,.15,2.68,.46,3.69s.74,1.78,1.32,2.31c.57,.53,1.27,.79,2.08,.79Z" style="fill:#aba6e0;"/><path d="M241.44,129.93c-1.23,0-2.28-.34-3.14-1.01-.87-.67-1.53-1.65-1.99-2.93-.46-1.28-.69-2.83-.69-4.65s.23-3.35,.69-4.63c.46-1.28,1.12-2.26,1.99-2.94,.87-.68,1.91-1.02,3.13-1.02s2.26,.34,3.13,1.02c.87,.68,1.53,1.66,1.99,2.94,.46,1.28,.69,2.83,.69,4.63s-.23,3.37-.69,4.65c-.46,1.28-1.12,2.26-1.98,2.93-.87,.67-1.91,1.01-3.14,1.01Zm0-1.8c1.22,0,2.17-.59,2.84-1.76,.68-1.18,1.01-2.85,1.01-5.03,0-1.45-.15-2.68-.46-3.7s-.75-1.79-1.32-2.33-1.26-.8-2.07-.8c-1.21,0-2.15,.6-2.83,1.78-.68,1.19-1.02,2.87-1.02,5.04,0,1.45,.15,2.68,.46,3.69,.31,1.01,.75,1.78,1.32,2.31s1.27,.79,2.08,.79Z" style="fill:#aba6e0;"/><path d="M252.58,112.97v1.47c0,.45-.08,.92-.24,1.43-.16,.5-.39,.99-.7,1.46-.31,.47-.68,.88-1.12,1.23l-1.04-.85c.34-.49,.64-1,.89-1.53,.25-.53,.38-1.1,.38-1.7v-1.5h1.83Zm4.18,0v1.47c0,.45-.08,.92-.24,1.43-.16,.5-.39,.99-.7,1.46-.31,.47-.68,.88-1.12,1.23l-1.04-.85c.34-.49,.64-1,.89-1.53,.25-.53,.38-1.1,.38-1.7v-1.5h1.83Z" style="fill:#84849b;"/><path d="M262.76,112.19l-5.39,20.03h-1.76l5.39-20.03h1.76Z" style="fill:#84849b;"/><path d="M276.61,123.82l-10.52,5.36v-2.09l8.07-3.89-.07,.13v-.33l.07,.13-8.07-3.89v-2.09l10.52,5.36v1.31Z" style="fill:#84849b;"/></svg>