<?xml version="1.0" encoding="utf-8"?>
<!-- Generator: Adobe Illustrator 26.4.1, SVG Export Plug-In . SVG Version: 6.00 Build 0)  -->
<svg version="1.1" id="a" xmlns="http://www.w3.org/2000/svg" xmlns:xlink="http://www.w3.org/1999/xlink" x="0px" y="0px"
	 viewBox="0 0 324.7 208.8" style="enable-background:new 0 0 324.7 208.8;" xml:space="preserve">
<style type="text/css">
	.st0{fill:#FFFFFF;stroke:#DADAEA;stroke-miterlimit:10;}
	.st1{fill:#C9C5ED;}
	.st2{fill:#ECEAF4;}
	.st3{fill:url(#SVGID_1_);}
</style>
<path class="st0" d="M289.6,35.2v142c0,1.7-1.4,3-3.1,3H38.9c-1.7,0-3.1-1.4-3.1-3v-142c0-1.7,1.4-3,3.1-3h247.6
	C288.2,32.2,289.6,33.5,289.6,35.2z"/>
<path class="st1" d="M60,52.3h28.1c2.3,0,4.1,1.8,4.1,4.1v25.9c0,2.3-1.8,4.1-4.1,4.1H60c-2.3,0-4.1-1.8-4.1-4.1V56.4
	C55.9,54.2,57.7,52.3,60,52.3z"/>
<path class="st1" d="M103.4,52.3h32.5c2.3,0,4.1,1.8,4.1,4.1v25.9c0,2.3-1.8,4.1-4.1,4.1h-32.5c-2.3,0-4.1-1.8-4.1-4.1V56.4
	C99.2,54.2,101.1,52.3,103.4,52.3z"/>
<path class="st1" d="M151.1,52.3h49.1c2.3,0,4.1,1.8,4.1,4.1v25.9c0,2.3-1.8,4.1-4.1,4.1h-49.1c-2.3,0-4.1-1.8-4.1-4.1V56.4
	C147,54.2,148.8,52.3,151.1,52.3z"/>
<path class="st1" d="M215.4,52.3h50.1c2.3,0,4.1,1.8,4.1,4.1v25.9c0,2.3-1.8,4.1-4.1,4.1h-50.1c-2.3,0-4.1-1.8-4.1-4.1V56.4
	C211.3,54.2,213.2,52.3,215.4,52.3z"/>
<path class="st2" d="M229,96.2h38.9c1,0,1.8,0.8,1.8,1.8v27.8c0,1-0.8,1.8-1.8,1.8H229c-1,0-1.8-0.8-1.8-1.8V98
	C227.1,97,227.9,96.2,229,96.2z"/>
<path class="st2" d="M57.7,96.2h32.7c1,0,1.8,0.8,1.8,1.8v42.2c0,1-0.8,1.8-1.8,1.8H57.7c-1,0-1.8-0.8-1.8-1.8V98
	C55.9,97,56.7,96.2,57.7,96.2z"/>
<path class="st2" d="M103.9,96.2h112.2c1,0,1.8,0.8,1.8,1.8v78.8H102.1V98C102.1,97,102.9,96.2,103.9,96.2L103.9,96.2z"/>
<path class="st2" d="M269.7,133.6v43.2h-42.6v-43.2c0-1.1,0.6-2,1.4-2h39.8C269.1,131.6,269.7,132.5,269.7,133.6L269.7,133.6z"/>
<path class="st2" d="M92.3,147.2v29.6H55.9v-29.6c0-0.8,0.6-1.4,1.4-1.4h33.6C91.7,145.8,92.3,146.4,92.3,147.2L92.3,147.2z"/>
<linearGradient id="SVGID_1_" gradientUnits="userSpaceOnUse" x1="162.69" y1="30.5739" x2="162.69" y2="66.4568" gradientTransform="matrix(1 0 0 -1 0 210)">
	<stop  offset="0" style="stop-color:#FFFFFF"/>
	<stop  offset="1" style="stop-color:#FFFFFF;stop-opacity:0"/>
</linearGradient>
<rect x="40.2" y="142.9" class="st3" width="244.9" height="36.5"/>
</svg>
