<?xml version="1.0" encoding="utf-8"?>
<!-- Generator: Adobe Illustrator 26.4.1, SVG Export Plug-In . SVG Version: 6.00 Build 0)  -->
<svg version="1.1" id="a" xmlns="http://www.w3.org/2000/svg" xmlns:xlink="http://www.w3.org/1999/xlink" x="0px" y="0px"
	 viewBox="0 0 324.7 208.8" style="enable-background:new 0 0 324.7 208.8;" xml:space="preserve">
<style type="text/css">
	.st0{fill:#D6D2EE;enable-background:new    ;}
	.st1{fill:#FFFFFF;stroke:#5353C1;stroke-width:2;stroke-miterlimit:10;}
	.st2{fill:#8A8A9E;}
	.st3{fill:none;stroke:#474751;stroke-linecap:round;stroke-linejoin:round;}
	.st4{fill:#6D6D7C;}
</style>
<path class="st0" d="M30.7,23.4h87.4c1.4,0,2.5,1.1,2.5,2.5v10.9c0,1.4-1.1,2.5-2.5,2.5H30.7c-1.4,0-2.5-1.1-2.5-2.5V25.9
	C28.2,24.5,29.3,23.4,30.7,23.4z"/>
<path class="st1" d="M35.6,48.7h251.1c4.1,0,7.4,3.3,7.4,7.4v120.6c0,4.1-3.3,7.4-7.4,7.4H35.6c-4.1,0-7.4-3.3-7.4-7.4V56.1
	C28.2,52,31.5,48.7,35.6,48.7z"/>
<g>
	<path class="st2" d="M42.4,62.8v-1.3h9v1.3h-3.8v10.7h-1.4V62.8L42.4,62.8L42.4,62.8z"/>
	<path class="st2" d="M54.6,76.9c-0.2,0-0.4,0-0.6-0.1c-0.2,0-0.3-0.1-0.4-0.1l0.4-1.2c0.3,0.1,0.6,0.1,0.9,0.1
		c0.3,0,0.5-0.1,0.7-0.3c0.2-0.2,0.4-0.5,0.6-1l0.3-0.7l-3.3-9h1.5l2.5,7.2h0.1l2.5-7.2h1.5l-3.8,10.3c-0.2,0.5-0.4,0.8-0.6,1.2
		s-0.5,0.5-0.9,0.7C55.4,76.8,55.1,76.9,54.6,76.9L54.6,76.9z"/>
	<path class="st2" d="M63.3,76.9V64.5h1.3v1.4h0.2c0.1-0.2,0.2-0.4,0.4-0.6c0.2-0.2,0.4-0.5,0.8-0.7c0.3-0.2,0.8-0.3,1.4-0.3
		c0.8,0,1.4,0.2,2,0.6c0.6,0.4,1,0.9,1.4,1.6c0.3,0.7,0.5,1.5,0.5,2.5c0,0.9-0.2,1.8-0.5,2.5c-0.3,0.7-0.8,1.2-1.3,1.6
		s-1.2,0.6-2,0.6c-0.6,0-1-0.1-1.4-0.3s-0.6-0.4-0.8-0.7c-0.2-0.2-0.3-0.5-0.4-0.6h-0.1v4.8L63.3,76.9L63.3,76.9z M64.6,69
		c0,0.7,0.1,1.3,0.3,1.8c0.2,0.5,0.5,0.9,0.9,1.2c0.4,0.3,0.8,0.4,1.4,0.4s1.1-0.2,1.4-0.5c0.4-0.3,0.7-0.7,0.9-1.2s0.3-1.1,0.3-1.7
		s-0.1-1.2-0.3-1.7c-0.2-0.5-0.5-0.9-0.9-1.2c-0.4-0.3-0.9-0.4-1.5-0.4s-1,0.1-1.4,0.4c-0.4,0.3-0.7,0.7-0.9,1.2
		C64.7,67.7,64.6,68.3,64.6,69L64.6,69z"/>
	<path class="st2" d="M74.4,63c-0.3,0-0.5-0.1-0.7-0.3c-0.2-0.2-0.3-0.4-0.3-0.7s0.1-0.5,0.3-0.7s0.4-0.3,0.7-0.3s0.5,0.1,0.7,0.3
		c0.2,0.2,0.3,0.4,0.3,0.7s-0.1,0.5-0.3,0.7C74.9,62.9,74.6,63,74.4,63z M73.7,73.5v-9H75v9H73.7z"/>
	<path class="st2" d="M79.3,68.1v5.4h-1.4v-9h1.3v1.4h0.1c0.2-0.5,0.5-0.8,1-1.1c0.4-0.3,1-0.4,1.7-0.4c0.6,0,1.1,0.1,1.6,0.4
		c0.5,0.2,0.8,0.6,1.1,1.1c0.3,0.5,0.4,1.1,0.4,1.9v5.7h-1.4v-5.6c0-0.7-0.2-1.3-0.6-1.6c-0.4-0.4-0.9-0.6-1.5-0.6
		c-0.4,0-0.8,0.1-1.2,0.3c-0.3,0.2-0.6,0.5-0.8,0.8C79.4,67.1,79.3,67.5,79.3,68.1L79.3,68.1z"/>
	<path class="st2" d="M91.5,77c-0.7,0-1.2-0.1-1.7-0.3c-0.5-0.2-0.9-0.4-1.2-0.7c-0.3-0.3-0.6-0.6-0.8-0.9l1.1-0.8
		c0.1,0.2,0.3,0.4,0.5,0.6c0.2,0.2,0.5,0.4,0.8,0.6c0.3,0.2,0.8,0.2,1.3,0.2c0.7,0,1.3-0.2,1.8-0.5c0.5-0.4,0.7-0.9,0.7-1.6v-1.8
		h-0.1c-0.1,0.2-0.2,0.4-0.4,0.6c-0.2,0.2-0.4,0.4-0.8,0.6c-0.3,0.2-0.8,0.3-1.4,0.3c-0.7,0-1.4-0.2-2-0.5c-0.6-0.3-1-0.8-1.4-1.5
		c-0.3-0.7-0.5-1.4-0.5-2.4s0.2-1.7,0.5-2.4c0.3-0.7,0.8-1.2,1.4-1.6s1.2-0.6,2-0.6c0.6,0,1,0.1,1.4,0.3s0.6,0.4,0.8,0.7
		c0.2,0.2,0.3,0.4,0.4,0.6h0.1v-1.4h1.3v9.2c0,0.8-0.2,1.4-0.5,1.9c-0.4,0.5-0.8,0.8-1.4,1.1C92.9,76.9,92.3,77,91.5,77L91.5,77z
		 M91.5,72.1c0.6,0,1-0.1,1.4-0.4c0.4-0.3,0.7-0.6,0.9-1.1c0.2-0.5,0.3-1,0.3-1.7s-0.1-1.2-0.3-1.7s-0.5-0.9-0.9-1.2
		c-0.4-0.3-0.9-0.4-1.4-0.4S90.4,65.8,90,66c-0.4,0.3-0.7,0.7-0.9,1.2c-0.2,0.5-0.3,1.1-0.3,1.7s0.1,1.2,0.3,1.6
		c0.2,0.5,0.5,0.8,0.9,1.1C90.4,71.9,90.9,72.1,91.5,72.1L91.5,72.1z"/>
	<path class="st2" d="M99.3,73.6c-0.3,0-0.5-0.1-0.7-0.3c-0.2-0.2-0.3-0.5-0.3-0.7c0-0.3,0.1-0.5,0.3-0.7c0.2-0.2,0.5-0.3,0.7-0.3
		c0.3,0,0.5,0.1,0.7,0.3c0.2,0.2,0.3,0.5,0.3,0.7c0,0.2,0,0.4-0.1,0.5c-0.1,0.2-0.2,0.3-0.4,0.4C99.7,73.5,99.5,73.6,99.3,73.6
		L99.3,73.6z"/>
	<path class="st2" d="M104.2,73.6c-0.3,0-0.5-0.1-0.7-0.3c-0.2-0.2-0.3-0.5-0.3-0.7c0-0.3,0.1-0.5,0.3-0.7c0.2-0.2,0.5-0.3,0.7-0.3
		c0.3,0,0.5,0.1,0.7,0.3c0.2,0.2,0.3,0.5,0.3,0.7c0,0.2,0,0.4-0.1,0.5s-0.2,0.3-0.4,0.4C104.6,73.5,104.4,73.6,104.2,73.6
		L104.2,73.6z"/>
	<path class="st2" d="M109.1,73.6c-0.3,0-0.5-0.1-0.7-0.3c-0.2-0.2-0.3-0.5-0.3-0.7c0-0.3,0.1-0.5,0.3-0.7c0.2-0.2,0.5-0.3,0.7-0.3
		c0.3,0,0.5,0.1,0.7,0.3c0.2,0.2,0.3,0.5,0.3,0.7c0,0.2,0,0.4-0.1,0.5s-0.2,0.3-0.4,0.4C109.5,73.5,109.3,73.6,109.1,73.6
		L109.1,73.6z"/>
</g>
<line class="st3" x1="121.8" y1="59" x2="121.8" y2="75.9"/>
<path class="st4" d="M145.5,99.5c0,0.1-0.1,0.2-0.2,0.2h-1.1c-0.7,0-1.3-0.4-1.6-1c-0.3,0.6-0.9,1-1.6,1h-1.1
	c-0.1,0-0.2-0.1-0.2-0.2c0-0.1,0.1-0.2,0.2-0.2h1.1c0.8,0,1.4-0.6,1.4-1.4v-4.1h-2c-0.1,0-0.2-0.1-0.2-0.2s0.1-0.2,0.2-0.2h2v-4.8
	c0-0.8-0.6-1.4-1.4-1.4h-1.1c-0.1,0-0.2-0.1-0.2-0.2s0.1-0.2,0.2-0.2h1.1c0.7,0,1.3,0.4,1.6,1c0.3-0.6,0.9-1,1.6-1h1.1
	c0.1,0,0.2,0.1,0.2,0.2s-0.1,0.2-0.2,0.2h-1.1c-0.8,0-1.4,0.6-1.4,1.4v4.8h2c0.1,0,0.2,0.1,0.2,0.2s-0.1,0.2-0.2,0.2h-2v4.1
	c0,0.8,0.6,1.4,1.4,1.4h1.1C145.4,99.2,145.5,99.3,145.5,99.5L145.5,99.5z"/>
</svg>
