<?xml version="1.0" encoding="utf-8"?>
<!-- Generator: Adobe Illustrator 26.4.1, SVG Export Plug-In . SVG Version: 6.00 Build 0)  -->
<svg version="1.1" id="Layer_1" xmlns="http://www.w3.org/2000/svg" xmlns:xlink="http://www.w3.org/1999/xlink" x="0px" y="0px"
	 viewBox="0 0 918.6 250" style="enable-background:new 0 0 918.6 250;" xml:space="preserve">
<style type="text/css">
	.st0{fill:url(#SVGID_1_);}
	.st1{fill:url(#SVGID_00000101810431624052316900000009504704812961354387_);}
	.st2{fill:#717196;}
</style>
<radialGradient id="SVGID_1_" cx="125.3224" cy="-120.2952" r="146.1608" gradientTransform="matrix(1 0 0 1 0 244)" gradientUnits="userSpaceOnUse">
	<stop  offset="0" style="stop-color:#FFFFFF"/>
	<stop  offset="0.3921" style="stop-color:#FEFDFF"/>
	<stop  offset="0.5333" style="stop-color:#F9F6FD"/>
	<stop  offset="0.634" style="stop-color:#F0EBFA"/>
	<stop  offset="0.7155" style="stop-color:#E3DAF6"/>
	<stop  offset="0.7852" style="stop-color:#D3C4F1"/>
	<stop  offset="0.847" style="stop-color:#BEA8EA"/>
	<stop  offset="0.9028" style="stop-color:#A688E3"/>
	<stop  offset="0.9525" style="stop-color:#8B64DA"/>
	<stop  offset="0.9983" style="stop-color:#6C3BD0"/>
	<stop  offset="1" style="stop-color:#6B39D0"/>
</radialGradient>
<circle class="st0" cx="125.3" cy="123.7" r="116.1"/>
<linearGradient id="SVGID_00000053516674774296721240000009473727922544977589_" gradientUnits="userSpaceOnUse" x1="68.2149" y1="422.6435" x2="181.8239" y2="309.0345" gradientTransform="matrix(1 0 0 -1 0 493)">
	<stop  offset="0" style="stop-color:#FFDFFF"/>
	<stop  offset="0.233" style="stop-color:#D7B2F2"/>
	<stop  offset="0.5974" style="stop-color:#9D71E0"/>
	<stop  offset="0.8631" style="stop-color:#7948D4"/>
	<stop  offset="1" style="stop-color:#6B39D0"/>
</linearGradient>
<path style="fill:url(#SVGID_00000053516674774296721240000009473727922544977589_);" d="M225,116c-8.7-12-33.5-40.9-73.5-50.2
	c-7.3-1.6-14.7-2.6-22.4-2.9c-9.9-0.2-20,0.8-29.7,2.9c-30.3,6.8-56.8,24.9-74.2,50.9c-4.4,6.4-4.4,15.2,0.1,21.5
	c11.9,17.1,27.9,31.1,46.6,40.3c16.8,8.4,35.3,12.8,53.8,12.8c2.1,0,4.1-0.1,6.2-0.2c51.1-2.7,82.1-37.6,93-52.4
	C229.9,132,229.9,122.8,225,116z M86.1,107.1c0.9-4.1,2.4-8.1,4.7-11.6c2.9-4.7,8.5-10.9,18.7-14.4c1.6-0.7,3.4-1.1,5.2-1.3
	c3.1-0.7,6.1-0.9,9.3-0.7c0.3,0,0.5,0,0.9,0.1c2.6,0.5,4.5,2.8,4.4,5.5c-0.1,3.1-2.7,5.2-5.6,5.1c-3.6-0.2-7.1,0.3-10.4,1.4
	c-7.2,2.5-11.1,6.9-13.1,10c-1.5,2.4-2.6,5.1-3.3,8c-0.5,2.5-2.8,4.3-5.3,4.3c-0.3,0-0.8,0-1.1-0.1
	C87.4,112.8,85.6,109.9,86.1,107.1z M211.9,129.2c-9.6,13-36.6,43.4-80.9,45.8c-1.7,0.1-3.5,0.1-5.3,0.1
	c-34.2,0-67.1-17.4-87.1-46.2c-0.8-1.1-0.8-2.4,0-3.3c10.5-15.6,24.7-27.9,41-35.9c-4.1,7.6-6.4,16.3-6.4,25
	c0,28.7,23.4,52.2,52.2,52.2s52.2-23.4,52.2-52.2c0-8.6-2.2-17-6.1-24.5c7.1,3.6,13.3,7.9,18.6,12.2c10.7,8.6,18.1,17.7,21.9,22.9
	C212.7,126.6,212.7,128,211.9,129.2z"/>
<path class="st2" d="M302,178.6V79.4h11.6l44.5,75h-6.2l44-75h11.6l0.1,99.2H394l-0.1-77.8h3.3L358,166.6h-6.5l-39.4-65.8h3.5v77.8
	H302z"/>
<path class="st2" d="M456.4,179.5c-5.6,0-10.5-0.9-14.7-2.8c-4.2-1.9-7.4-4.5-9.7-7.9c-2.3-3.4-3.4-7.2-3.4-11.4
	c0-4.1,1-7.7,2.9-11.1c1.9-3.3,5.1-6,9.5-7.9c4.4-2,10.3-3,17.8-3h23.8v9.8h-23.3c-6.8,0-11.4,1.1-13.8,3.4c-2.4,2.3-3.5,5-3.5,8.2
	c0,3.7,1.5,6.6,4.4,8.9c2.9,2.2,7,3.3,12.2,3.3c5.1,0,9.6-1.1,13.4-3.4c3.8-2.3,6.6-5.6,8.3-9.9l2.7,9.4c-1.8,4.4-5,8-9.5,10.6
	C469,178.2,463.3,179.5,456.4,179.5z M481.1,178.6v-15.9l-0.7-3v-27.1c0-5.8-1.7-10.2-5-13.4c-3.4-3.2-8.4-4.7-15.1-4.7
	c-4.4,0-8.8,0.7-13,2.2c-4.3,1.5-7.8,3.4-10.8,5.9l-5.7-10.2c3.9-3.1,8.5-5.5,14-7.2c5.4-1.7,11.1-2.5,17.1-2.5
	c10.3,0,18.2,2.5,23.8,7.5c5.6,5,8.4,12.7,8.4,23v45.4H481.1z"/>
<path class="st2" d="M507.4,114.7v-11.2h47.9v11.2H507.4z M544,179.5c-7.6,0-13.4-2-17.6-6.1c-4.2-4.1-6.2-9.9-6.2-17.4V87h13.6
	v68.3c0,4.1,1,7.2,3,9.4c2,2.2,4.9,3.3,8.7,3.3c4.3,0,7.8-1.2,10.6-3.5l4.3,9.8c-2.1,1.8-4.6,3.1-7.4,4
	C550.1,179.1,547.1,179.5,544,179.5z"/>
<path class="st2" d="M575.9,178.6v-75.1h13v20.4l-1.3-5.1c2.1-5.2,5.6-9.2,10.5-11.9c4.9-2.7,11-4.1,18.1-4.1V116
	c-0.6-0.1-1.1-0.1-1.6-0.1c-0.5,0-1,0-1.5,0c-7.3,0-13,2.2-17.3,6.5c-4.3,4.3-6.4,10.6-6.4,18.9v37.4H575.9z"/>
<path class="st2" d="M663.5,179.5c-7.6,0-14.3-1.7-20.1-5c-5.9-3.3-10.5-7.9-13.9-13.7c-3.4-5.8-5.1-12.4-5.1-19.8
	c0-7.5,1.7-14.1,5.1-19.8c3.4-5.8,8-10.3,13.9-13.5c5.9-3.3,12.6-4.9,20.1-4.9c7.5,0,14.2,1.6,20.1,4.9c5.9,3.3,10.5,7.8,13.9,13.5
	c3.4,5.7,5,12.4,5,19.9c0,7.5-1.7,14.1-5,19.8c-3.4,5.8-8,10.3-13.9,13.6C677.7,177.8,671,179.5,663.5,179.5z M663.5,167.6
	c4.8,0,9.1-1.1,13-3.3c3.8-2.2,6.8-5.3,9-9.3c2.2-4,3.3-8.7,3.3-14c0-5.4-1.1-10-3.3-14c-2.2-3.9-5.2-7-9-9.1
	c-3.8-2.2-8.2-3.3-13-3.3c-4.8,0-9.1,1.1-12.9,3.3c-3.8,2.2-6.8,5.2-9.1,9.1c-2.3,3.9-3.4,8.6-3.4,14c0,5.3,1.1,9.9,3.4,14
	c2.3,4,5.3,7.1,9.1,9.3C654.4,166.5,658.7,167.6,663.5,167.6z"/>
<path class="st2" d="M794.4,179.8c-13,0-23.3-3.7-30.8-11.2c-7.5-7.5-11.2-18.4-11.2-32.8V79.4h14.2v55.9c0,11.1,2.4,19.1,7.3,24.2
	c4.9,5.1,11.7,7.7,20.6,7.7c9,0,15.9-2.6,20.8-7.7c4.9-5.1,7.3-13.2,7.3-24.2V79.4h13.8v56.4c0,14.4-3.7,25.3-11.1,32.8
	C817.8,176,807.5,179.8,794.4,179.8z"/>
<path class="st2" d="M858.1,178.6V79.4h14.2v99.2H858.1z"/>
</svg>
