<?xml version="1.0" encoding="utf-8"?>
<!-- Generator: Adobe Illustrator 26.4.1, SVG Export Plug-In . SVG Version: 6.00 Build 0)  -->
<svg version="1.1" id="Layer_1" xmlns="http://www.w3.org/2000/svg" xmlns:xlink="http://www.w3.org/1999/xlink" x="0px" y="0px"
	 viewBox="0 0 918.6 250" style="enable-background:new 0 0 918.6 250;" xml:space="preserve">
<style type="text/css">
	.st0{fill:#717196;}
	.st1{fill:url(#SVGID_1_);}
	.st2{fill:url(#SVGID_00000091703879792945266050000011390577836598536615_);}
</style>
<path class="st0" d="M302,178.6V79.4h11.6l44.5,75h-6.2l44-75h11.6l0.1,99.2H394l-0.1-77.8h3.3L358,166.6h-6.5l-39.4-65.8h3.5v77.8
	H302z"/>
<path class="st0" d="M456.4,179.5c-5.6,0-10.5-0.9-14.7-2.8c-4.2-1.9-7.4-4.5-9.7-7.9c-2.3-3.4-3.4-7.2-3.4-11.4
	c0-4.1,1-7.7,2.9-11.1c1.9-3.3,5.1-6,9.5-7.9c4.4-2,10.3-3,17.8-3h23.8v9.8h-23.3c-6.8,0-11.4,1.1-13.8,3.4c-2.4,2.3-3.5,5-3.5,8.2
	c0,3.7,1.5,6.6,4.4,8.9c2.9,2.2,7,3.3,12.2,3.3c5.1,0,9.6-1.1,13.4-3.4c3.8-2.3,6.6-5.6,8.3-9.9l2.7,9.4c-1.8,4.4-5,8-9.5,10.6
	C469,178.2,463.3,179.5,456.4,179.5z M481.1,178.6v-15.9l-0.7-3v-27.1c0-5.8-1.7-10.2-5-13.4c-3.4-3.2-8.4-4.7-15.1-4.7
	c-4.4,0-8.8,0.7-13,2.2c-4.3,1.5-7.8,3.4-10.8,5.9l-5.7-10.2c3.9-3.1,8.5-5.5,14-7.2c5.4-1.7,11.1-2.5,17.1-2.5
	c10.3,0,18.2,2.5,23.8,7.5c5.6,5,8.4,12.7,8.4,23v45.4H481.1z"/>
<path class="st0" d="M507.4,114.7v-11.2h47.9v11.2H507.4z M544,179.5c-7.6,0-13.4-2-17.6-6.1c-4.2-4.1-6.2-9.9-6.2-17.4V87h13.6
	v68.3c0,4.1,1,7.2,3,9.4s4.9,3.3,8.7,3.3c4.3,0,7.8-1.2,10.6-3.5l4.3,9.8c-2.1,1.8-4.6,3.1-7.4,4C550.1,179.1,547.1,179.5,544,179.5
	z"/>
<path class="st0" d="M575.9,178.6v-75.1h13v20.4l-1.3-5.1c2.1-5.2,5.6-9.2,10.5-11.9c4.9-2.7,11-4.1,18.1-4.1V116
	c-0.6-0.1-1.1-0.1-1.6-0.1s-1,0-1.5,0c-7.3,0-13,2.2-17.3,6.5s-6.4,10.6-6.4,18.9v37.4h-13.5V178.6z"/>
<path class="st0" d="M663.5,179.5c-7.6,0-14.3-1.7-20.1-5c-5.9-3.3-10.5-7.9-13.9-13.7s-5.1-12.4-5.1-19.8c0-7.5,1.7-14.1,5.1-19.8
	c3.4-5.8,8-10.3,13.9-13.5c5.9-3.3,12.6-4.9,20.1-4.9s14.2,1.6,20.1,4.9c5.9,3.3,10.5,7.8,13.9,13.5s5,12.4,5,19.9s-1.7,14.1-5,19.8
	c-3.4,5.8-8,10.3-13.9,13.6C677.7,177.8,671,179.5,663.5,179.5z M663.5,167.6c4.8,0,9.1-1.1,13-3.3c3.8-2.2,6.8-5.3,9-9.3
	s3.3-8.7,3.3-14c0-5.4-1.1-10-3.3-14c-2.2-3.9-5.2-7-9-9.1c-3.8-2.2-8.2-3.3-13-3.3s-9.1,1.1-12.9,3.3c-3.8,2.2-6.8,5.2-9.1,9.1
	c-2.3,3.9-3.4,8.6-3.4,14c0,5.3,1.1,9.9,3.4,14c2.3,4,5.3,7.1,9.1,9.3C654.4,166.5,658.7,167.6,663.5,167.6z"/>
<path class="st0" d="M794.4,179.8c-13,0-23.3-3.7-30.8-11.2s-11.2-18.4-11.2-32.8V79.4h14.2v55.9c0,11.1,2.4,19.1,7.3,24.2
	c4.9,5.1,11.7,7.7,20.6,7.7c9,0,15.9-2.6,20.8-7.7c4.9-5.1,7.3-13.2,7.3-24.2V79.4h13.8v56.4c0,14.4-3.7,25.3-11.1,32.8
	C817.8,176,807.5,179.8,794.4,179.8z"/>
<path class="st0" d="M858.1,178.6V79.4h14.2v99.2H858.1z"/>
<radialGradient id="SVGID_1_" cx="125.476" cy="9708.2998" r="146.8244" gradientTransform="matrix(1 0 0 1 0 -9584)" gradientUnits="userSpaceOnUse">
	<stop  offset="0" style="stop-color:#FFFFFF"/>
	<stop  offset="0.3921" style="stop-color:#FEFDFF"/>
	<stop  offset="0.5333" style="stop-color:#F8F6FD"/>
	<stop  offset="0.634" style="stop-color:#EEEBFA"/>
	<stop  offset="0.7155" style="stop-color:#DFDAF6"/>
	<stop  offset="0.7852" style="stop-color:#CCC4F1"/>
	<stop  offset="0.847" style="stop-color:#B4A8EA"/>
	<stop  offset="0.9028" style="stop-color:#9988E3"/>
	<stop  offset="0.9525" style="stop-color:#7A64DA"/>
	<stop  offset="0.9983" style="stop-color:#563BD0"/>
	<stop  offset="1" style="stop-color:#563AD0"/>
</radialGradient>
<circle class="st1" cx="125.5" cy="124.3" r="116.7"/>
<g>
	<g>
		
			<linearGradient id="SVGID_00000183941968250573882450000003003534509688617916_" gradientUnits="userSpaceOnUse" x1="69.8199" y1="-9403.1621" x2="176.8395" y2="-9510.1816" gradientTransform="matrix(1 0 0 -1 0 -9329.3457)">
			<stop  offset="0" style="stop-color:#F7DFFF"/>
			<stop  offset="0.233" style="stop-color:#CEB2F2"/>
			<stop  offset="0.5974" style="stop-color:#8D71E0"/>
			<stop  offset="0.8631" style="stop-color:#5737D4"/>
			<stop  offset="1" style="stop-color:#563AD0"/>
		</linearGradient>
		<path style="fill:url(#SVGID_00000183941968250573882450000003003534509688617916_);" d="M218.5,118c-3.6-5.1-11.7-15.3-23.8-25.1
			c-14.1-11.4-29.7-19.2-46.2-23.1c-6.8-1.5-14-2.5-21.2-2.8c-0.8,0-1.5,0-2.3,0c-8.7,0-17.5,1-26,2.8c-29,6.5-54.1,23.8-70.6,48.7
			c-3.6,5.4-3.6,12.7,0,17.9c11.3,16.5,26.7,29.9,44.4,38.7c15.9,8.1,33.7,12.3,51.3,12.3c1.9,0,3.7-0.1,5.7-0.2h0.3
			c48.7-2.6,78.2-36,88.6-50.2C222.6,131.4,222.6,123.7,218.5,118z M107.2,79.4c1.9-0.8,3.9-1.2,5.5-1.4c2.4-0.5,4.8-0.8,7.3-0.8
			c0.8,0,1.5,0,2.3,0.1c0.4,0,0.8,0,1.3,0.2c3.9,0.8,6.6,4.2,6.5,8.3c-0.1,4.3-3.6,7.7-8.1,7.7h-0.3c-0.5,0-1,0-1.3,0
			c-2.7,0-5.2,0.4-7.8,1.2c-6.1,2.1-9.6,6-11.3,8.7c-1.2,2-2.2,4.3-2.8,6.9c-0.8,3.6-4.1,6.4-7.9,6.4c-0.5,0-1.2,0-1.7-0.2
			c-4.4-1.1-7.2-5.2-6.3-9.6c1-4.7,2.6-8.8,5-12.3C90.5,89.8,96.4,83.2,107.2,79.4z M210.4,130.8L210.4,130.8L210.4,130.8
			c-9.6,13.2-36.6,43.8-81.1,46.2c-1.7,0.1-3.6,0.1-5.3,0.1c-16.8,0-33.8-4.3-49-12.4s-28.4-19.9-38.2-34.1c-1.4-2-1.4-4.6,0-6.5
			c10.5-15.6,24.6-28,41-36.1l7.9-3.9l-4.2,7.8c-3.8,7.1-5.9,15.2-5.9,23.2c0,26.7,21.6,48.4,48.1,48.4s48.1-21.7,48.1-48.4
			c0-7.8-1.9-15.7-5.7-22.7l-4.1-7.9l7.9,4c6.3,3.3,12.6,7.4,18.6,12.3c10.4,8.4,17.6,17.2,21.9,23.1l0.2,0.2l0.1,0.3
			C211.7,126.5,211.6,128.9,210.4,130.8z"/>
	</g>
</g>
</svg>
